<svg id="svg2" xmlns="http://www.w3.org/2000/svg" viewBox="0 0 4169.63 3287.27"><defs><style>.cls-1,.cls-2{fill:#bbb;stroke-width:2px;}.cls-1{stroke:#000;stroke-linejoin:round;}.cls-2{stroke:#950000;}</style></defs><g id="foggia"><path id="foggia-path" class="cls-1" d="M1218.19,1148.17l-24.72-12-14.84-4.42-5.37-2.84-2.21-3.79-7.26-3.47-5.36-5.37-10.42-5-14.84-15.47-9.47-3.78-5-5.69-5.05-10.41-2.21-5.69-8.21-3.47-4.42-10.73-5.36-5-4.42-14.52-10.74-21.78-9.15-18-3.47-17-3.47-1.9-3.48-22.41-2.52-12.94L1054.57,906l2.21-26.2,7.89-4.1,4.42-9.47,15.15-16.42,9.16-3.78,9.78-10.11,11.37-4.1,7.57-3.16-.31-1.89,6.31-5,10.1-5.37,15.47-15.15,10.1-4.73,12.63-3.79,3.47-7,6.63-2.52,1.26-4.11s9.47-1.89,10.74-2.21,10.41-10.1,10.41-10.1L1231.35,747l2.21-18.63,5.68-7.58,14.52-3.47,4.73-6.94,11.37-20.21,9.47-4.73,11.05-4.1s13.57-3.16,15.15-3.16,4.42-7,4.42-7l3.47-6.63,5-2.21,6.63-6,5.05-2.84,2.53-18.31,2.21-2.21,10.41-.63,6.32-5.05,3.15-10.74,5.69-17.68,3.78-13.89-6.94-7.57,2.52-12,2.53-5.68-3.79-5,4.42-5.05v-6.31l-11.36-3.16-11.37-10.1.63-5.05,6.32-1.27,2.52-5.68-16.41-2.52L1328.89,496l-.63-32.83-18.94-7.58-10.1-22.73L1291,427.8l-4.42-5.05-8.21,4.42-6.31,1.89-10.74-6.94-6.31-5.68-9.47-3.79-23.36-24-24-1.27-8.84-4.42-19.57,3.79-8.84,2.53-12.63-3.79h-17.67l-29.68,12-35.35,13.25-23.36,1.9-20.84,8.21-19.57,5.68L957,431l-53.67,15.15-49.24,10.73-40.41,4.42-22.1,4.42-22.72-3.16-6.32-8.2-21.46-2.53L731,448l-17.67,2.53-17.05,6.31-43.56,8.21-27.15,12.63-22.1,3.15L578.85,492.2,558,497.88l-37.25,3.79-25.26,5.68-34.09,2.52-25.25-2.52-10.74-5.05L414.07,489l-30.94-.63-67.55,2.52-49.25,3.16-76.39-.63-3.45-2.95-1.34,6-1.78,19.19,3.34,22.32,4.25,4.69,3.12,9.15,1.79,3.8-1.57,5.58-5.8,5.35-4.91,9.6-4.69,16.52L174,601.45l-11.61,3.79-3.12,20.54-4,2.45,2,2.9,6.7,10.49,9.82,10.27L178.46,676l3.12,8.71-2.23,11.83-11.16,4.91-3.8,9.59-3.57,10.72,2.9,10,9.6,9.6,7.59,3.8,7.59,4.24-1.79,6-7.58-2.9-8,2.68v8.26l2.9,2.9,9.82,9.6,2,5.58,5.36,4.69,1.11,6.69,16.08,2.91,6.47,5.8,21,1.56,1.12,5.14-7.15,2.9-12.5,6.25s-3.34,4.46-4.46,4.91l-9.37,3.79L195,828.9,192.52,832s-6.48,2-5.36,2-2,8.7-2,8.7l-5.58,4-4.46,2.45L178,853l2.9,2.9-.22,7.81H169.3l-2.67-10.49-4,1.34-.67,7.59-2,9.15-6,4.91-10.71,5.14L128,885.82l-2.9,2.9-3.8,2.9-1.11,8.49-2.91,5.13.45,7.81,2.46,4.24-1.57,3.58-12.94-2.68-7.15,4.46-1.33,7.59,1.33,9.82,4.92,5.81-3.58.44-26.34-4-8.48-5.13L57.7,934l-1.12-6.48-4.24-9.37-6.25.44-2.9,4.25-6.25-4.25-8-2.45L24,911.71l-3.57,1.57-2,9.15L14.17,936,3.68,946.09,1,952.34l1.79,7.37,8.92,4.46,6.48,4.69-1.57,4.91-3.57,1.11-2.23,8.49,4.91.44L18.19,991l4.24,4.24-4,2-3.79,4.91,4.24,14.51,2.45,4-2.23,6.48-4.24,13.61-4.24,9.38-.22,23.43.89,13,1.56,7.81,10.71,1.79,22.55,3.79,1.56,3.58,4.24,1.33,4.69,8,4.46,4.69L64,1122l14.51,4.47,9.15,6.92,4.24,7.36,1.56,1.12,6,4.91,5.8,5.36,6.47,2.23,2.46,6.92,5.13,15.18,2.68,12,4.91,2.23,4.47-4,5.13-1.11,3.13,16.07,21,2.9,3.57,6.47,34.6,4.47,5.58,9.82,3.79,4-3.35,2.68-13.39,4.24-1.56,10.49-5.13,5.36,4.24,6.69,4.68,6.25,6,2.68.45,7.59-15.85,5.8L180,1291l-11.39,11.16-6.25,2-1.11,7.82,2.9,4.46,4.91,15.4,4.24,23.22,4.91,6.69,10.27,4.91,3.13,1.79,8.7-1.12,3.13-2.23,4,.9,5.81,3.12,9.15,6.25,24.55,4.46.67,11.83-5.35,2.91-1.34,8.7,9.82,2.23,5.13,4,1.34,10.94,7.59,7.37,4,3.12,2.23,2.23,3.79-1.56,14.51-6,12.06-1.56,6.25-2.45.44-2.46,16.74-.45,3.13,5.81-7.37,3.79,2.24,4,8,.89,14.29,2,4.24,6,.89,6.25,5.58,2.68,2.68-3.8,4.46-6.47,15.18-.67,6.25,2.45,8,2.24.44,6.47,6.7,6.7,10.27,9.59,2.68,5.59,2.45,4,.9,2.9-6,2.24-26.79,5.35L380,1493l3.57,18.53,5.8,10.72,10.49,9.15,2,5.35-1.34,5.36-10.26,4.47-6.7,5.35-9.38,4.47-10,10.49-4.69,13.61L349,1591.4l-4.24,8.26,2,12.72,8.26,9.38,7.59,4.69,22.54,5.13,4,10.27,4.91,5.36,4.24,9.82,6,4.68,7.36,4.69,3.35,10.94,8.93,4,9.82,5.58,8.93,3.12,3.57,4,5.58.45,1.57-3.57,10.71-4.69,3.13-6.92,9.15.67,8,6.25,29.91,5.13,7.37,3.8,3.35,2.9,14.73-1.12,9.6-10.27,4.91-10.49,4-5.8,4-7.81,6,3.57,7.59,6,5.13,6.92,6.7,3.57,10.49,2.68,14.94,15.84,16.1,2.53,18.62-2.53,1.58-2.21,8.21.32V1706l10.42,4.42,21.15,11,15.15,4.1,9.78,4.74,11.68-2.85-.94-16.1-3.79-3.47-.32-4.1h7l4.42-5.37,7.57-4.73,1.9-14.84,7.26-2.21,4.42-2.84,5.05-4.74,5.37-2.21,36-5,6.63-2.52,11.68,2.21,7.26,5.36,28.1,4.42,5,1.58,6.94,1.58.95-5.05,6.31.63,1,2.84,6.63,1,4.73-1.58,17.37-6.31,16.09-4.11,6.32-2.52,4.73-7.26,15.47-3.47,12.94,1.57,12,10.42.95,7,4.1,2.84,4.42-3.16,5.68-6.31,19.26-4.74,4.73-15.47,3.79-16.1,3.79-1.89,1.26-6.31,11-4.74,5-5.36,3.79-8.53,3.47-3.47,5.37.63,3.15,3.79,8.21-2.21,14.52-1.89,4.74-6.32,6.19-10.25-.25-1,1.5-3.09,1.3-1.91.8-.89,11.37-12.29,17.82-17.88,6.51-.9,7.08-10.8,1.67-5.07,8.8-12.64,1.38-.8.56-.26.82-.3,2.94-.54.85-.12,7.36-1,11.92-.45,43.82-22,16-20.67,6.07-5.63.28-.48,3.09-6,3.42-6.79-.44-5-1.5-7.41-3-.76-.16,0-.5-.12-.12-13.13.06-.44.23-.53.42-.53.54-.57.78-.71,1.2-.92.64-.79.6-.87,4.83-8.84.65-1.51.92-2.1,4.62-12.9.76-2.11,2.84-7.93,0-.09,2.12-5.94-7.14,2.35-3.25,1.2-6.92,6.57-.28.17-.65.12-15.43,1-1.1-12.39-7.15-9.64-1.43-1.93-.06-.09-2.16-2.91,0,0-11.79-19.23-2.28-4.2-2.4-6.62-4.62.28-.52-4.49-4.06-38.17-1.63-16.47v-.15l-.81-8.17-1.38-13.94,3.58.54,7.26-1.6,15.32-8.3,18.08-9.79.24-.13,8-4.3,3.42-1.85.69-.74,3.51-7.66-.11-1.11-.17-1-.25-1-.56-1.19-.69-.64-4.27-2.56-1-.45-.94-.39-2.88,1.19-1.26.46-1.07-.17-1.49-.34-1.24-.33-2-.57-1.23-.55-17.19-10.38-18.54-9.47-9.42-5.64-11.43-8.55-28.62-8.9-13.26-3.71-.09,0,.43-1.23,10.71-20.65,1.91-3.66,22.5,1.07,2.33.19,3.86.52,1.56.2,2,.28.81.22,9.24,2.5,4,1.65.43.79,1.21,1.73.41.44,4.55,1.76,1.29.5,9.76,3.38h0l5.34,1.5,6.63,2.26,2.75,1,1.14.5,4.55,2.15-.62-6.38Zm27.36-748.46,7.89,1.89v4.1h-8.52Zm83.65,51.13,8.53.32,1.58,9.79-5.37-1.27-4.74-4.1v-4.74ZM813.5,1c1.79,0,14.73.89,14.73.89l.89,4-5.8,1.34-.89,3.13-2.68.44-3.57-4.46-2.68-.9V1ZM583.59,147.88,572,147.43,570.64,155l-.44,5.35,3.12.9,2.23-5.36h7.59l.45-8Zm-12,18.23,9.47-2.21,1.26,4.73-7.26,7.26-10.73,5.69s-4.42-4.11-3.16-4.74,7.26-6,7.26-6ZM534,199.57l1.26-6.31,6.94-3.79,3.79-3.79,2.53-13.57,6.63,1.89,1.89,5.05,4.42,5-1.9,4.42-3.78,7.26-6.95,6.31-8.52,3.16L534,199.57Z" transform="translate(0)"/></g><g id="bari"><path id="barth-path" class="cls-1" d="M2072.36,2118.66l-7-4.33-9.53-8.6-13.75-5.31-14.06-9.84-5.94-4.69-9.69-12.19-5.47-3.44-2.34,6.88-2.34,9.53v5.47l-9.85.31-1.72-10.47-5.15-8.9-5.32-3.91-2-7.5-3.9,1.09-4.38,4.69-9.22,2-3.75,3.28-11.4,5-9.07-.62-3.59-4.22-7.66-8.91-2.34-6.87L1913,2057l-9.07,6.1-3.43,6.09,1.72,7.66,4.53,2.65,5,6.56,2.34,7.5-.94,3.91-6.72,3.13-8,.15s-5.63-3.59-5.79-4.53-1.09-7.5-1.09-8.28a20.43,20.43,0,0,1,.78-3.28l.31-5.47-.62-5.63-2.34-3.12-6.41-2.81-5.16,3-7.34,5.93-3.44,4.85-3.12,4.53.62,5.15,4.06,3.75,2.5,3.75,2,4.85,2.18,7.81,4.38,3.44,3,6.72-1.72,4.06-8.13.16-6.72-8.13-6.71-5-5.94-7.66-1.25-9.06-2-4.37-8.75-5.94-8.28-6.09-2.66-6.57-2.66-4.68-5.78,3.59-4.84,9.06-2.19,12-6.72,5.32-3.75,8.75-6.87,10.46-3.44,6.72-5.94,5-7.5,5-4.37,7.82-10.32,6.4-3.28,4.06-7,5.79-7.34,3.9-3.91,4.85-7,2.34-5.31-2-8.6-5.94-4.21-5-3.91-9.22-3.75-6.56-6.41-6.41-.93-8-4.69-4.21-7-3-3.75-2.5-8-3-9.06-5-9.54-4.38-8.75-8.43-8.59-8.6-9.84-10.94-9.69-7.18-13.59-13.6-11.25-6.09-5.63-9.38-13.91-4.53L1570.8,2031l-2.5-9.21-5.31-8.13-6.57-3-6.71-4.06-6.88-10.47-1.72-4.53s-7.54-6-8.42-6.69-11-8.4-11-8.4l-3.1-5.3-3.31-3.75s-3.31-6-3.54-6.86-3.09-4.86-3.09-4.86l-1.77-7.51-.22-15.47-2-2.65-1.32-3.09,4-1.33-1.11-4-3.09-5.52-6.41-2v-4.42l-3.32-10.83-4.19-6.4-4.64-5.53-4-4.42-4-3.31-3.63-5.91,4.55-10,1.42-3.94,2.11-5.64.5-1.18.5-1.16.66-1.23,14.41-22.59.69-1,6.17-8.38.6-.64.57-.52.13-.13.83-.76,12.47-11.07,2.21-1.89,3.19-2.24.38-5.16,4.65-27.49,2.45-13.5,3.26-17.91-14.75-12.59,3.24-6.61.54-.62,4.63-4.18,1.1-.59,1.33-.78,1.07-.84.8-.77.21-.88.38-4.18.07-1.14-.26-1.05-.46-.22-1.94-1.85-2.69-2.87-.22-1,1.72-6.1.77-2,7.66-15.24,12.81-21.82,2-2.94,4.46-6.52,4.71-7.32.45-.79,2.58-11.8,10.46-12.48,1.72-3.65.46-3,2.39-7.32.46-1.39.13-.39,2-6.11.6-1.81.45-1.07.74-.58,4.23-3.6L1604,1563l1.75-2.06,1.41-2.09.57-.87.21-.32.5-1,.52-1.21.34-1.19,3.39-13,0,0-2.5-2.49-3.59-3.38-5.62-4.51-5.59-12.61.57-.7,1.35-2.65,1.25-2.77.57-1.4-.7-6-.24-1-2.2-7.61,13.93,4.18,6.19,1.82.31-2.24.44-2.21,1.17-5.3.24-.76.87-1.76,3.18-4,17.17-15.52,3.9-15,1.1-3.44.71-1.13,3.92-2.37,3.61,1,2.66,1.19,1.52,6.21.1.49,2.83,1.43,21.08.85,8.31-3.58.4-.28.4-.37.29-.39.33-.74,0-.74.58.12,7.19,2,.77.25.58.48.38.51,1.73,4.78-.26.62-.43,1-.19.51,11,9.39,6.36,1.29,2.51.27,6.45,4.87,5.45,11.07,2.47,8.65,3,5.53,3.68,6.2.52-.22.71-.63.36-.6,2-4.44,8.89-3.36,7.65,1.11,13.29,1h.5l2.06-.73,3.69-12.06h0l.47-1.49,5.71-19.14-2.83-3.27-.23-.37-.18-.78-1.88-11,5-10.72,7.34-12.63,6.25-9.24,2.37-3.48,4.49-8.17.18-.4.46-1.47.26-3.19.1-1.71,0-.48,0-.12,0-.3-.11-.74-.11-.73-.28-.8-.33-.61-.39-.38-.14-.37v-.65l.11-1.31.06-.27,0-.1,0-.17,3.66-14.16,19.06,4,8.43,4.68,5.47,4.69,4.38,7.34,11.25,3.91,19.22,2.34,7.34,5.94,8.59,3.44,6.41,2.81,25.47,1.72,29.06,2.19s4.38,5,4.53,5.62,13.91,6.88,14.69,7.5a74,74,0,0,0,8.28,3.6c.63.15,24.06,2.81,24.06,2.81l5.16,2.66,14.53,3.28,12.35,2.18,14.21,3,15.32,1.1,7,1.72,7.34,2.81s2.35,5.31,2.5,5.94,8.75,4.53,8.75,4.53l4.53,3,12.19,3.9,6.09,3.6,12.19,3.59h8.28l7.19-.16,3.28-4.37,5.16.15,4.06,5.32,6.09,2.18,2.19,5,5.94,2,5.16-.79,4.21-5.15,2.66-4.06.47-5.47-7.19-3.44-11.72-2,1.41-3,5.78.31,10.31.63,6.57,5.15v8.6l.62,8.9,1.41,6.25,9.37,3.13,8.6,2.34,13.59,3.75,12,3.13s10.78,3,11.41,3.12,11.09,3.75,11.09,3.75l12.34,5,16.1,4.69,10.15.94,11.41,2,7.81,4.84,10,2.81,14.69,4.07h17.81l23.44,2,12.81,5.15s11.1,3.44,11.41,4.22,12.81,3.44,12.81,3.44l8.13,5.47L2440,1572l10.31,4.85,9.69,9.68,11.56,5.94,11.72,5.94,12.5,4.84,14.69,7.19,13.12,3.12,15.94,3.13,16.87,13.75,8.44,7.19,4.22,11.09,10.16,1.41,9.06,2.18,14.69,3.13s11.87,6.87,12.18,7.66,14.22,10,14.22,10l12,8,12.66,1.88,8.28,9.22,14.53,10.62,16.25,12.5,15.94,11.72,8.44,7.5,9.06,10.63,8.75,12.81,5.47,10.94,10.78,10.15s15.63,3.44,16.25,3.28,17,4.54,16.94,4.7l-4.58,6.25-10.1,8.21s-5.68,5-8.52,8-12.31,10.73-12.31,10.73l-12.16,9.63-2.84,3.79,3.79,4.26.48,5.68-7.27,8.84-4.73,7.26-8.37,13.42-5.68,11.05-9.31,7.41-1.89,7.26-5.05,5.53-1.27,6.15,11.68,4.11,13.26,3.94,16.89,3.48,5.28.39,10.27,3.12,5.36,8.49,6.25,5.8,9.82,6.7,6.25,2.67,4.91-4.46,18.3-1.34,13.4,2.68,6.25,2.23-4.47,7.59-8.93,8-3.57,10.71,3.13,7.59,9.82,7.59-5.36,8.93-17,.89h-6.7l-11.61,3.57-8.48,1.79-2.68,7.59-3.57,5.35-4.67,2.75-12.79-4.46-3.76-6.19-12.7,1.55-6.74,6.08-7.41-.23-6-14.58-7.52-9.72-8.81-9,2.19-5.94,8.13-2.19.31-6.25-24.06-.62,5.62-9.06,21.56-.63,14.38-2.81s-5.31-13.75-5.63-15.31-13.75-11.57-13.75-11.57l-1.56,4.69,10.94,10-10.94,5.31-9.06-9.68-21.25-2.19h-26.25l.31,14.06,11.88,29.38-5.94,10-17.19,11.25-26.87,2.5-5.32-7.82-12.18,8.13L2565,2022.29l-10.94,7.5-2.81,25.32-3.13,8.12,6.88,5.94.31,6.56-5.31,5.63-11.56,5.31-5.63,3.12h-15.62l-4.38-4.68L2510,2077l-9.06-1.25-7.82,7.5-6.25,1.25-8.12.31-1.25-11.56-16.25-.62-15,1.87-10.31,3.75-9.69,5.94-4.38,3.12-10.62.94-7.19-4.06-6.87-7.19-15.32-10.31.32-4.69,10-6.56,7.5-11.88,4.68-5.31.32-14.06-6.57-4.06-9.68,4.37-8.75,8.13-17.5,8.75-7.5,8.75-9.07,4.06-36.25.31-13.75,9.06-2.18,15,5.31,7.19,4.37,11.25,4.69,1.56v6.25l-9.06.94-6.25,4.06-3.13,4.07H2280l-5.63-3.44-3.75-6.88-7.81-2.5-9.69-.62-4.37,4.06-3.75,5.31-5.31.32-2.82-4.38v-10l-3.75-5.94h-14.06l-9.37,10.94-5,8.75-8.13,5.63-5.62,3.75-3.75,13.43,2.81,6.88-3.75,2.81-5.94,3.75-5.31-1.87-7.5-4.38-3.44-9.37-5.62-10.63-4.07-5.94-2.18-15.31-1.88-12.81-10.62-5-3.75,7.19-9.07,8.12-10.93,3.13-5.63,5.62-6.87,9.38-9.38,3.75-10,1.56-11.72-.51Z" transform="translate(0)"/></g><g id="bat"><path id="bat-path" class="cls-1" d="M1475.05,1870.52l-9.35-2.12-12-3.16-3.35-1-1.46-.47-4.35-1.91-1-.69-1-.75-1.63-1-1.32-.28-9.26-1.08-17.51,8.24-8.61,8.9-.8,1-.65,1.3-1.49,4.61-.1,1.92.28,1.79.66,5.27-.19.52-.23.6-.18.43-.72.82-7.57,5.94-2.76,1-.57.54-.61.81-.39.8-.79,1.93-.07,2.23-5.79-6L1365,1884.4l-4.4-3.83-5.49-4.06-1-.46-.88-.38-9.57-3.3-3.86-1-2.45-.45-5-.51-8.4-1.53-8-1.73-1.2-.58-.4-.62-.38-1.31-.53-.69-.51-.41-2.73-1.87-4.44-2.43-5.37-2.69-8.82-3.21-13.72-4.51-4.41-.49-2.48-.24-1.3-.12-7.09-3.2-8.51-2.82-.92-.21-8.12-1-15.7-3.79-1.06-.59-5.66-4-.1-.09-.61-.54h0L1215,1812.3l.91.38,1,.36,1.71.57.79.13.12,0,5.84.58h3l10.57-.9,3.88-.45,6.53-.75,5.82-3.24.2-.26,14.41-22.65,2.08-3.63,1.52-3,4.57-10.87,0-.36-1.58-10-2.08-4.21-.91-1-.54-.64-.62-.78-.27-.72-.39-1.1-.41-2.61-.6-6-.16-8.64,0-.9.48-1,1.4-2.31.74-.75,2.59-1.39,8-1.92-.32-9.52-.31-1.59-.15-.37-.11-.17-2.27-2.56-.6-.63-.23-.23-19-16.44-16.75-9.89-.44-.25-.42.5-1.22,1.88-3.15,4-1,.94-2,1.47-.34-.21-.22-.19-.25-.23-21-32.54-2.85-5.85,1.26-1.12.82-.8,1.57-4.72-1.36-4.1-.53-.54-5.84-5.49-.72-.52-1-.64-17.37,2.73-6.8.82,3.14-4.53,1-1.7.6-1.16.55-1.49.23-1.73-.11-.73-.33-1-1.65-3.47-.91-1.52-5.52-8.32-17.74-2.57-5.68,7.24-12.24-2.19-1.84-1.25-4.9-4.16-5.63-5.12-.5-.43-.16-.14-4.17-3.52-6.82-5.71-.94,1.07-.63.81-.74.79-1,1-3.89,2.16-.4.13-.61-.41-.71-.82-.64-.73-5.65-7.31-5.09-6.66-.76-.92-4.2-4.81-1,.41-.24.55-.31.43-.76.63-.89.53-.86.42-.42,0-5.51-4.06.12-.82,1.5-3.09,1.3-1.91.8-.89,11.37-12.29,17.82-17.88,6.51-.9,7.08-10.8,1.67-5.07,8.8-12.64,1.37-.8.57-.26.82-.3,2.94-.54.84-.12,7.37-1,11.92-.45,43.81-22,16-20.67,6.07-5.63.28-.48,3.09-6,3.42-6.79-.44-5-1.5-7.41-3-.76-.16,0-.5-.12-.12-13.13.06-.44.23-.53.42-.53.54-.57.78-.71,1.2-.92.64-.79.6-.87,4.83-8.84.65-1.51.92-2.1,4.62-12.9.76-2.11,2.83-7.93,0-.09,2.13-5.94-7.14,2.35-3.25,1.2-6.92,6.58-.28.16-.65.12-15.43,1-1.1-12.39-7.15-9.65-1.43-1.93-.06-.09-2.16-2.91,0,0-11.79-19.23-2.29-4.2-2.39-6.62-4.62.28-.52-4.49-4.06-38.17-1.63-16.47,0-.15-.8-8.17-1.38-13.94,3.58.54,7.26-1.6,15.32-8.3,18.08-9.79.24-.13,8-4.3,3.42-1.85.69-.74,3.51-7.66-.11-1.11-.17-1-.25-1-.56-1.19-.69-.64-4.27-2.56-1-.45-.94-.39-2.88,1.19-1.26.46-1.07-.17-1.49-.34-1.24-.33-2-.57-1.23-.55-17.19-10.38-18.54-9.47-9.42-5.64-11.43-8.55-28.62-8.9-13.26-3.71-.09,0,.43-1.23,10.71-20.65,1.91-3.66,22.5,1.07,2.33.19,3.86.52,1.56.2,2,.28.81.22,9.24,2.51,4,1.64.43.79,1.21,1.73.41.44,4.55,1.76,1.29.5,9.76,3.38h0l5.34,1.5,6.63,2.26,2.75,1,1.14.5,4.55,2.15-.53-6.32.67.29,1.19.5,7,2.64,6.83,1.93,1-.35,2-.14,1.78.61,5.65,2.2,26.67,11.29,38.07,14.85,31.69,14.52,25.06,11.91,2.1,1.16.79.43,1.9,1,2.58,1.4,1.36.63,8.57,3.81,11.14,3.64,12.37,3.79,7.46,2.23,2,.53,2.53.58,2.68.15,4.1-.21,1.09.27,1,.93,2.44,1.55,2.48,1.28.44-.52.05-.19.12,0,1.1.36,2.15,1.6.29.24.3.29.29.37.23.44.53.79.1.11,1,.7,4.82,3.39h.81l7.11,5.32,6.57,5,.14.1,2.26,1.65,8.24,5.39,2.54,1.59,3.9,2.19,9.16,4.53,5.69,2.56,5.63,2.19,5.8,1.74,1.59.33,1.65.34.48.1,1.92.4h4.79l2.2-.8.48-.25,1-.69.23-.18-1.28-3.52,2.6-1.93,1.14-2.81,2.38-3.46.2.18.13,2.78-.95,1.36-3.36,3.12-.53.64-.17.16.64,3.79.19.6.37.54,4.84,1.43.39.87-.06.23.19,0,3,0,1-.07.09-.49.67-5,.21-1.81,0-2.87,0-.22-.14-.88-.41-1.78-.13-.46-.5-1.75-.34-1.14.33-.13,1.3,5.26.27,1.72,0,1.3,0,.51,0,.53,0,.31,0,.11-.06.15.11,3.25,0,.21,2.58,3.34,7.88,3.53,1,.45,1.15.41,1.7.5.43.11,2.44.59,1.18.26.51.1,3.19.48,3.06.54,2.66.52,3.31,1.4,2.61.93,1.86.32,1.15.08,5.41.83,3.53.69,3.79.18,1,0,1.63.36,3.59,1,2.24,1,.93,1.13,1.35,1.39,2.55-.32,1.78-.11h0l1.27.37,1.16.57.25.23,4.12,1.32,3.58,1.64,2.44,1.2,1.59.92,3.82,2.23,11.17,6.59.5.37,10.15,5.46,15.7,6.15,1.24.17,1.33,0,.61-.1.64-.18.27-.19,3.22.51,10.32,2.81,7,2.72,3.6,3.34.92,3.11.08.19.09.13.11.14.06.07.14.17.11.12.41.47.57.46.22.17.32.24,23.73,15,.63.4,3.27,1.58,1.72.74h.35l.73-.34,5.71.92,5.77,2,1.56.67,2.26,1.27,6.28.62,26.33,5.48,11.34,2.78-1.24,3.52-.19.43-1,1.13.47.43.25.19.24.13,1.45.27.11,0,9.5-.52.08-.07.09-.11V1369l0-.22,0-.38.11-.1,1.1-.22.42,0,1.53.16,3.29.88,4.42,1.39,7.43,2.81.69.26,1.14.5,1.14.74,2.91,2.23.25.31.38.56.11.17.07.41,0,.37-.11.18-.23.19-.28.12-.22.16-.1.18-.15,1.21,6,2.25,2.62.46-3.71,13.36,0,.17,0,.1-.06.27-.11,1.31v.65l.14.37.39.38.33.61.28.8.11.73.11.74,0,.3,0,.12,0,.48-.1,1.71-.26,3.19-.46,1.47-.18.4-4.49,8.17-2.37,3.48-6.25,9.24-7.34,12.63-5,10.72,1.88,11,.18.78.23.37,2.83,3.27-5.71,19.14-.47,1.49h0l-3.69,12.06-2.06.73h-.5l-13.29-1-7.65-1.11-8.89,3.36-2,4.44-.36.6-.71.63-.52.22-3.68-6.2-3-5.53-2.47-8.65-5.45-11.07-6.45-4.87-2.51-.27-6.36-1.29-11-9.39.19-.51.43-1,.26-.62-1.73-4.78-.38-.51-.58-.48-.77-.25-7.19-2-.58-.12,0,.74-.33.74-.29.39-.4.37-.4.28-8.31,3.58-21.08-.85-2.83-1.43-.1-.49-1.52-6.21-2.66-1.19-3.61-1-3.92,2.37-.71,1.13-1.1,3.44-3.9,15-17.17,15.52-3.18,4-.87,1.76-.24.76-1.17,5.3-.44,2.21-.31,2.24-6.19-1.82L1596,1496.1l2.2,7.61.24,1,.7,6-.57,1.4-1.25,2.77-1.35,2.65-.57.7,5.59,12.62,5.62,4.5,3.59,3.38,2.5,2.49,0,0-3.39,13-.34,1.19-.52,1.21-.5,1-.21.32-.57.87-1.41,2.09L1604,1563l-15.48,17.94-4.23,3.6-.74.58-.45,1.07-.6,1.81-2,6.11-.13.39-.46,1.39-2.39,7.32-.46,3-1.72,3.65-10.46,12.48-2.58,11.8-.45.79-4.71,7.32-4.46,6.52-2,2.94-12.81,21.82-7.66,15.24-.77,2-1.72,6.1.22,1,2.69,2.87,1.94,1.85.46.22.26,1.05-.07,1.14-.38,4.18-.21.88-.8.77-1.07.84-1.33.78-1.1.59-4.63,4.18-.54.62-3.24,6.61,14.75,12.59-3.26,17.91-2.45,13.5-4.65,27.49-.38,5.16-3.19,2.24-2.21,1.89-12.47,11.07-.83.76-.13.13-.57.52-.6.64-6.17,8.38-.69,1-14.41,22.59-.66,1.23-.5,1.16-.5,1.18-2.11,5.64-1.42,3.94-2.43,7.06Z" transform="translate(0)"/></g><g id="lecce"><path id="lecce-path" class="cls-1" d="M3290.51,2616.18l3.57,9.37h4l2-6.47h19.42l9.59,6.25,25.67-.22,19.42,7.59,1.12,2.68,4.69.44,4-9.82,10.26-3.12,12.95,3.57,6.25,5.58,7.81,6.92,4,9.37s2.23,11.83,1.12,11.61,7.81,10,7.81,10l4.24-3.79,3.35-7.14,8.48-1.34,4.24,6.47,5.36-2,4.91,7.14s-.22,6.48-1.12,6.7-7.81-1.12-7.81-1.12l-10.27-5.58v8.49l8.48,6,13.14,9.26,17,17.67,3.79,7-12.63,6.31-1.26,17.05,6.31,17,12,13.89,8.21,10.1,15.78,1.89,12.63,11.36,4.42,14.53,13.25,10.1,17,4.42,12,10.1,8.2,24,10.11,2.52,6.94,15.16v19.57l-3.79,6.31-4.42,5.68-2.52,12-12.63,10.1-12.63,3.16-6.94,11.36,2.52,8.84h5.69l8.83-5.68,12,2.52,10.73,1.27,12.63,23.36,6.31,13.25-.63,28.42-9.47,8.2-10.1-2.52-5,3.79,5.68,11.36,13.89,26.52,18.94,13.25,18.94,34.1,10.74,13.26,18.94,7.57,14.52,15.15,31.56,20.21,19.58,10.73,17.67,12s26.52,20.83,23.36,18.94,21.47,5.68,21.47,5.68l13.26,6.31,15.78,5.68,20.84,12,46.71-.63,28.42-5.05,15.15,10.73,21.46,9.47,6.32,8.84,24,8.21,2.52,8.2,5.05,5,3.29,2.23,7.36.67,11.83-2.68,2.68-2.68,5.58-2,1.12,2.23,3.35.67,5.58-.44,5.13-9.38,5.13-12.94,2.46-6.25,8.48-4.47-.22-12.28-6-6.92-2.45-4.46-4-5.13,1.78-13.17,6.92-4.69-1.78-32.81s5.8-3.57,5.58-4.91-.23-21.21-.23-21.21l-6.69-9.82-4-4.47-4.91-7.36-2-9.38,2.68-4.91,3.12-31,3.35-29,2-2.46-.45-1.78-2.67-5.36.44-9.6,1.57-6.47,4.91-15.85,3.79-18.53,5.36-10.26,5.36-3.13,9.37-3.79-1.34-33.49,6.7-5.13,14.51-11.16,12.27-9.6,4.47-4.69,2.45-38.17,6.7-15.17,8.93-19.65,4.46-1.78,7.59-10.05,6.25-9.15,6.47-2-.89-4-4.69-9.37-8.25-4.47-.67-6.69V2772.2l8.7-2-3.12-3.58-4.47-10.49-5.36-6.69-3.79-3.57-12.5.67-2.23,6-4.24-.22,1.56-8-.67-8-11.16-7.15-5.8-7.58-6.25-17.42-5.81-11.38-10-6-.9-10.49-3.79-4.68-.89-9.83,6-6.25-1.78-14.06-9.6-7.14-3.8-9.6-7.14-7.37-3.35-9.82-4-8.48-3.13-8.7-7.81-10.05-3.8-2.9s-2-15.63-2.9-16.52-7.14-6.47-7.14-6.47l-4-9.82-9.37-3.13-17-3.12-6.92-5.81-12.5-11.16-10.93-11.6-9.38-14.74s-10.71-8.26-11.83-8.7-14.73-12.73-14.73-12.73l-6.25-9.82-7.81-6.25-8.49-5.58-8-1.56-9.6-3.12-4.91-6.25-7.81-6.92-1.57-4.92-4.68-10.49-2.68-5.35-12.5-8.71-12.73-5.36-8.92-10-12.73-9.6-11.16-10.94-6-5.35-6.47-7.59-5.13-11.16-6.25-1.34-2.68-3.13-16.07-1.11-6.25-9.6-5.58-7.59-17.86-3.8-13.17-1.34-8.7-4.68-6.92-9.82-16.3-.45-17.63-8-14.51-4.24-7.37-7.14-8.48-4.69-8.26-7.81-6-3.35-7.59-3.79-4.68,4.24v8.26l-6.48,12.5-.67,12.94-11.6,4.24-7.37,7.15-2.45,6.92,4.91,8,11.16,6.7,6.25,4.46-4.47,8.71-13.39.22-3.13-8.93-7.36-13.39-10.49-1.78-2.46-7.59-.67-8.71-8-.45-3.57,4.47-5.81,6.69-7.36,5.36-2.24,7.37,13.17,2.9.67,8.48-9.37,4.24-5.14,1.34-4.91-2-5.58-4.91-3.35-2.68-9.37.45-4.46,8-8.71,10-10,5.8s-25,2.68-26.34,3.35-6,7.37-6,7.37l-2.23,9.37-6.7,22.32-3.57,2.46-10.49,5.13-23,4.47-13,2.45-7.81,9.6L3391.4,2430l-7.59,4.69-11.16,7.14-12.72,9.15-15,6.47-9.15,13.84-6.92,8.93-7.59,6.92,1.57,6.92-2,20.09,5.58,7.59-.45,10.49-6.7,6-.44,23.21-8.71,4.69-6.25,5.13,3.13,8.26,10.26,11.16-.44,7.59-13.84,1.12-5.36-1.12-4.91,3.57-2.23,14.29Zm233.57,336.37,15.15-6.31,6.94,6.31,1.9,12.63-12.63,5.05-8.21-4.42-3.78-7.58Zm-120-312.26,8,.89,1.12,4.69-2.91,6.47-6.91-2.23-.67-9.15,1.33-.67Z" transform="translate(0)"/></g><g id="brindisi"><path id="brindisi-path" class="cls-1" d="M2759.05,2020.78l4.45-2.82,3.57-5.35,2.68-7.59,8.48-1.79,11.61-3.57h6.7l17-.89,5.36-8.93-9.82-7.59-3.13-7.59,3.57-10.71,8.93-8,4.46-7.59-6.25-2.23-13.39-2.68-18.3,1.34-4.91,4.46-6.25-2.67-9.82-6.7-6.25-5.8-5.36-8.49-10.27-3.12-5.28-.39-16.89-3.48-13.26-3.94-11.68-4.11,1.26-6.15,5.06-5.53,1.89-7.26,9.31-7.41,5.68-11.05,8.37-13.42,4.73-7.26,7.27-8.84-.48-5.68-3.79-4.26,2.84-3.79,12.16-9.63s9.47-7.73,12.31-10.73,8.52-8,8.52-8l10.1-8.21,5-6.49,11.25,6.55,12.84,11,19.86,16.52,27.57,13.5,16,7.7L2880,1853l13.39,16.63,16.63,7,20.2,9.26,9.49,3,18.3,6.8,11.27,4.69,13.51,5.81,6.83,6.16,4.11,1.89,2.84-3.79,3.79-3.47,10.41-.31,6,5.36,8.84,5.05,24.31,3.48,17.36,3.47,27.78,5.05,26.51,6s7.58,2.21,9.16,2.84,8.21,4.42,8.21,4.42l13.57,8.84,18.31,4.1,21.15,9.47,8.52,9.15,9.79,6.32,8.84,6,18.62,7.57,10.1,8.53,13.58.94,2.84,2.53,9.78.31,5.37-4.42,4.42,3.79-1.58,4.11-8.84,1.57-1.89,4.11,9.15,5.36,10.1,6,18.31,2.84,5.05,5,18,1.58,12,4.11,14.84,1.57,9.47-1.89h33.78l15.78-1.58,7.26-7.57,7.26,3.15.95,5,5.36,11.37,8.53,6.63,7.89,1.58,14.84.31,11.36.32,4.42-6.63,9.15.94,1.58,1.9-.63,2.52-11.05,3.16-11.36,1.58-12.94,1.58-4.42,6.31-3.48,8.84-6.63,4.42-14.2,5-7,4.1-1.26,7.58,7.58-.32,10.42-5.68,13.88-7.26,4.11-4.42,6,1.26,14.52-.31,2.84,4.42,6,1.26,6.63-5.37,2.52-11,10.42,6,9.78,7.9,5.05,6,.64,10.11,3.15,12.94,12.63,8.21,8.52,9.15,6.63,4.42,7.89,6.94,3.48,4.74-4.42,6.94-5.37,8.53-4.42,8.84-1.58,9.78.95,11.68,11.68,9.79,9.15,9.78,10.42,2.21,8.21,4.11,12.63,7.26,3.78,7.57,2.53,11.05,9.47,8.21,7.26,3.16,4.58,4.12-4.8,4.34v8.26l-6.48,12.5-.67,12.94-11.6,4.24-7.37,7.15-2.46,6.92,4.92,8,11.16,6.7,6.25,4.46-4.47,8.71-13.39.22-3.13-8.93-7.36-13.39-10.49-1.78-2.46-7.59-.67-8.71-8-.45-3.58,4.47-5.8,6.69-7.37,5.36-2.23,7.37,13.17,2.9.67,8.48-9.37,4.24-5.14,1.34-4.91-2-5.58-4.91-3.35-2.68-9.37.45-4.47,8-8.7,10-10.05,5.8s-25,2.68-26.33,3.35-6,7.37-6,7.37l-2.23,9.37-6.7,22.33-3.57,2.45-10.49,5.13-23,4.47-13,2.45-7.81,9.6L3391.4,2430l-7.59,4.69-11.16,7.14-12.72,9.15-15,6.47-9.15,13.84-6.92,8.93-7.73,7.37-3.23-.05-5.36-7.89h-5.06l-5.36,3.79-3.16,5.05-2.52,1.89-8.21-12.31-2.53-6.31-10.1-2.21-13.89,5.68-8.21,4.42-11,4.42-10.11-5.37-6.62-13.57-3.79-5.05-16.73-.32-7.58-4.42-5.37-7.89-5.68-11.36-3.47-15.78-2.21-9.16-7.58.32-.94,6-11.68,1.9-5.69-4.74-6.94-2.52-14.52-5-6.31-12.31-11.05-6-3.48,1.58-.63,5.36-7.26,5.05-3.47-3.78-.95-4.74-11.05-2.84-5.36,2.52-5.05,4.42-6,6-8.84,2.84,14.52,12,2.53,4.73-4.74,10.42-21.15.32-6.94,2.84-5.68-.63-1.58-4.74-8.84-1.89-2.84,5.05-.63,4.42-9.79-7-10.1-10.42-8.84-11.67-1.26-11.05-5.69-10.74-5.36-5.05-24.31-3.47-9.78-8.52-4.42-13-4.74-6.31-8.21-15.47-10.41-16.73-5.69-14.2-9.47-16.1L2900,2274.48l2.21-10.1,1.58-12.94,5.37-20.52,9.47-8.21,3.78-9.78,2.85-14.84-5.06-9.15-6-5.05-15.47-2.84-14.84-3.48-13.89-9.15-6.63-11.05-4.73-24.94-4.42-18.62-6.31-11.68,8.83-6.63,4.74-8.84-3.79-4.1-11.68,4.1-4.73-3.79-12-7.26-9.15-8.84,2.21-12.63-7-15.15-25.57-6.63-15.78-3.78-15-7.8Z" transform="translate(0)"/></g><g id="taranto"><path id="path2853" class="cls-2" d="M2611.27,2468.86l5.31-.63,9.38,1.56,2.81,5.63v5l-14.06,2.19-5.94-5.32-3.75-2.81Z" transform="translate(0)"/><path id="taranto-path" class="cls-1" d="M2759.3,2021.74l14.74,6.84,15.78,3.78,25.57,6.63,7,15.16-2.21,12.62,9.15,8.84,12,7.26,4.73,3.79,11.68-4.1,3.79,4.1-4.74,8.84-8.83,6.63,6.31,11.68,4.42,18.62,4.73,24.94,6.63,11.05,13.89,9.15,14.84,3.48,15.47,2.84,6,5.05,5.06,9.15-2.85,14.84-3.78,9.78-9.47,8.21-5.37,20.52-1.58,12.94-2.21,10.1,10.73,13.58,9.47,16.1,5.69,14.2,10.41,16.73,8.21,15.47,4.74,6.32,4.42,12.94,9.78,8.52,24.31,3.47,5.37,5.05,5.68,10.74,1.26,11.05,8.84,11.68,10.1,10.41,9.79,7,.63-4.42,2.84-5.05,8.84,1.89,1.58,4.74,5.68.63,6.94-2.84,21.15-.32,4.74-10.42-2.53-4.73-14.52-12,8.84-2.84,6-6,5.05-4.41,5.37-2.53,11,2.84.95,4.74,3.47,3.78,7.26-5.05.64-5.36,3.47-1.58,11.05,6,6.31,12.31,14.52,5,6.95,2.52,5.68,4.74,11.68-1.9.94-6,7.58-.32,2.21,9.16,3.47,15.78,5.68,11.36,5.37,7.9,7.58,4.42,16.73.31,3.79,5.05,6.63,13.58,10.1,5.36,11.05-4.42,8.2-4.42,13.89-5.68,10.1,2.21,2.53,6.31,8.21,12.32,2.52-1.9,3.16-5.05,5.37-3.79h5l5.36,7.89,2.85.63,2.09,5.89-2,20.09,5.58,7.59-.45,10.49-6.7,6-.44,23.21-8.71,4.69-6.25,5.13,3.13,8.26,10.26,11.16-.44,7.59-13.84,1.12-5.36-1.12-4.91,3.57-2.23,14.29h0l3.5,9.48-6-6.49-4.85.16-7.34,3.43-4.22,4.07-5.94-.16L3261,2616.2l-7.19-1.41-14.85-.62h-18.28l-17,.94-20.49,4.72-17,3.09-37.56,4.87-15,6.85-31.82,2.87-21.87,6-22.32,5.75-24.75,1.1-14.8-6.85-2.66-12.81-9.28-2.43-20.11-5.31-15.24-3.53-11.27-4.86-4.42-8.84-16.8-2.21-9.72,1.1-2.87,2.43-11.93,2-13.92-1.32-4.64-6.63-15.69-6.41-7.74-7.95-30.27-7.08-2.65-7.07-11.49-5.74-6.19,2.65-4,4.86-6.18,2.21-15.47-4.42-2.21-7.07-3.54-7.51-4.42-4.86-20.77-1.33-4.42-2.65L2729,2537.19l-10.16-3.54-14.59-2.21-7.07-4.86-10.6-4.42-5.75-4.86-8.18-1.57-6.09-.47-7.81,3.13-7.35,2.19-4.37-3.29-2-7.65v-5.47l10.31-9.69,6.41-6.72,3.9.78,4.38,2,4.22,1.71,3.9-.62,5.94-2.5,5.94-7.81,2.19-5,2.81-6.88,1.09-8.75s0-5.94-.15-6.87-1.41-10-1.41-10L2690,2432l-5.31-8.44-8.13-5.31-12.81-5.94s-5.63-.62-6.88-.62-15.31-.31-15.31-.31l-1.56,2.81-3.44,4.06-6.25.31-6.25-.62-3.44-5.94-1.25-3.44-2.81-7.18-3.12-3.13-7.5-1.56-6.88-6.25-2.81-2.81-3.13-3.44-5,2.81-3.75,4.06-5.93,4.07-9.38,2.81-2.19-2.81.94-5.94,5-3.13,2.5-5.62v-5.94l-4.37-3.12-7.19-2.19-7.5-2.19h-17.19l-9.92-.93-13.59-.34-9.17,1.55-8.18,4.31-6.08.33-12.59,6.3-16.35,2-18.34,9.5-8.84,6.41-21.11,13.59-10,8.5-12,6.3-10.28,10.61-8.28,8.06-9.73,6.74-8.39,11.27-13,8.73-7.4,9.39-15,22.43-13,10.83-3.53,7.73-2.54,8.51-4.53,5-6.08,6.41-2.21,4.42-7,8.4-3.21,10.6h-6.85l-10.38-.55-3.32-8.62-3.2-8-6.52-4.64-3.31,3.42-.67,3.76h-9.17l-5.52-8.51-10.72-8.28-1.43-6.41-2.43-4-5.64-5.19-1.66-3.43L2207,2499l-5.41-8.4-7.3-9.06-8.28-4-3-3.21-7.51-1-1.66,4.42-9.94.55-14.91-.77-1.66-3.87-5.75-5.19-2.1,2.32-3,6.4-4,1.55-7.18-.22-7.51-7.18-8.4-5.75-4.86-3.53-2.21-8.4,4-4.42,5.74-7.07,6.63-4.42,3.54-6.19,2.21-6.63-.44-6.62-6.63-4.87-3.1-4.86-10.16-1.32-5.75-1.33-2.21-4-4-6.63v-7.51l6.62-2.21,3.54-1.32,1.33-4.42V2375l-6.19-5.3-9.72-3.53-6.63-2.21-4.86-4,.44-6.19,2.65-10.61,1.77-4.41,2.21-7.52,4-8.39,3.54-6.19v-7.51l-5.75-2.66-4-4-4-3.54,2.65-4.86,8-2.65,7.95-2.21,4.42-4.86v-5.31l-7.07-3.09-9.28-4.42-8-4.86-1-6.3-.31-9.38-2.66-9.37-.93-15.78,4.68-9.69,3.13-8.44,4.06-8.9.47-22.35,1.25-11.25-3.91-11.09-7.5-4.69-9.37-2.5-9.06-5-3.13-9.06,9.38-6.25h8.43l3.13-7.77,11.56.27,10-1.56,9.38-3.75,6.87-9.38,5.63-5.62,10.93-3.13,9.07-8.12,3.75-7.19,10.62,5,1.88,12.81,2.18,15.31,4.07,5.94,5.62,10.63,3.44,9.37,7.5,4.38,5.31,1.87,5.94-3.75,3.75-2.81-2.81-6.88,3.75-13.43,5.62-3.75,8.13-5.63,5-8.75,9.37-10.94h14.06l3.75,5.94v10l2.82,4.38,5.31-.32,3.75-5.31,4.37-4.06,9.69.62,7.81,2.5,3.75,6.88,5.63,3.44h9.37l3.13-4.07,6.25-4.06,9.06-.94v-6.25l-4.69-1.56-4.37-11.25-5.31-7.19,2.18-15,13.75-9.06,36.25-.31,9.07-4.06,7.5-8.75,17.5-8.75,8.75-8.13,9.68-4.37,6.57,4.06-.32,14.06-4.68,5.31-7.5,11.88-10,6.56-.32,4.69,15.32,10.31,6.87,7.19,7.19,4.06,10.62-.94,4.38-3.12,9.69-5.94,10.31-3.75,15-1.87,16.25.62,1.25,11.56,8.12-.31,6.25-1.25,7.82-7.5L2510,2077l2.81,8.13,4.38,4.68h15.62l5.63-3.12,11.56-5.31,5.31-5.63-.31-6.56-6.88-5.94,3.13-8.12,2.81-25.32,10.94-7.5,23.44-16.87,12.18-8.13,5.32,7.82,26.87-2.5,17.19-11.25,5.94-10L2644.08,1952l-.31-14.06H2670l21.25,2.19,9.06,9.68,10.94-5.31-10.94-10,1.56-4.69s13.44,10,13.75,11.57,5.63,15.31,5.63,15.31l-14.38,2.81-21.56.63-5.62,9.06,24.06.62-.31,6.25-8.13,2.19-2.19,5.94,8.81,9,7.52,9.72,6,14.58,7.41.23,6.74-6.08,12.7-1.55,3.76,6.19,13.26,5.49Zm-148,447.12,5.31-.63,9.38,1.56,2.81,5.63v5l-14.06,2.19-5.94-5.32-3.75-2.81Zm-9.06-27.19.93,8.44,4.69,7.5v5.93l-9.06,2.5-2.19,3.75-7.19,2.19-3.75-3.44-10.31-2.5-.31-6.87,8.75-2.5,6.56-6.88.94-6.56,4.06-2.5Z" transform="translate(0)"/></g></svg>