<?xml version="1.0" encoding="UTF-8" standalone="no"?>
<svg
   xmlns:dc="http://purl.org/dc/elements/1.1/"
   xmlns:cc="http://creativecommons.org/ns#"
   xmlns:rdf="http://www.w3.org/1999/02/22-rdf-syntax-ns#"
   xmlns:svg="http://www.w3.org/2000/svg"
   xmlns="http://www.w3.org/2000/svg"
   xmlns:sodipodi="http://sodipodi.sourceforge.net/DTD/sodipodi-0.dtd"
   xmlns:inkscape="http://www.inkscape.org/namespaces/inkscape"
   inkscape:version="1.0beta1 (32d4812, 2019-09-19)"
   sodipodi:docname="flag_ue.svg"
   id="svg852"
   version="1.1"
   viewBox="0 0 54.539062 39.59082"
   height="39.59082"
   width="54.539062">
  <metadata
     id="metadata858">
    <rdf:RDF>
      <cc:Work
         rdf:about="">
        <dc:format>image/svg+xml</dc:format>
        <dc:type
           rdf:resource="http://purl.org/dc/dcmitype/StillImage" />
      </cc:Work>
    </rdf:RDF>
  </metadata>
  <defs
     id="defs856" />
  <sodipodi:namedview
     inkscape:current-layer="svg852"
     inkscape:window-maximized="0"
     inkscape:window-y="23"
     inkscape:window-x="0"
     inkscape:cy="19.428786"
     inkscape:cx="31.907916"
     inkscape:zoom="9.8415543"
     showgrid="false"
     id="namedview854"
     inkscape:window-height="797"
     inkscape:window-width="1440"
     inkscape:pageshadow="2"
     inkscape:pageopacity="0"
     guidetolerance="10"
     gridtolerance="10"
     objecttolerance="10"
     borderopacity="1"
     inkscape:document-rotation="0"
     bordercolor="#666666"
     pagecolor="#ffffff" />
  <g
     transform="translate(-948.52148,-8.5)"
     data-name="Group 4893"
     id="Group_4893">
    <g
       data-name="Group 4892"
       id="Group_4892">
      <rect
         y="0"
         x="0"
         fill="#11306e"
         transform="translate(949.979,8.5)"
         height="30.179001"
         width="45.41"
         data-name="Rectangle 658"
         id="Rectangle_658" />
      <g
         transform="translate(961.038,11.869)"
         data-name="Group 4142"
         id="Group_4142">
        <path
           inkscape:connector-curvature="0"
           fill-rule="evenodd"
           fill="#fff"
           transform="translate(-241.236,-198.332)"
           d="m 253.8,201.3 -0.968,-0.668 -0.962,0.668 0.336,-1.124 -0.931,-0.711 1.17,-0.025 0.388,-1.108 0.39,1.108 1.171,0.025 -0.933,0.711 z"
           data-name="Path 1840"
           id="Path_1840" />
        <path
           inkscape:connector-curvature="0"
           fill-rule="evenodd"
           fill="#fff"
           transform="translate(-241.858,-198.501)"
           d="m 259.508,202.847 -0.962,-0.666 -0.964,0.666 0.336,-1.124 -0.933,-0.71 1.173,-0.024 0.388,-1.108 0.387,1.108 1.171,0.024 -0.933,0.71 z"
           data-name="Path 1841"
           id="Path_1841" />
        <path
           inkscape:connector-curvature="0"
           fill-rule="evenodd"
           fill="#fff"
           transform="translate(-240.615,-198.501)"
           d="m 248.1,202.847 -0.964,-0.666 -0.966,0.666 0.336,-1.124 -0.929,-0.71 1.173,-0.024 0.387,-1.108 0.385,1.108 1.173,0.024 -0.933,0.71 z"
           data-name="Path 1842"
           id="Path_1842" />
        <path
           inkscape:connector-curvature="0"
           fill-rule="evenodd"
           fill="#fff"
           transform="translate(-240.157,-198.959)"
           d="m 243.9,207.05 -0.962,-0.669 -0.968,0.669 0.341,-1.124 -0.936,-0.712 1.174,-0.022 0.388,-1.108 0.388,1.108 1.172,0.022 -0.936,0.712 z"
           data-name="Path 1843"
           id="Path_1843" />
        <path
           inkscape:connector-curvature="0"
           fill-rule="evenodd"
           fill="#fff"
           transform="translate(-242.311,-198.959)"
           d="m 263.664,207.05 -0.964,-0.669 -0.964,0.669 0.338,-1.124 -0.935,-0.712 1.173,-0.022 0.388,-1.108 0.385,1.108 1.174,0.022 -0.935,0.712 z"
           data-name="Path 1844"
           id="Path_1844" />
        <path
           inkscape:connector-curvature="0"
           fill-rule="evenodd"
           fill="#fff"
           transform="translate(-242.48,-199.571)"
           d="m 265.212,212.665 -0.963,-0.667 -0.969,0.667 0.34,-1.124 -0.932,-0.707 1.171,-0.027 0.389,-1.108 0.385,1.108 1.174,0.027 -0.936,0.707 z"
           data-name="Path 1845"
           id="Path_1845" />
        <path
           inkscape:connector-curvature="0"
           fill-rule="evenodd"
           fill="#fff"
           transform="translate(-240.157,-200.198)"
           d="m 243.9,218.415 -0.962,-0.669 -0.968,0.669 0.341,-1.124 -0.936,-0.711 1.174,-0.025 0.388,-1.108 0.388,1.108 1.172,0.025 -0.936,0.711 z"
           data-name="Path 1846"
           id="Path_1846" />
        <path
           inkscape:connector-curvature="0"
           fill-rule="evenodd"
           fill="#fff"
           transform="translate(-242.311,-200.198)"
           d="m 263.664,218.415 -0.964,-0.669 -0.964,0.669 0.338,-1.124 -0.935,-0.711 1.173,-0.025 0.388,-1.108 0.385,1.108 1.174,0.025 -0.935,0.711 z"
           data-name="Path 1847"
           id="Path_1847" />
        <path
           inkscape:connector-curvature="0"
           fill-rule="evenodd"
           fill="#fff"
           transform="translate(-241.858,-200.646)"
           d="m 259.508,222.522 -0.962,-0.667 -0.964,0.667 0.336,-1.124 -0.933,-0.707 1.173,-0.027 0.388,-1.107 0.387,1.107 1.171,0.027 -0.933,0.707 z"
           data-name="Path 1848"
           id="Path_1848" />
        <path
           inkscape:connector-curvature="0"
           fill-rule="evenodd"
           fill="#fff"
           transform="translate(-240.615,-200.646)"
           d="m 248.1,222.522 -0.964,-0.667 -0.966,0.667 0.336,-1.124 -0.929,-0.707 1.173,-0.027 0.387,-1.107 0.385,1.107 1.173,0.027 -0.933,0.707 z"
           data-name="Path 1849"
           id="Path_1849" />
        <path
           inkscape:connector-curvature="0"
           fill-rule="evenodd"
           fill="#fff"
           transform="translate(-241.236,-200.814)"
           d="m 253.8,224.069 -0.968,-0.669 -0.962,0.669 0.336,-1.124 -0.931,-0.71 1.17,-0.025 0.388,-1.107 0.39,1.107 1.171,0.025 -0.933,0.71 z"
           data-name="Path 1850"
           id="Path_1850" />
        <path
           inkscape:connector-curvature="0"
           fill-rule="evenodd"
           fill="#fff"
           transform="translate(-240.008,-199.571)"
           d="m 242.529,212.665 -0.961,-0.667 -0.966,0.667 0.336,-1.124 -0.931,-0.707 1.171,-0.027 0.39,-1.108 0.385,1.108 1.174,0.027 -0.935,0.707 z"
           data-name="Path 1851"
           id="Path_1851" />
      </g>
      <text
         font-weight="500"
         font-family="Roboto-Medium, Roboto"
         font-size="6"
         fill="#11306e"
         transform="translate(948,48)"
         data-name="UNIONE EUROPEA"
         id="UNIONE_EUROPEA"><tspan
           id="tspan847"
           y="0"
           x="0">UNIONE EUROPEA</tspan></text>
    </g>
  </g>
</svg>
