<svg id="Repubblica_Italiana" data-name="Repubblica Italiana" xmlns="http://www.w3.org/2000/svg" width="55.293" height="63.099" viewBox="0 0 55.293 63.099">
  <g id="Group_6361" data-name="Group 6361" transform="translate(-293.553 -695.021)">
    <circle id="Ellipse_238" data-name="Ellipse 238" cx="17.141" cy="17.141" r="17.141" transform="translate(302.131 737.968) rotate(-84.363)" fill="#dcd0cf"/>
    <path id="Path_5786" data-name="Path 5786" d="M342.379,721.437a.563.563,0,0,0-.563-.564h-1.6a19.273,19.273,0,0,0-.409-2.606l1.519-.493a.564.564,0,0,0,.362-.71l-.717-2.205a.562.562,0,0,0-.71-.362l-1.518.493a19.234,19.234,0,0,0-1.2-2.35l1.294-.94a.564.564,0,0,0,.124-.787l-1.363-1.875a.562.562,0,0,0-.787-.125l-1.295.941a19.539,19.539,0,0,0-1.865-1.865l.941-1.3a.562.562,0,0,0-.125-.786l-1.876-1.363a.562.562,0,0,0-.787.124l-.94,1.294a19.219,19.219,0,0,0-2.349-1.2l.493-1.519a.564.564,0,0,0-.362-.71l-2.2-.716a.564.564,0,0,0-.71.362l-.494,1.519a19.228,19.228,0,0,0-2.606-.409v-1.6a.563.563,0,0,0-.563-.564h-2.319a.564.564,0,0,0-.564.564v1.6a19.392,19.392,0,0,0-2.6.408l-.494-1.518a.564.564,0,0,0-.71-.362l-2.2.716a.563.563,0,0,0-.362.71l.493,1.519a19.439,19.439,0,0,0-2.35,1.2l-.939-1.293a.565.565,0,0,0-.788-.125l-1.876,1.364a.564.564,0,0,0-.125.787l.942,1.3a19.539,19.539,0,0,0-1.865,1.865l-1.295-.942a.565.565,0,0,0-.788.125l-1.362,1.876a.563.563,0,0,0,.124.788l1.294.939a19.234,19.234,0,0,0-1.2,2.35l-1.518-.494a.566.566,0,0,0-.711.362l-.716,2.206a.563.563,0,0,0,.362.71l1.519.494a19.235,19.235,0,0,0-.409,2.6H300a.564.564,0,0,0-.564.564v2.319a.563.563,0,0,0,.564.563h1.6a19.432,19.432,0,0,0,.408,2.606l-1.518.494a.564.564,0,0,0-.362.71l.716,2.2a.564.564,0,0,0,.71.362l1.519-.493a19.08,19.08,0,0,0,1.2,2.349l-1.294.94a.563.563,0,0,0-.124.787l1.362,1.877a.564.564,0,0,0,.787.124l1.3-.941a19.422,19.422,0,0,0,1.865,1.865l-.942,1.3a.565.565,0,0,0,.125.787l1.876,1.364a.564.564,0,0,0,.787-.125l.94-1.294a19.241,19.241,0,0,0,2.35,1.2l-.493,1.518a.563.563,0,0,0,.362.71l2.2.717a.564.564,0,0,0,.71-.362l.493-1.519a19.268,19.268,0,0,0,2.606.409v1.6a.565.565,0,0,0,.564.564h2.319a.564.564,0,0,0,.563-.564v-1.6a19.219,19.219,0,0,0,2.606-.409l.494,1.519a.564.564,0,0,0,.71.362l2.2-.717a.564.564,0,0,0,.362-.71l-.493-1.518a19.228,19.228,0,0,0,2.349-1.2l.94,1.294a.564.564,0,0,0,.787.124l1.876-1.363a.563.563,0,0,0,.125-.787l-.941-1.3a19.539,19.539,0,0,0,1.865-1.865l1.295.941a.563.563,0,0,0,.787-.125l1.363-1.876a.563.563,0,0,0-.124-.787l-1.294-.94a19.217,19.217,0,0,0,1.2-2.349l1.518.493a.565.565,0,0,0,.711-.362l.716-2.2a.564.564,0,0,0-.362-.71l-1.519-.494a19.273,19.273,0,0,0,.409-2.606h1.6a.564.564,0,0,0,.564-.563Zm-8.071-6.309-9.989,2.542-.52-8.358-.112-1.8A15.353,15.353,0,0,1,334.308,715.128Zm-16.181-7.618-.1,1.538-.536,8.622-9.99-2.542A15.355,15.355,0,0,1,318.127,707.51ZM305.565,722.6a15.405,15.405,0,0,1,.152-2.139l9.413,3.687-5.554,8.794A15.284,15.284,0,0,1,305.565,722.6Zm15.342,15.343a15.284,15.284,0,0,1-6.532-1.459l6.532-7.957,6.533,7.957A15.288,15.288,0,0,1,320.907,737.939Zm11.332-5-5.554-8.794,9.413-3.687a15.562,15.562,0,0,1,.151,2.139A15.283,15.283,0,0,1,332.239,732.938Z" fill="#b4a9a6" fill-rule="evenodd"/>
    <g id="Group_6360" data-name="Group 6360">
      <path id="Path_5787" data-name="Path 5787" d="M320.907,727.927l-8.559,6.218,3.27-10.062-8.559-6.218h10.579l3.269-10.062,3.27,10.062h10.578l-8.559,6.218,3.27,10.062Z" fill="#fff" fill-rule="evenodd"/>
      <path id="Path_5788" data-name="Path 5788" d="M320.907,708.613l2.976,9.157.112.345h9.991l-7.789,5.659-.294.214.112.345,2.976,9.157-7.79-5.659-.294-.214-.294.214-7.789,5.659,2.975-9.157.113-.345-.294-.214-7.789-5.659h9.991l.112-.345,2.975-9.157m0-1.618-3.45,10.62H306.29l9.034,6.564-3.451,10.62,9.034-6.564,9.035,6.564-3.451-10.62,9.034-6.564H324.358l-3.451-10.62Z" fill="#920006"/>
    </g>
  </g>
  <path id="Path_5789" data-name="Path 5789" d="M333.459,699.119a5.989,5.989,0,0,0-.461-.513c-.1-.105-.314-.432-.5-.366-.17.061-.055.38-.224.5-.273.195-.45-.119-.556-.312-.121-.217-.309-.309-.462-.5s-.265-.43-.43-.622a3.242,3.242,0,0,0-.664-.595c-.29-.184-.613-.5-.965-.519-.408-.022-.169.1-.308.3-.124.182-.259.079-.378,0-.267-.182-.323-.5-.67-.558a1.906,1.906,0,0,1-.981-.265c-.438-.309-1.691-.509-2.118-.089-.21.207.012.271.019.47.01.254-.257.211-.448.213-.424,0-.777.136-.653.606a.966.966,0,0,0,.264.523c.172.147.408.143.589.264.4.268-.029.726.106,1.076.18.469.507.473.975.513.421.035.771.141,1.189.146.185,0,.417.056.424.282s-.247.254-.336.442c-.219.459.418.358.659.282.211-.066.28-.16.487-.023s.378.376.619.474a1.008,1.008,0,0,0,.894-.122c.265-.17.86-.3,1.05.048.279.5-.581.5-.458.923.1.329,1.018.163,1.294.164a1.673,1.673,0,0,0,.706-.117,7.44,7.44,0,0,0,1.242-.523c.3-.2.391-.711.435-1.037A1.208,1.208,0,0,0,333.459,699.119Z" transform="translate(-293.553 -695.021)" fill="#3b4220"/>
  <path id="Path_5790" data-name="Path 5790" d="M333.363,699.841a3.552,3.552,0,0,1-1.529-.077,1.881,1.881,0,0,0-1.453.026,4.519,4.519,0,0,1-1.634.259c-.389,0-.545-.13-.207-.13,1.011,0,2-.441,1.919-.6a2.87,2.87,0,0,0-.96-.7,7.655,7.655,0,0,0-.985-.285c-.363-.078-1.167-.441-1.452-.493a6.3,6.3,0,0,1-1.219-.6c-.493-.259-.493-.674-.234-.415s.752.363.986.545.648.233.363-.078a4.366,4.366,0,0,1-.571-1.012s.8.882,1.064,1.141a4.425,4.425,0,0,0,1.011.623c.207.1.129-.259.052-.571s-.415-.622-.078-.518.752,1.115.986,1.193a8.761,8.761,0,0,1,1.089.648c.467.285.285-.285.1-.571-.135-.212-.372-.627-.483-.824a1.245,1.245,0,0,1-.061-.109l.061.109c.085.133.245.327.406.2.1-.079.119-.288.107-.5a2.917,2.917,0,0,0-.482-.4c-.29-.184-.613-.5-.965-.519-.408-.022-.169.1-.308.3-.124.182-.259.079-.378,0-.267-.182-.323-.5-.67-.558a1.906,1.906,0,0,1-.981-.265c-.438-.309-1.691-.509-2.118-.089-.21.207.012.271.019.47.01.254-.257.211-.448.213-.424,0-.777.136-.653.606a.966.966,0,0,0,.264.523c.172.147.408.143.589.264.4.268-.029.726.106,1.076.18.469.507.473.975.513.421.035.771.141,1.189.146.185,0,.417.056.424.282s-.247.254-.336.442c-.219.459.418.358.659.282.211-.066.28-.16.487-.023s.378.376.619.474a1.008,1.008,0,0,0,.894-.122c.265-.17.86-.3,1.05.048.279.5-.581.5-.458.923.1.329,1.018.163,1.294.164a1.673,1.673,0,0,0,.706-.117,7.44,7.44,0,0,0,1.242-.523c.3-.2.391-.711.435-1.037a1.247,1.247,0,0,0-.024-.523A2.17,2.17,0,0,1,333.363,699.841Z" transform="translate(-293.553 -695.021)" fill="#555c23"/>
  <path id="Path_5791" data-name="Path 5791" d="M334.3,698.954a.671.671,0,0,0-.494-.012c-.194.1-.151.3-.275.423-.228.233-1.032.024-1.343.009a.61.61,0,0,0-.685.591,2.581,2.581,0,0,0,.154.788c.066.234.273.426.234.686-.043.289-.426.288-.555.538a.868.868,0,0,0,.091.8,1.193,1.193,0,0,0,.591.646c.355.106.768-.031,1.116.069a.654.654,0,0,1,.513.626c-.023.494-.6.675-.792,1.082a.63.63,0,0,0,.088.67c.184.159.547.119.772.136.292.022.813-.088.913.262.078.27-.114.553-.1.849.012.316.381.493.628.611a2.5,2.5,0,0,0,1.141.151c.515-.017,1.028-.139,1.55-.164.221-.011.464.048.624-.1a1.988,1.988,0,0,0,.264-1.683,6.071,6.071,0,0,0-.407-1.073c-.314-.757-.513-1.579-.9-2.3a7.941,7.941,0,0,0-.472-.641c-.107-.161-.192-.346-.3-.51-.119-.186-.283-.347-.4-.533-.075-.123-.1-.271-.178-.4a3.548,3.548,0,0,0-.415-.517c-.193-.221-.472-.149-.631-.393A1.488,1.488,0,0,0,334.3,698.954Z" transform="translate(-293.553 -695.021)" fill="#1e2418"/>
  <path id="Path_5792" data-name="Path 5792" d="M338.733,705.937a6.071,6.071,0,0,0-.407-1.073c-.314-.757-.513-1.579-.9-2.3a7.941,7.941,0,0,0-.472-.641c-.107-.161-.192-.346-.3-.51-.089-.138-.2-.263-.3-.394-.534.81-1.154,1.271-1.748.617a8.408,8.408,0,0,0-2.942-2.063.644.644,0,0,0-.163.4,2.581,2.581,0,0,0,.154.788c.066.234.273.426.234.686-.043.289-.426.288-.555.538a.868.868,0,0,0,.091.8,1.193,1.193,0,0,0,.591.646c.355.106.768-.031,1.116.069a.654.654,0,0,1,.513.626c-.023.494-.6.675-.792,1.082a.63.63,0,0,0,.088.67c.184.159.547.119.772.136.292.022.813-.088.913.262.078.27-.114.553-.1.849.012.316.381.493.628.611a2.5,2.5,0,0,0,1.141.151c.515-.017,1.028-.139,1.55-.164.221-.011.464.048.624-.1A1.988,1.988,0,0,0,338.733,705.937Z" transform="translate(-293.553 -695.021)" fill="#415037"/>
  <path id="Path_5793" data-name="Path 5793" d="M331.631,700.66a2.521,2.521,0,0,0,.022,1.059c.177-.1.245-.2.244-.343C331.895,701.152,331.675,700.888,331.631,700.66Z" transform="translate(-293.553 -695.021)" fill="#1e2418"/>
  <path id="Path_5794" data-name="Path 5794" d="M333.086,704.9s-.021.258.462.289.747-.016,1.011.233c.155.146.459.553.081.563a5.519,5.519,0,0,1-1.63-.05C332.77,705.82,332.616,705.318,333.086,704.9Z" transform="translate(-293.553 -695.021)" fill="#252f13"/>
  <path id="Path_5795" data-name="Path 5795" d="M334.009,704.1s-.016.327.436.623a.821.821,0,0,1,.291.872s.783-.14.752-.561S335.239,704.352,334.009,704.1Z" transform="translate(-293.553 -695.021)" fill="#1e2418"/>
  <path id="Path_5796" data-name="Path 5796" d="M334.891,699.534a1.345,1.345,0,0,0-.431-.033c-.374.075-.276.393-.332.674a5.652,5.652,0,0,0-.248.833c-.021.342.138.488.294.75a.6.6,0,0,1-.115.775,1.081,1.081,0,0,0-.478.746.743.743,0,0,0,.215.7c.452.332,1.153.284,1.522.768.2.26,0,.47-.228.607-.17.1-.349.207-.524.295a1.215,1.215,0,0,0-.4.232c-.236.261.007.6.3.683a3.412,3.412,0,0,1,.456.19,2.148,2.148,0,0,0,.457.1,1.647,1.647,0,0,1,.643.189c.1.08.139.236.215.333.456.58,1.289.512,1.943.542a.859.859,0,0,1,.509.1c.318.279-.148.49-.253.673-.21.365.494.408.7.451a1.291,1.291,0,0,0,.513.1,1.25,1.25,0,0,0,.351-.186c.167-.1.333-.116.49-.193.458-.223.43-.693.5-1.131a1.957,1.957,0,0,0-.015-.712,3.246,3.246,0,0,0-.146-.735,3.377,3.377,0,0,0-.207-.3,1.86,1.86,0,0,1-.261-1.074,4.492,4.492,0,0,0,.06-.946,1.97,1.97,0,0,0-.366-.814.9.9,0,0,1-.237-.419c-.032-.176-.031-.364-.053-.54-.027-.218-.193-.768-.513-.565a1.989,1.989,0,0,0-.464.708c-.1.183-.309.248-.394.011-.1-.287-.03-.6-.1-.885a2.374,2.374,0,0,0-.292-.816,4.585,4.585,0,0,0-.547-.7,1.169,1.169,0,0,0-.7-.294c-.3.039-.142.538-.5.418a2.383,2.383,0,0,1-.426-.273,1.3,1.3,0,0,0-.928-.261Z" transform="translate(-293.553 -695.021)" fill="#3b4220"/>
  <path id="Path_5797" data-name="Path 5797" d="M337.178,707.719a3.327,3.327,0,0,1-1.605.138c-1.059-.112-1.294-.686-.915-1.313S336.917,706.845,337.178,707.719Z" transform="translate(-293.553 -695.021)" fill="#252f13"/>
  <path id="Path_5798" data-name="Path 5798" d="M297.274,722.473c-.151-.556-.506.586-.773.639s-.2.4-.213.64c-.053.932.933.532,1.066,2.157C297.466,727.273,297.807,724.444,297.274,722.473Z" transform="translate(-293.553 -695.021)" fill="#744e2e"/>
  <path id="Path_5799" data-name="Path 5799" d="M298.233,717.225a4.322,4.322,0,0,0-.746-1.412c-.408-.472-.266,1.039-.266,1.226a3.338,3.338,0,0,1,.4,2.291C297.434,721.008,298.233,717.225,298.233,717.225Z" transform="translate(-293.553 -695.021)" fill="#744e2e"/>
  <path id="Path_5800" data-name="Path 5800" d="M299.911,713.1s-.373-.559-.639-.426-.214.4-.4.213-.293-.213-.293.213,0,.533.213.773a1.35,1.35,0,0,1,.426.746A9.3,9.3,0,0,0,299.911,713.1Z" transform="translate(-293.553 -695.021)" fill="#744e2e"/>
  <path id="Path_5801" data-name="Path 5801" d="M302.708,706.863a3.929,3.929,0,0,1,.08,1.252,2.374,2.374,0,0,1-.506.746,7.144,7.144,0,0,0,0-1.386C302.2,706.863,302.708,706.863,302.708,706.863Z" transform="translate(-293.553 -695.021)" fill="#744e2e"/>
  <path id="Path_5802" data-name="Path 5802" d="M299.991,713.656a2.07,2.07,0,0,0,1.225-.107c.613-.266.346.4-.213.56a3.767,3.767,0,0,1-1.3.053Z" transform="translate(-293.553 -695.021)" fill="#744e2e"/>
  <path id="Path_5803" data-name="Path 5803" d="M299.618,717.678a3.694,3.694,0,0,0-1.439.8c-.328.451.293-1.625.507-1.838s.532.053.479.32-.426.319-.32.479.506.107.933.027S299.618,717.678,299.618,717.678Z" transform="translate(-293.553 -695.021)" fill="#744e2e"/>
  <path id="Path_5804" data-name="Path 5804" d="M305.238,704.333s-.559.213-.532.586a4.47,4.47,0,0,0,.106.692l-.533.64a11.461,11.461,0,0,1,.054-1.519c.08-.452.879-.932,1.358-1.3S305.238,704.333,305.238,704.333Z" transform="translate(-293.553 -695.021)" fill="#744e2e"/>
  <path id="Path_5805" data-name="Path 5805" d="M301.136,734.593a5.038,5.038,0,0,0-.133,1.466c.107.373-.373.186-.559.053s-.395.008-.065.377.491.608.757.715a8.359,8.359,0,0,0,1.119,2.344c.027.613-.053,1.146,1.172,2.4a10.373,10.373,0,0,0,3.091,2,2.777,2.777,0,0,0-1.306-2.131,3.568,3.568,0,0,1-1.705-1.6c-.186-.319.08-.559-.319-.639s.053-.346-.56-.559a8.434,8.434,0,0,1-.746-1.812.815.815,0,0,1,.506-1.012C302.681,736.165,301.669,735.233,301.136,734.593Z" transform="translate(-293.553 -695.021)" fill="#8d674b"/>
  <g id="Group_6381" data-name="Group 6381" transform="translate(-293.553 -695.021)">
    <path id="Path_5806" data-name="Path 5806" d="M322.97,751.728s1.169.946,1.717,1.319,1.07.7,1.643,1.1,1.144.92,1.194,1.169a1.785,1.785,0,0,0,.273.9.808.808,0,0,0,.622.348.677.677,0,0,1,.6.373,2.678,2.678,0,0,0,.4.747,1.848,1.848,0,0,0,1.418,0,3.833,3.833,0,0,0,.995-.771c.175-.175.647-.174.946-.349s.622-.423.323-.771-.6-.3-1.044-.274a7.054,7.054,0,0,1-2.539-1.418,5.053,5.053,0,0,1-1.592-1.717l-4.7-.971Z" fill="#8d674b"/>
    <path id="Path_5807" data-name="Path 5807" d="M327.524,755.311a1.785,1.785,0,0,0,.273.9.808.808,0,0,0,.622.348.677.677,0,0,1,.6.373,3.009,3.009,0,0,0,.375.721,1.1,1.1,0,0,1,.147-.624,2.99,2.99,0,0,1,.68-.58c.232-.182.016-.3-.116-.215s-.4.364-.6.53-.265-.116-.149-.282.481-.315.365-.331a1.341,1.341,0,0,1-.613-.431,11.529,11.529,0,0,0-1.077-.828c-.4-.332-.961-.646-1.11-.812s.166-.2.414-.216c.186-.012,1.334.013,1.9.026a4.935,4.935,0,0,1-1.316-1.511l-4.624-.954-.168.1-.16.208s1.169.946,1.717,1.319,1.07.7,1.643,1.1S327.474,755.062,327.524,755.311Zm.517.322a.4.4,0,1,1,.1.469A.346.346,0,0,1,328.041,755.633Z" fill="#4c2619"/>
    <path id="Path_5808" data-name="Path 5808" d="M319.661,751.9a7.715,7.715,0,0,1-1,1.1c-.4.3-.871.473-1.12.721s-.522.4-.6.6.025.448-.124.6-.423.124-.647.124-.274.1-.473.274a2.293,2.293,0,0,1-.522.423c-.15.05-.3.075-.2.174s.422.5.224.672-.374.174-.548.3a.849.849,0,0,1-.6.124c-.2-.025-.4.349-.523.548s-.024.422-.423.522a2.409,2.409,0,0,1-1.667-.274,5.841,5.841,0,0,1-1.02-.9c-.149-.175-.423-.125-.622-.175s-.2-.248-.05-.472.324-.448.5-.423a1.416,1.416,0,0,0,.9-.324c.3-.249.8-.622.87-.672s-.049-.547.224-.7a1.263,1.263,0,0,1,.622-.225,3.456,3.456,0,0,0,.8-.074,4.341,4.341,0,0,1,.5-.3,1.559,1.559,0,0,0,.647-.373,10.871,10.871,0,0,1,.846-.746Z" fill="#8d674b"/>
    <path id="Path_5809" data-name="Path 5809" d="M315.654,752.425a10.871,10.871,0,0,0-.846.746.6.6,0,0,1-.07.072c.22-.014.487-.036.636-.062.281-.05.758-.206,1.025-.062s.284.294.151.625-.431.448-.762.613a2.234,2.234,0,0,0-.779.564c-.1.165-.58.5-.712.745s-.332.448-.249.53.133-.016.282-.182a.567.567,0,0,1,.48-.2c.042.005.1.008.151.01a.624.624,0,0,1,.221-.091,2.293,2.293,0,0,0,.522-.423c.2-.174.249-.274.473-.274s.5.025.647-.124.05-.4.124-.6.349-.349.6-.6.724-.418,1.12-.721a7.715,7.715,0,0,0,1-1.1Zm-1.169,4.056a.324.324,0,0,1-.473-.1.232.232,0,0,0-.4.025c-.05.124-.1.348-.349.174a2.5,2.5,0,0,0-1.393-.348c-.5.05-1.219-.025-.871.1a13.565,13.565,0,0,1,1.543.274,1.479,1.479,0,0,1,1.013.917c.125-.2.314-.543.505-.519a.849.849,0,0,0,.6-.124c.174-.125.348-.125.548-.3.155-.136-.008-.408-.135-.569C314.874,756.133,314.658,756.394,314.485,756.481Zm-2.03-1.6a1.115,1.115,0,0,0,.864-.143,1.582,1.582,0,0,0,.63-.928.368.368,0,0,0-.01-.146c-.067.044-.13.091-.191.13a.762.762,0,0,1-.208.433.953.953,0,0,1-.874.4.492.492,0,0,1-.439-.469.464.464,0,0,0-.167.362A.533.533,0,0,0,312.455,754.882Z" fill="#4c2619"/>
    <g id="Group_6362" data-name="Group 6362">
      <path id="Path_5810" data-name="Path 5810" d="M304.783,754.563a2.2,2.2,0,0,1-.655-.051c-.465-.155-3.748-2.177-5.228-3.143a20.306,20.306,0,0,0-2.134-1.218c-.427-.217-.82-.418-1.274-.7a8.721,8.721,0,0,1-1.591-2.505.251.251,0,0,1,.028-.237,16.426,16.426,0,0,0,1.985-4.361.248.248,0,0,1,.239-.184l3.6-.032.2-1.313a.251.251,0,0,1,.132-.185.257.257,0,0,1,.115-.028.263.263,0,0,1,.112.026c.388.193,1.57.779,1.33,1.618l-.061.189a4.006,4.006,0,0,0-.2,1.576,3.435,3.435,0,0,0,.55,1.994c.313.245,3.093,2.3,3.36,2.424.036-.017,1.75-.155,3.15-.269a.251.251,0,0,1,.032-.282,7.652,7.652,0,0,0,1.054-1.9,8.016,8.016,0,0,0,.6-2.135,1.909,1.909,0,0,1,.059-.308,1.223,1.223,0,0,1,1.054-.613.826.826,0,0,1,.221.029c.234.068,4.437,1.608,4.674,1.778.173.123,1.2,1.38,1.711,2.013l.732-.021a6.756,6.756,0,0,1,1.761-.847,6.437,6.437,0,0,1,.871.134l.809-.517a.242.242,0,0,1,.134-.04.25.25,0,0,1,.181.078l1.021,1.067,1.791.022a9.735,9.735,0,0,1,1.334-1.855c.229-.128,3.958-1.756,4.4-1.886a.874.874,0,0,1,.237-.031c.467,0,1.351.385,1.4.763.017.135.382,1.922.63,3.127l.758.947a.247.247,0,0,1,0,.312l-.008.01c.764.068,2.286.193,3.079.193a1.721,1.721,0,0,0,.405-.024,40.929,40.929,0,0,0,3.42-2.672l.234-2.956a1.2,1.2,0,0,0-.232-.308.626.626,0,0,1-.138-.881c.131-.185.857-.87,1-1.006a.251.251,0,0,1,.172-.068.254.254,0,0,1,.142.043l.4.274a.252.252,0,0,1,.1.158l.209,1.066h2.354c.1,0,.2-.006.3-.011s.2-.011.289-.011a.944.944,0,0,1,.775.3.855.855,0,0,1,.166.824l2,3.773a.249.249,0,0,1-.028.277c-.055.065-1.342,1.607-1.747,1.979a2.648,2.648,0,0,1-.808.477,2.239,2.239,0,0,0-.41.207c-.353.248-3.451,2.31-4.083,2.722a32.262,32.262,0,0,1-3.059,1.855,2.24,2.24,0,0,1-.5.025c-1.068,0-3.859-.118-5.028-.286-1.427-.2-3.883-.671-4.47-.834a6.1,6.1,0,0,0-1.073-.148c-.375-.031-.786-.066-1.225-.145a24.544,24.544,0,0,1-2.735-.8,7.632,7.632,0,0,1-2.079,1.166,8.944,8.944,0,0,1-1.851-.885c-.608.1-4.2.654-4.657.716-.152.02-.5.121-.949.249a28.025,28.025,0,0,1-3.588.843A48.774,48.774,0,0,1,304.783,754.563Z" fill="#9c0008"/>
      <path id="Path_5811" data-name="Path 5811" d="M341.833,740.54l.4.273.248,1.268h2.56c.2,0,.4-.022.586-.022a.7.7,0,0,1,.583.206.611.611,0,0,1,.082.677l2.054,3.877s-1.325,1.591-1.723,1.955a7.317,7.317,0,0,1-1.193.663c-.331.232-3.413,2.286-4.075,2.717s-2.718,1.756-2.983,1.822a2.943,2.943,0,0,1-.439.018c-1.089,0-3.85-.119-4.995-.283-1.392-.2-3.844-.662-4.44-.828s-1.392-.133-2.32-.3a26.43,26.43,0,0,1-2.816-.828,11.072,11.072,0,0,1-2.042,1.193H321.3a12.73,12.73,0,0,1-1.789-.894s-4.242.662-4.739.729-2.518.795-4.54,1.093a48.827,48.827,0,0,1-5.454.436,2.568,2.568,0,0,1-.576-.038c-.4-.133-3.546-2.055-5.17-3.115s-2.352-1.259-3.413-1.922a8.831,8.831,0,0,1-1.491-2.386,16.528,16.528,0,0,0,2.022-4.44l3.81-.033.232-1.524c1.085.538,1.3.977,1.2,1.325a4.4,4.4,0,0,0-.273,1.839,3.527,3.527,0,0,0,.646,2.187c.224.174,3.306,2.46,3.43,2.46s3.8-.3,3.8-.3l-.348-.323a7.735,7.735,0,0,0,1.1-1.963,9.523,9.523,0,0,0,.668-2.461,1.006,1.006,0,0,1,.818-.442.531.531,0,0,1,.151.02c.348.1,4.424,1.615,4.6,1.74S317.726,747,317.726,747l.92-.025a11.823,11.823,0,0,1,1.69-.845,7.762,7.762,0,0,1,.919.15l.895-.572,1.094,1.143,2.037.025a15.62,15.62,0,0,1,1.318-1.889c.223-.124,3.926-1.739,4.349-1.864a.619.619,0,0,1,.167-.021c.45,0,1.128.368,1.15.543.025.2.646,3.206.646,3.206l.795.994-.3.373s2.461.236,3.565.236a1.958,1.958,0,0,0,.486-.037c.422-.149,3.579-2.784,3.579-2.784l.248-3.131a1.512,1.512,0,0,0-.323-.447.382.382,0,0,1-.1-.547c.124-.174.969-.969.969-.969m0-.5a.5.5,0,0,0-.343.136,13.462,13.462,0,0,0-1.033,1.042.88.88,0,0,0,.177,1.214.823.823,0,0,1,.142.179l-.22,2.774c-1.412,1.174-2.975,2.417-3.273,2.564h-.008c-.027,0-.118.007-.3.007-.694,0-1.961-.1-2.77-.167a.5.5,0,0,0-.106-.254l-.721-.9c-.235-1.142-.592-2.888-.615-3.051-.072-.574-1.111-.979-1.646-.979a1.081,1.081,0,0,0-.308.042c-.478.14-4.208,1.771-4.451,1.906-.1.058-.318.176-1.35,1.823l-1.546-.019-.949-.992a.5.5,0,0,0-.63-.075l-.724.462a5.621,5.621,0,0,0-.821-.119c-.122,0-.347,0-1.83.849l-.546.015a15.731,15.731,0,0,0-1.683-1.963c-.313-.224-4.714-1.8-4.751-1.814a1.038,1.038,0,0,0-.288-.039,1.465,1.465,0,0,0-1.292.784,2.23,2.23,0,0,0-.07.353,7.8,7.8,0,0,1-.585,2.072,7.446,7.446,0,0,1-1.013,1.829.5.5,0,0,0-.109.217c-1.152.093-2.445.2-2.856.225-.553-.355-2.951-2.127-3.235-2.348a3.527,3.527,0,0,1-.453-1.8,3.786,3.786,0,0,1,.19-1.49c.024-.069.045-.135.064-.2.3-1.039-1.025-1.7-1.46-1.91a.5.5,0,0,0-.453,0,.5.5,0,0,0-.263.368l-.168,1.1-3.385.029a.5.5,0,0,0-.478.368,16.1,16.1,0,0,1-1.948,4.285.5.5,0,0,0-.055.473,8.868,8.868,0,0,0,1.69,2.624c.465.291.867.495,1.292.71a20.163,20.163,0,0,1,2.113,1.207c1.271.83,4.757,2.994,5.285,3.17a2.4,2.4,0,0,0,.734.064,49.4,49.4,0,0,0,5.527-.441,28.142,28.142,0,0,0,3.62-.851c.4-.115.78-.224.913-.242.445-.059,3.763-.576,4.576-.7a7.375,7.375,0,0,0,1.831.87c.018,0,.049,0,.068,0,.128,0,.461,0,2.118-1.138a23.563,23.563,0,0,0,2.652.765c.455.081.876.117,1.248.148a6,6,0,0,1,1.026.14c.66.183,3.143.647,4.5.841,1.182.169,3.993.288,5.066.288a2.364,2.364,0,0,0,.56-.032,17.653,17.653,0,0,0,3.134-1.889c.669-.435,3.765-2.5,4.09-2.727a2.174,2.174,0,0,1,.365-.181,2.9,2.9,0,0,0,.879-.522c.411-.377,1.631-1.838,1.769-2a.5.5,0,0,0,.058-.554l-1.954-3.687a1.1,1.1,0,0,0-.239-.952,1.187,1.187,0,0,0-.968-.387c-.1,0-.2.005-.3.011s-.187.011-.283.011h-2.148l-.17-.864a.5.5,0,0,0-.207-.316l-.4-.273a.5.5,0,0,0-.283-.088Z" fill="#750000"/>
    </g>
    <path id="Path_5812" data-name="Path 5812" d="M325.991,746.743c.226-.121,4.826-2.682,5.17-2.888s.493-.374-.126-.3a9.736,9.736,0,0,0-2.182.833c-.757.321-1.875.862-2.12.994a5.109,5.109,0,0,0-.814,1.1C325.735,746.753,325.857,746.815,325.991,746.743Z" fill="#630400"/>
    <path id="Path_5813" data-name="Path 5813" d="M301.127,741.963c-.091-.271-.723-.657-.986-.807l-.186,1.221C300.691,742.436,301.231,742.276,301.127,741.963Z" fill="#630400"/>
    <path id="Path_5814" data-name="Path 5814" d="M296.875,742.8c-.3,0-.5.228-.024.436a26.371,26.371,0,0,1,4.721,2.7,5.291,5.291,0,0,1-.236-3.2C300.485,742.753,297.135,742.8,296.875,742.8Z" fill="#630400"/>
    <path id="Path_5815" data-name="Path 5815" d="M345.512,742.734c.481-.229.091-.229-.367-.252-.374-.019-2.944-.022-3.881-.023l.022.044-.248,3.131-.187.155a13.792,13.792,0,0,1,2.55-1.908C344.411,743.331,345.03,742.964,345.512,742.734Z" fill="#630400"/>
    <path id="Path_5816" data-name="Path 5816" d="M311.1,743.675a33.93,33.93,0,0,0,4.383,2.363,7.771,7.771,0,0,0,1.963.614c-.46-.565-1.329-1.623-1.456-1.713-.158-.113-3.507-1.364-4.4-1.675C311.061,743.237,310.9,743.482,311.1,743.675Z" fill="#630400"/>
    <path id="Path_5817" data-name="Path 5817" d="M321.284,748.217a4.6,4.6,0,0,0,.39,1.01,1.412,1.412,0,0,1-.045,1.858c-.23.161-.62.436-.872.39a.971.971,0,0,0-.757.138,12.873,12.873,0,0,1-1.285.367c-.135.062-.94.269-1.784.477l2.585-.4a12.73,12.73,0,0,0,1.789.894,10.536,10.536,0,0,0,2.055-1.192l.131.045a1.684,1.684,0,0,1,.271-.3c.321-.252,1.216-.757,1.377-.918a.958.958,0,0,0,.3-.78c.023-.481.138-.734-.161-1.1s-2.424-2.256-2.424-2.256a28.792,28.792,0,0,0,1.988,2.394.979.979,0,0,1,.115.918c-.046.206-.3.252-.55.16a.32.32,0,0,0-.367.046s-.161.344-.253.573-.275.62-.459.643-.275-.115-.5.092a8.852,8.852,0,0,1-1.079.894.773.773,0,0,1-.8-.252c.78-.275.918-.39,1.056-.551a6.117,6.117,0,0,1,.527-.665c.207-.183.092-.734-.137-1.124s-.253-.619-.482-1.01a13.445,13.445,0,0,0-.689-1.674c-.3-.345-1.149-.243-2.026-.215l-.329.183a4.583,4.583,0,0,1,1.881.1C321.019,747.126,321.238,747.9,321.284,748.217Z" fill="#630400"/>
    <path id="Path_5818" data-name="Path 5818" d="M342.415,742.058l-.222-1.132-.042-.029a5.956,5.956,0,0,0-.692.55C341.2,741.709,341.332,742.137,342.415,742.058Z" fill="#630400"/>
    <g id="Group_6363" data-name="Group 6363">
      <path id="Path_5819" data-name="Path 5819" d="M297.25,749.045a.244.244,0,0,1-.139-.042l-.4-.267a.932.932,0,0,1-.47-.739l-.092-1.014,0-.3-.228.341c-.111.163-.257.376-.21.439a.251.251,0,0,1,.005.292.277.277,0,0,1-.223.116.224.224,0,0,1-.13-.038l-.831-.555a.251.251,0,0,1-.067-.351.285.285,0,0,1,.223-.119.455.455,0,0,1,.055.007c.082,0,.222-.216.274-.3l1.14-1.707c.116-.169.261-.38.215-.443a.25.25,0,0,1-.007-.282.272.272,0,0,1,.164-.117.323.323,0,0,1,.063-.006.242.242,0,0,1,.131.036l1.035.693a1.434,1.434,0,0,1,.66.885,1,1,0,0,1-.158.764,1.156,1.156,0,0,1-.992.49c-.047,0-.1,0-.142-.006l.072.866a3.474,3.474,0,0,0,.277,1,.251.251,0,0,1-.067.293A.247.247,0,0,1,297.25,749.045Zm-.584-3.128a1.074,1.074,0,0,0,.362.075.378.378,0,0,0,.341-.17.3.3,0,0,0,.048-.237.444.444,0,0,0-.209-.269c-.034-.021-.067-.039-.1-.058Z" fill="#fff"/>
      <path id="Path_5820" data-name="Path 5820" d="M296.587,744.211l1.035.692c.584.389.7.906.433,1.3a.919.919,0,0,1-.784.379,1.193,1.193,0,0,1-.42-.076l.1,1.207a3.694,3.694,0,0,0,.3,1.08l-.4-.268a.685.685,0,0,1-.36-.554l-.092-1.012.01-.881a1.522,1.522,0,0,0,.62.161.62.62,0,0,0,.548-.28.6.6,0,0,0-.238-.859,2.743,2.743,0,0,0-.32-.162l-1.3,1.949c-.133.2-.372.5-.2.727l-.009.013-.831-.555.008-.013a.308.308,0,0,0,.073.009c.235,0,.4-.3.517-.477l1.1-1.641c.134-.2.377-.5.21-.728l.009-.013m0-.5a.5.5,0,0,0-.413.218l-.009.013a.5.5,0,0,0-.047.478,2.067,2.067,0,0,1-.117.184l-.049.071-1.1,1.64-.046.071c-.031.048-.082.126-.122.175h-.006a.5.5,0,0,0-.42.23.513.513,0,0,0,.134.7l.831.555a.5.5,0,0,0,.746-.239l.019.212a1.174,1.174,0,0,0,.58.925l.4.268a.5.5,0,0,0,.735-.619,3.181,3.181,0,0,1-.257-.922l-.049-.591a1.381,1.381,0,0,0,1.07-.6,1.255,1.255,0,0,0,.164-1.076,1.737,1.737,0,0,0-.735-.92l-1.035-.692a.5.5,0,0,0-.278-.084Zm.5,2.024.077-.116.007.02c-.024.054-.04.084-.084.1Z" fill="#750000"/>
    </g>
    <g id="Group_6364" data-name="Group 6364">
      <path id="Path_5821" data-name="Path 5821" d="M299.1,750.238a.251.251,0,0,1-.134-.039l-1.843-1.169a.247.247,0,0,1-.11-.157.255.255,0,0,1,.033-.189.284.284,0,0,1,.227-.128.369.369,0,0,1,.049.006c.086,0,.224-.224.276-.308l1.1-1.728c.108-.166.25-.385.2-.45a.247.247,0,0,1-.011-.286.273.273,0,0,1,.228-.125.222.222,0,0,1,.124.035l1.414.9a2.113,2.113,0,0,0,.32.186.176.176,0,0,1,.1.043.251.251,0,0,1,.113.248l-.092.594a.255.255,0,0,1-.139.188.24.24,0,0,1-.108.024.238.238,0,0,1-.124-.033.278.278,0,0,1-.137-.189,2.018,2.018,0,0,0-.605-.451l-.112-.069c-.081-.051-.162-.1-.244-.145l-.269.423.315.2a.662.662,0,0,0,.106.059.237.237,0,0,1,.106.038.264.264,0,0,1,.09.353l-.3.468a.248.248,0,0,1-.211.116.253.253,0,0,1-.124-.033.274.274,0,0,1-.14-.241.884.884,0,0,0-.184-.137l-.13-.083-.409.644.348.269a1.076,1.076,0,0,0,.644.221.889.889,0,0,0,.146-.011l.039,0a.26.26,0,0,1,.256.234.25.25,0,0,1-.086.219l-.566.453A.254.254,0,0,1,299.1,750.238Z" fill="#fff"/>
      <path id="Path_5822" data-name="Path 5822" d="M299.1,745.911l1.413.9a1.861,1.861,0,0,0,.407.219l.013.009-.091.595-.014-.009c-.036-.245-.627-.566-.83-.7a2.928,2.928,0,0,0-.471-.255l-.521.822.526.334a.544.544,0,0,0,.211.1l.014.009-.3.468-.014-.008c.011-.173-.178-.286-.315-.373l-.327-.208-.664,1.048.528.408a1.315,1.315,0,0,0,.8.273,1.178,1.178,0,0,0,.187-.015l.013.009-.566.453-1.843-1.169.008-.013a.315.315,0,0,0,.067.007c.239,0,.4-.3.516-.487l1.057-1.666c.129-.2.36-.509.188-.736l.009-.013m0-.5a.5.5,0,0,0-.42.228l-.009.014a.5.5,0,0,0-.033.482,2.035,2.035,0,0,1-.116.194l-.041.063-1.057,1.666-.039.063a2.051,2.051,0,0,1-.122.182l-.038,0a.453.453,0,0,0-.381.233.514.514,0,0,0-.073.385.506.506,0,0,0,.216.322l1.843,1.169a.5.5,0,0,0,.58-.032l.566-.453a.5.5,0,0,0-.044-.812.562.562,0,0,0-.291-.086.379.379,0,0,0-.068.006.8.8,0,0,1-.109.008.822.822,0,0,1-.491-.169l-.167-.129.152-.24h0a.5.5,0,0,0,.215.308.53.53,0,0,0,.284.084.5.5,0,0,0,.1-.01.511.511,0,0,0,.322-.217l.3-.468a.5.5,0,0,0-.05-.6,1.377,1.377,0,0,1,.223.175.5.5,0,0,0,.209.271.525.525,0,0,0,.278.08.493.493,0,0,0,.2-.043.5.5,0,0,0,.294-.375l.091-.595a.5.5,0,0,0-.223-.5.574.574,0,0,0-.157-.071,2.4,2.4,0,0,1-.24-.143l-1.44-.913a.493.493,0,0,0-.267-.078Zm.6,1.929.006-.009.029.019.114.07.048.029-.043-.013c-.017-.009-.032-.02-.049-.03l-.105-.066Z" fill="#750000"/>
    </g>
    <g id="Group_6365" data-name="Group 6365">
      <path id="Path_5823" data-name="Path 5823" d="M300.316,751.049a.231.231,0,0,1-.118-.03l-.894-.533a.249.249,0,0,1-.089-.339.276.276,0,0,1,.231-.139.415.415,0,0,1,.043,0c.086,0,.219-.23.27-.317l1.047-1.755c.1-.167.239-.391.188-.459a.249.249,0,0,1-.018-.275.261.261,0,0,1,.157-.125.333.333,0,0,1,.077-.01.228.228,0,0,1,.118.03l1.093.652a1.258,1.258,0,0,1,.646,1.744,1.172,1.172,0,0,1-1.037.566,1.561,1.561,0,0,1-.8-.225,1.361,1.361,0,0,1-.245-.184l-.333.559c-.158.264-.178.32-.1.453a.251.251,0,0,1,0,.249.27.27,0,0,1-.158.125A.378.378,0,0,1,300.316,751.049Zm.952-1.867a.966.966,0,0,0,.355.072.484.484,0,0,0,.449-.229c.056-.093.2-.339-.221-.591l-.1-.057Z" fill="#fff"/>
      <path id="Path_5824" data-name="Path 5824" d="M301.2,747.316l1.092.652c.584.348.86.9.559,1.4a.922.922,0,0,1-.822.445,1.319,1.319,0,0,1-.67-.19.86.86,0,0,1-.291-.259,1.217,1.217,0,0,0,.554.14.738.738,0,0,0,.664-.351.635.635,0,0,0-.309-.934,2.154,2.154,0,0,0-.331-.161l-1.209,2.027c-.15.252-.262.429-.1.706l-.008.013-.894-.533.008-.014a.305.305,0,0,0,.059.006c.243,0,.4-.313.51-.5l1.011-1.694c.121-.2.344-.514.173-.738l.008-.014m0-.5a.5.5,0,0,0-.435.252l-.008.014a.5.5,0,0,0-.016.464,2.06,2.06,0,0,1-.112.2l-.039.064-1.011,1.694-.037.063a2,2,0,0,1-.116.185H299.4a.457.457,0,0,0-.392.243.516.516,0,0,0-.063.387.507.507,0,0,0,.225.316l.9.534a.505.505,0,0,0,.256.07.511.511,0,0,0,.123-.015.5.5,0,0,0,.307-.229.527.527,0,0,0,.013-.517.588.588,0,0,1,.09-.187l.2-.332.046.029a1.822,1.822,0,0,0,.927.26,1.419,1.419,0,0,0,1.252-.688,1.309,1.309,0,0,0,.082-1.212,1.937,1.937,0,0,0-.815-.874l-1.092-.652a.5.5,0,0,0-.256-.071Zm.465,2.187.166-.278c.084.072.059.115.025.172a.22.22,0,0,1-.191.106Z" fill="#750000"/>
    </g>
    <g id="Group_6366" data-name="Group 6366">
      <path id="Path_5825" data-name="Path 5825" d="M303.41,752.855a.248.248,0,0,1-.188-.106l-.072-.1a1.247,1.247,0,0,1-.308-.934l.063-2.409a1.1,1.1,0,0,0-.072-.584.254.254,0,0,1-.017-.22.276.276,0,0,1,.247-.17.219.219,0,0,1,.084.016l.71.283a.251.251,0,0,1,.131.344,1.276,1.276,0,0,0-.05.426l-.052,1.782.9-.986c.134-.145.385-.415.366-.5a.285.285,0,0,1-.075-.285.271.271,0,0,1,.137-.149.294.294,0,0,1,.117-.026.235.235,0,0,1,.079.014l.724.29a.258.258,0,0,1,.151.178.251.251,0,0,1-.061.225l-2.617,2.832a.251.251,0,0,1-.183.08Z" fill="#fff"/>
      <path id="Path_5826" data-name="Path 5826" d="M303.055,748.581l.709.283-.028.056a2.187,2.187,0,0,0-.049.505l-.071,2.422,1.358-1.481c.269-.293.593-.625.34-.867l.006-.015.724.289-2.618,2.833a1.135,1.135,0,0,1-.335-.883l.06-2.281a1.575,1.575,0,0,0-.1-.847l.006-.014m0-.5a.5.5,0,0,0-.467.321l-.006.015a.5.5,0,0,0,.036.432,1,1,0,0,1,.037.446l0,.135-.059,2.28a1.485,1.485,0,0,0,.354,1.083l.07.1a.5.5,0,0,0,.376.213h.034a.5.5,0,0,0,.368-.161l2.617-2.832a.5.5,0,0,0-.182-.8l-.724-.289a.49.49,0,0,0-.185-.036.5.5,0,0,0-.2.041.5.5,0,0,0-.267.276.529.529,0,0,0,.015.422,3.563,3.563,0,0,1-.235.273l-.48.523.032-1.08c0-.1.007-.264.018-.339l.006-.012a.5.5,0,0,0-.261-.688l-.71-.284a.51.51,0,0,0-.185-.035Z" fill="#750000"/>
    </g>
    <g id="Group_6367" data-name="Group 6367">
      <path id="Path_5827" data-name="Path 5827" d="M306.227,753.361a.252.252,0,0,1-.174-.071.246.246,0,0,1-.076-.179v-.016a.248.248,0,0,1,.154-.23c.072-.031.06-.3.055-.418l-.066-2.045c0-.2-.007-.454-.082-.48a.249.249,0,0,1-.171-.237.266.266,0,0,1,.242-.266l1.243-.04c1.01,0,1.357.5,1.372.966a.872.872,0,0,1-.22.626,1.118,1.118,0,0,1,.6.97,1.3,1.3,0,0,1-.733,1.165,2.656,2.656,0,0,1-1.193.226Zm1.235-.914a.63.63,0,0,0,.469-.145.359.359,0,0,0,.094-.279c-.012-.413-.509-.434-.609-.434l-.223.016.026.827Z" fill="#fff"/>
      <path id="Path_5828" data-name="Path 5828" d="M307.431,749.629c.646,0,1.029.276,1.043.724a.732.732,0,0,1-.5.7.962.962,0,0,1,.882.9,1.053,1.053,0,0,1-.6.935,2.628,2.628,0,0,1-1.166.2l-.863.027v-.016c.259-.108.215-.488.207-.729l-.062-1.972c-.008-.235.016-.618-.253-.709v-.015l1.24-.04h.074m-.506,1.4.173-.006c.339-.01.822-.141.809-.57a.537.537,0,0,0-.576-.5.675.675,0,0,0-.09.006l-.349.048.033,1.025m.583,1.667c.4,0,.783-.216.767-.684s-.435-.675-.86-.675a1.065,1.065,0,0,0-.113.005l-.366.032.041,1.292.456.028.075,0m-.077-3.569h-.09l-1.24.04a.5.5,0,0,0-.484.517.532.532,0,0,0,.24.424,1.98,1.98,0,0,1,.012.214l0,.085.063,1.972,0,.076a2.184,2.184,0,0,1,0,.229.5.5,0,0,0-.211.427.514.514,0,0,0,.5.5h.015l.862-.027.086,0a2.856,2.856,0,0,0,1.3-.254,1.551,1.551,0,0,0,.866-1.394,1.361,1.361,0,0,0-.505-1.025,1.159,1.159,0,0,0,.124-.571c-.018-.557-.433-1.208-1.543-1.208Zm-.024,1.344v0l0,0h0Zm.055,1.723-.011-.356c.1,0,.32.033.325.19,0,.071-.017.091-.025.1a.359.359,0,0,1-.243.07h-.046Z" fill="#750000"/>
    </g>
    <g id="Group_6368" data-name="Group 6368">
      <path id="Path_5829" data-name="Path 5829" d="M309.018,753.173a.25.25,0,0,1-.249-.218v-.016a.251.251,0,0,1,.137-.256c.071-.034.042-.3.03-.418l-.2-2.038c-.016-.2-.037-.454-.114-.475a.251.251,0,0,1-.186-.225.266.266,0,0,1,.225-.28l1.234-.121c.082-.007.16-.011.235-.011.687,0,1.148.34,1.2.885a.871.871,0,0,1-.18.64,1.119,1.119,0,0,1,.663.928,1.3,1.3,0,0,1-.655,1.211,2.672,2.672,0,0,1-1.169.3Zm.947-.992h.229a.628.628,0,0,0,.464-.167.357.357,0,0,0,.084-.293c-.036-.367-.446-.395-.571-.395a1.157,1.157,0,0,0-.157.011l-.129.021Zm-.161-1.654a.961.961,0,0,0,.341-.116.216.216,0,0,0,.127-.223c-.022-.234-.284-.24-.313-.24a.409.409,0,0,0-.085.008l-.123.025Z" fill="#fff"/>
      <path id="Path_5830" data-name="Path 5830" d="M310.13,749.365c.564,0,.911.246.951.66a.733.733,0,0,1-.455.728.961.961,0,0,1,.938.839,1.051,1.051,0,0,1-.536.973,2.636,2.636,0,0,1-1.151.275l-.86.083v-.016c.251-.124.183-.5.159-.741l-.191-1.963c-.022-.235-.023-.619-.3-.692V749.5l1.234-.12c.073-.007.143-.011.211-.011m-.551,1.437.172-.017c.339-.033.812-.194.771-.621a.529.529,0,0,0-.563-.466.678.678,0,0,0-.134.013l-.345.07.1,1.021m.159,1.63.457,0c.431,0,.844-.24.8-.734a.736.736,0,0,0-.82-.622,1.283,1.283,0,0,0-.2.015l-.362.057.125,1.286m.392-3.567c-.083,0-.17,0-.26.013l-1.234.12a.5.5,0,0,0-.45.537.529.529,0,0,0,.268.418,2.077,2.077,0,0,1,.026.214l.007.084.191,1.964.008.076c.006.06.017.162.016.228a.5.5,0,0,0-.184.438.516.516,0,0,0,.5.466l.046,0,.859-.084.085-.008a2.851,2.851,0,0,0,1.279-.337,1.551,1.551,0,0,0,.773-1.448,1.357,1.357,0,0,0-.57-.99,1.155,1.155,0,0,0,.087-.577,1.3,1.3,0,0,0-1.449-1.112Zm-.106,1.349v0l.005,0h-.005Zm.133,1.36h.014c.114,0,.308.022.322.17.007.072-.012.093-.02.1a.4.4,0,0,1-.278.084h0l-.034-.356Z" fill="#750000"/>
    </g>
    <g id="Group_6369" data-name="Group 6369">
      <path id="Path_5831" data-name="Path 5831" d="M311.829,752.656a.25.25,0,0,1-.248-.219l0-.016a.249.249,0,0,1,.129-.251c.067-.037.021-.3,0-.415l-.324-2.018c-.031-.2-.07-.453-.15-.47a.25.25,0,0,1-.2-.214.265.265,0,0,1,.206-.294l.986-.159.04,0a.251.251,0,0,1,.247.2.274.274,0,0,1-.121.28c-.068.039-.024.291,0,.412l.338,2.1.477-.045a1.026,1.026,0,0,0,.7-.377.253.253,0,0,1,.158-.085l.033,0a.266.266,0,0,1,.191.08.25.25,0,0,1,.067.221l-.158.731a.25.25,0,0,1-.2.194l-2.124.341Z" fill="#fff"/>
      <path id="Path_5832" data-name="Path 5832" d="M312.27,748.847l0,.016c-.248.14-.15.517-.112.75l.361,2.252.711-.066a1.293,1.293,0,0,0,.864-.462l.015,0-.158.731-2.124.341,0-.016c.248-.135.156-.512.119-.745l-.313-1.948c-.039-.238-.068-.62-.348-.675l0-.016.987-.159m-.009-.5a.431.431,0,0,0-.071.006l-.986.158a.5.5,0,0,0-.415.569.531.531,0,0,0,.3.4,2.027,2.027,0,0,1,.042.223l.012.075.313,1.947.012.073a2.138,2.138,0,0,1,.03.221.5.5,0,0,0-.16.458.519.519,0,0,0,.5.43.478.478,0,0,0,.075-.006l2.123-.342a.5.5,0,0,0,.409-.387l.159-.731a.5.5,0,0,0-.489-.606.44.44,0,0,0-.08.007.539.539,0,0,0-.314.169.789.789,0,0,1-.535.291l-.241.023-.288-1.791-.014-.084a2.035,2.035,0,0,1-.03-.216.5.5,0,0,0,.158-.444.518.518,0,0,0-.506-.441Z" fill="#750000"/>
    </g>
    <g id="Group_6370" data-name="Group 6370">
      <path id="Path_5833" data-name="Path 5833" d="M314.37,752.166a.25.25,0,0,1-.246-.2l0-.015a.252.252,0,0,1,.125-.265c.065-.036.019-.31,0-.414l-.326-2.019c-.029-.2-.067-.457-.144-.472a.252.252,0,0,1-.2-.214.264.264,0,0,1,.207-.294l.981-.157a.268.268,0,0,1,.04,0,.252.252,0,0,1,.248.217.274.274,0,0,1-.121.264c-.069.039-.023.307,0,.422l.325,2.02c.028.186.068.45.145.466a.251.251,0,0,1,.2.213.266.266,0,0,1-.206.294l-.982.159Z" fill="#fff"/>
      <path id="Path_5834" data-name="Path 5834" d="M314.8,748.358l0,.016c-.242.14-.15.517-.113.75l.313,1.948c.037.232.067.614.341.671l0,.015-.982.158,0-.015c.244-.135.152-.512.114-.745l-.313-1.948c-.038-.237-.063-.621-.342-.676l0-.016.981-.158m-.008-.5a.429.429,0,0,0-.071.006l-.982.158a.5.5,0,0,0-.415.568.53.53,0,0,0,.293.4,2.169,2.169,0,0,1,.04.215l.012.086.314,1.948.012.074a2.157,2.157,0,0,1,.03.222.5.5,0,0,0-.155.457.519.519,0,0,0,.5.427.493.493,0,0,0,.076-.006l.981-.158a.5.5,0,0,0,.413-.581.532.532,0,0,0-.289-.383,2.011,2.011,0,0,1-.042-.222l-.011-.074-.313-1.948-.013-.073a2.076,2.076,0,0,1-.03-.229.5.5,0,0,0,.156-.442.511.511,0,0,0-.2-.337.522.522,0,0,0-.3-.1Z" fill="#750000"/>
    </g>
    <g id="Group_6371" data-name="Group 6371">
      <path id="Path_5835" data-name="Path 5835" d="M317.014,751.661a1.938,1.938,0,0,1-2.047-1.719,2.012,2.012,0,0,1,.349-1.562,2.126,2.126,0,0,1,1.386-.795,3.649,3.649,0,0,1,.572-.042c.151,0,.3.008.448.019a.249.249,0,0,1,.228.209l.1.594a.252.252,0,0,1-.094.237.247.247,0,0,1-.153.053.244.244,0,0,1-.1-.021,1.662,1.662,0,0,0-.649-.14,1.285,1.285,0,0,0-.215.017.943.943,0,0,0-.637.371,1.073,1.073,0,0,0-.161.808,1.139,1.139,0,0,0,1.081,1.032,1.06,1.06,0,0,0,.175-.015,2.064,2.064,0,0,0,.931-.449.241.241,0,0,1,.111-.051.26.26,0,0,1,.048,0,.257.257,0,0,1,.188.078.25.25,0,0,1,.068.231l-.167.642a.252.252,0,0,1-.1.143,2.077,2.077,0,0,1-.855.323A3.307,3.307,0,0,1,317.014,751.661Z" fill="#fff"/>
      <path id="Path_5836" data-name="Path 5836" d="M317.278,747.794c.143,0,.285.006.425.017l.1.594a1.893,1.893,0,0,0-.748-.161,1.675,1.675,0,0,0-.255.02,1.2,1.2,0,0,0-1.005,1.466,1.393,1.393,0,0,0,1.328,1.242,1.329,1.329,0,0,0,.215-.017,2.31,2.31,0,0,0,1.048-.5l.015,0-.167.642a1.842,1.842,0,0,1-.755.28,2.9,2.9,0,0,1-.463.039,1.693,1.693,0,0,1-1.8-1.509,1.732,1.732,0,0,1,1.528-2.069,3.3,3.3,0,0,1,.536-.039m0-.5h0a3.8,3.8,0,0,0-.615.045,2.373,2.373,0,0,0-1.547.891,2.289,2.289,0,0,0-.4,1.751,2.2,2.2,0,0,0,2.292,1.93,3.4,3.4,0,0,0,.542-.045,2.342,2.342,0,0,0,.958-.361.5.5,0,0,0,.2-.287l.167-.642a.5.5,0,0,0-.484-.626.511.511,0,0,0-.087.008.578.578,0,0,0-.242.1,1.818,1.818,0,0,1-.814.4.785.785,0,0,1-.135.011.9.9,0,0,1-.835-.822.829.829,0,0,1,.109-.608.7.7,0,0,1,.482-.284,1.043,1.043,0,0,1,.176-.014,1.415,1.415,0,0,1,.55.12.506.506,0,0,0,.2.041.5.5,0,0,0,.493-.58l-.1-.594a.5.5,0,0,0-.457-.419c-.152-.011-.307-.018-.462-.018Z" fill="#750000"/>
    </g>
    <g id="Group_6372" data-name="Group 6372">
      <path id="Path_5837" data-name="Path 5837" d="M318.515,751.527a.258.258,0,0,1-.151-.05.249.249,0,0,1-.1-.169l0-.016a.25.25,0,0,1,.1-.234c.165-.118.209-.3.268-.583l.534-2.376a.914.914,0,0,0,.033-.209c-.1-.016-.168-.053-.188-.156a.264.264,0,0,1,.038-.2.256.256,0,0,1,.164-.113l.816-.132.04,0a.249.249,0,0,1,.214.12l1.5,2.478c.192.324.295.483.487.544a.248.248,0,0,1,.172.207.264.264,0,0,1-.206.294l-1.059.17-.04,0a.258.258,0,0,1-.151-.05.247.247,0,0,1-.1-.169.276.276,0,0,1,.108-.256h.006c.026,0-.022-.081-.065-.153l-.343-.592-.96.154-.119.6a1.121,1.121,0,0,0-.031.241.237.237,0,0,1,.182.376.258.258,0,0,1-.164.113l-.951.153Zm1.306-2.415.295-.047-.207-.354Z" fill="#fff"/>
      <path id="Path_5838" data-name="Path 5838" d="M320.071,747.539l1.5,2.478c.167.275.306.55.625.652l0,.016-1.059.17,0-.016c.235-.154.185-.2-.013-.543l-.4-.684-1.3.209-.152.772c-.062.307-.074.462.189.515l0,.016-.951.153,0-.016a1.178,1.178,0,0,0,.384-.814l.516-2.293c.043-.2.106-.431-.154-.469l0-.015.816-.131m-.572,1.878,1.017-.163-.715-1.221-.3,1.384m.573-2.378a.543.543,0,0,0-.08.006l-.816.131a.5.5,0,0,0-.415.57.534.534,0,0,0,.162.305l-.515,2.286-.018.087c-.054.258-.084.37-.169.431a.5.5,0,0,0-.2.492.518.518,0,0,0,.5.429.478.478,0,0,0,.075-.006l.951-.152a.5.5,0,0,0,.413-.58.53.53,0,0,0-.2-.327l0-.019.085-.432.619-.1.224.387.025.043a.5.5,0,0,0-.074.323.52.52,0,0,0,.2.338.528.528,0,0,0,.305.1.566.566,0,0,0,.071-.005l1.059-.171a.5.5,0,0,0,.415-.568.523.523,0,0,0-.343-.417c-.1-.032-.168-.13-.306-.362l-.044-.073-1.5-2.478a.5.5,0,0,0-.427-.241Z" fill="#750000"/>
    </g>
    <g id="Group_6373" data-name="Group 6373">
      <path id="Path_5839" data-name="Path 5839" d="M325.62,751.59a.25.25,0,0,1-.209-.278.272.272,0,0,1,.2-.23c.073-.014.113-.29.129-.393l.32-2.022c.036-.2.08-.453.011-.492a.248.248,0,0,1-.124-.263.271.271,0,0,1,.253-.22c.012,0,1.017.159,1.017.159a.252.252,0,0,1,.209.278.273.273,0,0,1-.2.23c-.077.015-.117.284-.133.4l-.321,2.022c-.031.183-.077.448-.007.488a.251.251,0,0,1,.121.266.27.27,0,0,1-.252.216C326.625,751.749,325.62,751.59,325.62,751.59Z" fill="#fff"/>
      <path id="Path_5840" data-name="Path 5840" d="M326.2,747.942l.982.156,0,.016c-.274.057-.3.444-.341.677l-.31,1.948c-.037.233-.128.6.115.745l0,.015-.982-.156,0-.015c.273-.053.3-.44.34-.673l.31-1.948c.038-.238.134-.61-.115-.749l0-.016m0-.5a.5.5,0,0,0-.493.42l0,.015a.5.5,0,0,0,.158.451,2,2,0,0,1-.03.216l-.014.084-.31,1.949-.011.074a2.073,2.073,0,0,1-.041.221.5.5,0,0,0-.289.387.513.513,0,0,0,.414.578l.982.155a.429.429,0,0,0,.079.007.5.5,0,0,0,.492-.412.531.531,0,0,0-.153-.471,2,2,0,0,1,.03-.225l.012-.073.31-1.949.011-.073a2.1,2.1,0,0,1,.042-.227.5.5,0,0,0,.29-.392.515.515,0,0,0-.416-.573l-.982-.156a.522.522,0,0,0-.079-.006Z" fill="#750000"/>
    </g>
    <g id="Group_6374" data-name="Group 6374">
      <path id="Path_5841" data-name="Path 5841" d="M327.976,752.041a.246.246,0,0,1-.171-.1.252.252,0,0,1-.044-.193.273.273,0,0,1,.189-.213c.077-.019.108-.286.12-.4l.27-2.138-.209-.027a1.078,1.078,0,0,0-.126-.008.6.6,0,0,0-.34.091.251.251,0,0,1-.147.048H327.5a.264.264,0,0,1-.2-.119.253.253,0,0,1-.025-.231l.26-.595a.251.251,0,0,1,.23-.151l.031,0a.329.329,0,0,1,.11.034l.137.038,2.027.253a.818.818,0,0,1,.155-.01.868.868,0,0,1,.088,0,.26.26,0,0,1,.193.123.251.251,0,0,1,.023.221l-.244.6a.25.25,0,0,1-.231.155l-.034,0a.268.268,0,0,1-.224-.192c-.006-.022-.064-.056-.209-.074l-.22-.028-.266,2.121c-.039.311-.037.366.09.463a.251.251,0,0,1,.1.23.267.267,0,0,1-.257.234C329.02,752.173,327.976,752.041,327.976,752.041Z" fill="#fff"/>
      <path id="Path_5842" data-name="Path 5842" d="M327.762,748.255l.016,0a.887.887,0,0,0,.193.061l2.066.26a.931.931,0,0,0,.126.01.38.38,0,0,0,.118-.016l.015,0-.244.6-.015,0c-.045-.19-.25-.243-.421-.264l-.467-.059-.3,2.368c-.037.3-.067.5.187.693l0,.016-1.028-.13,0-.015c.272-.066.289-.449.318-.683l.292-2.316-.457-.057a1.149,1.149,0,0,0-.155-.01.832.832,0,0,0-.489.139H327.5l.259-.595m.015-.5a.517.517,0,0,0-.473.3l-.259.6a.5.5,0,0,0,.4.7.383.383,0,0,0,.059,0,.536.536,0,0,0,.3-.093.352.352,0,0,1,.2-.045.484.484,0,0,1,.054,0l-.23,1.819-.008.074a2,2,0,0,1-.035.222.5.5,0,0,0-.273.374.519.519,0,0,0,.094.384.509.509,0,0,0,.335.2l1.029.13a.446.446,0,0,0,.063,0,.5.5,0,0,0,.495-.437.523.523,0,0,0-.189-.475.514.514,0,0,1,0-.218l.237-1.888.015,0a.5.5,0,0,0,.376.257.474.474,0,0,0,.065,0,.516.516,0,0,0,.477-.309l.244-.6a.5.5,0,0,0-.473-.689.538.538,0,0,0-.158.022c.015-.008-.006-.011-.028-.014l-2.037-.256-.033-.009a.5.5,0,0,0-.189-.056.469.469,0,0,0-.064,0Z" fill="#750000"/>
    </g>
    <g id="Group_6375" data-name="Group 6375">
      <path id="Path_5843" data-name="Path 5843" d="M332.322,752.815a.251.251,0,0,1-.217-.279.275.275,0,0,1,.177-.224l.009,0c.019,0,0-.087-.023-.164l-.163-.667-.964-.122-.283.544a1.121,1.121,0,0,0-.1.222.26.26,0,0,1,.16.242.266.266,0,0,1-.1.173.26.26,0,0,1-.161.061l-.98-.122a.25.25,0,0,1-.217-.279.271.271,0,0,1,.167-.22c.191-.069.285-.228.421-.483l1.18-2.132a.924.924,0,0,0,.09-.191.192.192,0,0,1-.135-.227.271.271,0,0,1,.253-.22c.009,0,.848.1.848.1a.249.249,0,0,1,.21.184l.744,2.8c.1.365.148.546.315.659a.25.25,0,0,1,.108.238.269.269,0,0,1-.257.235C333.4,752.952,332.322,752.815,332.322,752.815Zm-.448-2.253-.1-.4-.2.36Z" fill="#fff"/>
      <path id="Path_5844" data-name="Path 5844" d="M331.439,748.981l.82.1.745,2.8a1.226,1.226,0,0,0,.415.8l0,.015-1.064-.134,0-.015c.269-.083.234-.145.14-.526l-.188-.767L331,751.094l-.363.7c-.145.277-.2.423.037.548l0,.015-.956-.12,0-.016c.321-.113.445-.392.6-.674l1.14-2.055c.1-.178.222-.384-.017-.493l0-.016m.766,1.874-.344-1.372-.679,1.243,1.023.129m-.767-2.374a.5.5,0,0,0-.495.433l0,.016a.5.5,0,0,0,.07.328l-1.134,2.045-.042.079c-.124.232-.184.331-.284.366a.5.5,0,0,0-.33.409.514.514,0,0,0,.432.574l.955.12a.445.445,0,0,0,.063,0,.5.5,0,0,0,.495-.433.536.536,0,0,0-.1-.381l.009-.016.2-.392.621.079.107.433.012.049a.5.5,0,0,0-.163.3.513.513,0,0,0,.432.573l1.064.135c.021,0,.042,0,.062,0a.5.5,0,0,0,.5-.437.525.525,0,0,0-.214-.492c-.088-.06-.125-.173-.192-.435l-.021-.08-.744-2.8a.5.5,0,0,0-.421-.367l-.82-.1a.469.469,0,0,0-.064,0Z" fill="#750000"/>
    </g>
    <g id="Group_6376" data-name="Group 6376">
      <path id="Path_5845" data-name="Path 5845" d="M333.682,753.01a.251.251,0,0,1-.236-.25.27.27,0,0,1,.181-.256c.075-.021.088-.291.094-.406l.119-2.04c.013-.2.031-.458-.044-.491a.253.253,0,0,1-.15-.244.268.268,0,0,1,.253-.25l1.011.058a.249.249,0,0,1,.173.084.253.253,0,0,1,.062.182.27.27,0,0,1-.177.239c-.076.023-.087.279-.092.4l-.124,2.125.475.058c.041.005.125.008.125.008a1.038,1.038,0,0,0,.638-.224.252.252,0,0,1,.15-.049.262.262,0,0,1,.218.115.252.252,0,0,1,.025.239l-.313.68a.25.25,0,0,1-.227.145Z" fill="#fff"/>
      <path id="Path_5846" data-name="Path 5846" d="M333.9,749.323l1,.058v.016c-.273.083-.259.472-.273.707l-.133,2.278.707.088a1.38,1.38,0,0,0,.156.01,1.3,1.3,0,0,0,.787-.274h.017l-.313.679-2.147-.126v-.016c.271-.078.263-.466.277-.7l.115-1.97c.015-.241.068-.62-.193-.735l0-.015m0-.5a.5.5,0,0,0-.5.456l0,.015a.5.5,0,0,0,.2.448,1.886,1.886,0,0,1-.007.227l-.005.074-.115,1.97,0,.074a2.175,2.175,0,0,1-.019.221.5.5,0,0,0-.255.412.514.514,0,0,0,.47.539l2.147.126h.029a.5.5,0,0,0,.454-.291l.313-.679a.5.5,0,0,0-.436-.709h-.019a.544.544,0,0,0-.314.1.773.773,0,0,1-.586.169l-.24-.03.106-1.811,0-.084a2.059,2.059,0,0,1,.018-.218.5.5,0,0,0,.251-.4.518.518,0,0,0-.125-.37.51.51,0,0,0-.344-.175l-1-.059Z" fill="#750000"/>
    </g>
    <g id="Group_6377" data-name="Group 6377">
      <path id="Path_5847" data-name="Path 5847" d="M336.636,753.131a.249.249,0,0,1-.25-.25.27.27,0,0,1,.166-.251c.069-.025.067-.3.066-.409l0-2.046c0-.2.008-.461-.066-.488a.251.251,0,0,1-.163-.234.269.269,0,0,1,.074-.185.257.257,0,0,1,.176-.081l1,0a.25.25,0,0,1,.249.234.275.275,0,0,1-.162.266c-.075.028-.072.3-.071.418l0,2.043c0,.185-.007.455.069.483a.252.252,0,0,1,.16.249.266.266,0,0,1-.251.25Z" fill="#fff"/>
      <path id="Path_5848" data-name="Path 5848" d="M336.645,749.437l.994,0v.016c-.262.1-.232.486-.232.721l-.005,1.973c0,.236-.033.617.229.718v.015l-.994,0v-.016c.262-.093.231-.481.232-.716l0-1.973c0-.241.038-.623-.228-.723v-.016m0-.5a.5.5,0,0,0-.5.5v.016a.5.5,0,0,0,.225.418,2,2,0,0,1,0,.218v.085l0,1.974v.075a1.9,1.9,0,0,1-.006.224.5.5,0,0,0-.226.418.514.514,0,0,0,.5.516l.994,0h0a.5.5,0,0,0,.5-.488.53.53,0,0,0-.223-.443,1.906,1.906,0,0,1-.006-.226v-.075l.005-1.972V750.1a1.985,1.985,0,0,1,.006-.23.5.5,0,0,0,.226-.431.514.514,0,0,0-.5-.5l-.994,0Z" fill="#750000"/>
    </g>
    <g id="Group_6378" data-name="Group 6378">
      <path id="Path_5849" data-name="Path 5849" d="M338.751,753.182a.253.253,0,0,1-.206-.107l-.009-.013a.251.251,0,0,1-.013-.264.849.849,0,0,0-.006-.641l-.537-2.377a.872.872,0,0,0-.059-.2.325.325,0,0,1-.1.017.167.167,0,0,1-.145-.084.263.263,0,0,1-.045-.194.254.254,0,0,1,.1-.167l.682-.469a.25.25,0,0,1,.279,0l2.417,1.6a1.2,1.2,0,0,0,.61.288.216.216,0,0,1,.038,0,.351.351,0,0,1,.264.1.266.266,0,0,1,.044.194.255.255,0,0,1-.1.167l-.885.607a.25.25,0,0,1-.347-.063.274.274,0,0,1-.017-.285c.04-.005-.042-.061-.115-.11l-.567-.39-.8.549.151.594a1.01,1.01,0,0,0,.075.231.379.379,0,0,1,.089-.011.219.219,0,0,1,.2.092.263.263,0,0,1-.06.354l-.793.545A.256.256,0,0,1,338.751,753.182Zm.254-2.766.246-.168-.339-.232Z" fill="#fff"/>
      <path id="Path_5850" data-name="Path 5850" d="M338.557,748.887l2.417,1.6a1.39,1.39,0,0,0,.747.329.649.649,0,0,0,.1-.007l.009.013-.884.608-.009-.013c.146-.24.079-.264-.245-.486l-.651-.448-1.087.746.194.763c.063.256.113.4.283.4a.459.459,0,0,0,.108-.015l.009.013-.794.545-.009-.013a1.179,1.179,0,0,0,0-.9l-.515-2.294c-.04-.17-.078-.372-.251-.372a.283.283,0,0,0-.089.016l-.009-.013.681-.469m.287,1.943.85-.584-1.169-.8.319,1.38m-.287-2.443a.5.5,0,0,0-.283.088l-.681.468a.5.5,0,0,0-.129.7.528.528,0,0,0,.274.2l.514,2.287.021.085c.062.257.083.37.031.463a.5.5,0,0,0,.028.528.524.524,0,0,0,.428.223.48.48,0,0,0,.274-.084l.794-.545a.5.5,0,0,0,.129-.7.533.533,0,0,0-.323-.216l0-.019-.109-.427.517-.354.367.253.042.028a.5.5,0,0,0,.076.331.526.526,0,0,0,.429.224.483.483,0,0,0,.274-.084l.884-.608a.5.5,0,0,0,.127-.7.532.532,0,0,0-.425-.226.383.383,0,0,0-.059,0h-.006a.819.819,0,0,1-.426-.2l-.07-.047-2.418-1.6a.5.5,0,0,0-.276-.083Z" fill="#750000"/>
    </g>
    <g id="Group_6379" data-name="Group 6379">
      <path id="Path_5851" data-name="Path 5851" d="M341.868,751.035a.256.256,0,0,1-.165-.1l-.009-.013a.253.253,0,0,1-.024-.24c.064-.152.037-.208-.145-.452l-1.245-1.676c-.164-.22-.214-.271-.33-.271l-.032,0a.334.334,0,0,1-.255-.105.264.264,0,0,1,.048-.355l.612-.455a.25.25,0,0,1,.35.05l.143.015,2.273.609-.754-1.016c-.166-.223-.214-.273-.326-.273a.2.2,0,0,1-.035,0,.339.339,0,0,1-.257-.1.267.267,0,0,1,.048-.357l.739-.548a.246.246,0,0,1,.149-.049.249.249,0,0,1,.2.1.276.276,0,0,1,.039.261c-.063.146-.036.2.145.444l1.752,2.357a.247.247,0,0,1,.038.226.252.252,0,0,1-.162.162,1.634,1.634,0,0,1-.5.085,2.207,2.207,0,0,1-.613-.106l-2.1-.568.778,1.047c.168.225.217.275.334.275l.032,0a.334.334,0,0,1,.255.105.265.265,0,0,1-.048.355l-.743.553a.255.255,0,0,1-.15.05A.28.28,0,0,1,341.868,751.035Z" fill="#fff"/>
      <path id="Path_5852" data-name="Path 5852" d="M342.653,745.944l.009.013c-.124.288,0,.456.175.691l1.751,2.357a1.343,1.343,0,0,1-.424.074,2,2,0,0,1-.545-.1l-2.8-.757,1.208,1.626c.159.214.273.376.535.376a.766.766,0,0,0,.08-.005l.009.013-.744.552-.009-.012c.126-.3,0-.464-.173-.7l-1.246-1.676c-.159-.214-.276-.372-.531-.372a.582.582,0,0,0-.081.005l-.009-.013.613-.455,0,0a.326.326,0,0,0,.141.058l.121.04,2.98.8-1.183-1.592c-.158-.212-.272-.372-.525-.372-.027,0-.056,0-.087.005l-.009-.012.739-.55m-.009-.495a.482.482,0,0,0-.289.094l-.74.55a.5.5,0,0,0-.1.7.53.53,0,0,0,.413.209.352.352,0,0,0,.056,0c.028.007.092.094.139.157l.336.452-1.592-.427-.093-.032-.038-.011a.507.507,0,0,0-.177-.067.523.523,0,0,0-.088-.008.5.5,0,0,0-.3.1l-.613.456a.5.5,0,0,0-.105.7.532.532,0,0,0,.418.215.433.433,0,0,0,.051,0c.035.01.1.1.153.169l1.246,1.676a1.2,1.2,0,0,1,.128.191.5.5,0,0,0,.378.711.562.562,0,0,0,.082.006.5.5,0,0,0,.3-.093l.743-.553a.5.5,0,0,0,.112-.687.531.531,0,0,0-.425-.227l-.049,0c-.037-.009-.1-.095-.149-.159l-.358-.482,1.407.38a2.423,2.423,0,0,0,.675.115,1.838,1.838,0,0,0,.579-.1.5.5,0,0,0,.247-.774l-1.752-2.357a1.2,1.2,0,0,1-.128-.192.5.5,0,0,0-.048-.5.524.524,0,0,0-.418-.208Z" fill="#750000"/>
    </g>
    <g id="Group_6380" data-name="Group 6380">
      <path id="Path_5853" data-name="Path 5853" d="M344.65,749.131a.25.25,0,0,1-.2-.107l-.009-.013a.249.249,0,0,1-.012-.264.858.858,0,0,0,0-.643l-.521-2.378a.941.941,0,0,0-.059-.2.313.313,0,0,1-.094.017.168.168,0,0,1-.146-.084.263.263,0,0,1-.045-.2.256.256,0,0,1,.1-.167l.685-.464a.258.258,0,0,1,.14-.043.249.249,0,0,1,.139.042l2.407,1.611a1.209,1.209,0,0,0,.611.291l.036,0a.34.34,0,0,1,.266.111.265.265,0,0,1-.06.356l-.888.6a.25.25,0,0,1-.14.043.254.254,0,0,1-.207-.107.276.276,0,0,1-.015-.286c.04-.006-.043-.063-.116-.114l-.563-.391-.806.546.148.593a1.149,1.149,0,0,0,.074.232.373.373,0,0,1,.089-.011.217.217,0,0,1,.193.092.263.263,0,0,1-.06.355l-.8.54A.244.244,0,0,1,344.65,749.131Zm.269-2.763.248-.168-.338-.233Z" fill="#fff"/>
      <path id="Path_5854" data-name="Path 5854" d="M344.48,744.836l2.408,1.611a1.38,1.38,0,0,0,.75.333.729.729,0,0,0,.092-.006l.008.013-.887.6-.009-.012c.147-.24.08-.264-.242-.488l-.648-.452-1.092.74.189.764c.063.257.112.4.283.4a.442.442,0,0,0,.107-.015l.009.013-.8.541-.008-.013a1.179,1.179,0,0,0,0-.9l-.5-2.3c-.039-.171-.075-.373-.249-.373a.3.3,0,0,0-.089.014l-.009-.013.684-.464m.275,1.944.854-.578-1.165-.8.311,1.382m-.275-2.444a.5.5,0,0,0-.281.086l-.684.464a.5.5,0,0,0-.136.69.53.53,0,0,0,.277.21l.5,2.289.021.088c.06.256.08.369.029.461a.5.5,0,0,0,.015.514.516.516,0,0,0,.324.227.6.6,0,0,0,.112.011.493.493,0,0,0,.274-.08l.8-.541a.5.5,0,0,0,.134-.693.531.531,0,0,0-.322-.22l-.005-.019-.106-.428.519-.351.366.255.041.029a.508.508,0,0,0,.077.335.526.526,0,0,0,.428.222.479.479,0,0,0,.271-.082l.888-.6a.5.5,0,0,0,.14-.685.533.533,0,0,0-.435-.242.505.505,0,0,0-.056,0h-.005a.817.817,0,0,1-.426-.2l-.07-.047-2.409-1.611a.494.494,0,0,0-.278-.085Z" fill="#750000"/>
    </g>
    <path id="Path_5855" data-name="Path 5855" d="M333.706,747.846l-.6-.011a51.5,51.5,0,0,1-5.855-.992c.851-.4.274-.237,1.818-.287.74-.023,3.661-.627,3.661-.627l.179.923Z" fill="#7f0003"/>
    <path id="Path_5856" data-name="Path 5856" d="M308.987,748.367a12.793,12.793,0,0,0,3.593-.71,16.037,16.037,0,0,1,3.7-.738,17.374,17.374,0,0,0-1.857-.807c-1.288-.639-4.557-.336-4.557-.336a9.676,9.676,0,0,1-1.214,2.269C308.761,748.157,308.987,748.367,308.987,748.367Z" fill="#7f0003"/>
  </g>
  <path id="Path_5857" data-name="Path 5857" d="M307.077,703.111a16.257,16.257,0,0,0-3.659,3.861,39.149,39.149,0,0,0-4.644,8.077,18.713,18.713,0,0,0-1.709,7.787,46.321,46.321,0,0,0,.422,5.11c0,.631.378.833.53,1.237s.807,2.019.959,2.448a17.712,17.712,0,0,0,2.423,3.634,16.8,16.8,0,0,1,2.953,4.341c.4,1.186.252,2.121.706,2.8a11.985,11.985,0,0,0,1.237,1.464s0,.681.959.53a42.074,42.074,0,0,0,5.326,3.255,17.117,17.117,0,0,1,3.331-.706,14.222,14.222,0,0,1-3.053-2.019c-.642-.563-.608-.915-1.327-.963s-.567.66-.567.66-1.539-.985-2.12-1.464a7.782,7.782,0,0,1-2.423-2.751,4.807,4.807,0,0,1-.757-3.054c.025-.429-.2-.505-.378-.505a.532.532,0,0,0-.429.4c-.429-.5-1.035-1.565-1.894-2.65a30.868,30.868,0,0,1-2.978-4.139,15.005,15.005,0,0,1-1.842-6.259,16.476,16.476,0,0,1,1.11-8.481,26.092,26.092,0,0,1,3.509-6.537C304.3,707.25,307.077,703.111,307.077,703.111Z" transform="translate(-293.553 -695.021)" fill="#8d674b"/>
  <g id="Group_6382" data-name="Group 6382" transform="translate(-293.553 -695.021)">
    <path id="Path_5858" data-name="Path 5858" d="M302.122,735.68a1.157,1.157,0,0,0,0-.766c-.16-.293-.666-.586-.666-.826s-.053-.213.027-.346a.608.608,0,0,1,.4-.293.1.1,0,0,0,.064-.118c-.154-.2-.309-.4-.465-.6-.288-.08-1.207-.244-1.277-.105a.976.976,0,0,1-.266.293,5.572,5.572,0,0,0-.666-1.678,2.676,2.676,0,0,0-.824-.962c.217.546.446,1.123.528,1.355a17.712,17.712,0,0,0,2.423,3.634,16.8,16.8,0,0,1,2.953,4.341,12.3,12.3,0,0,1,.474,2,4.012,4.012,0,0,1,1,.749,21.08,21.08,0,0,0-1.838-4.222A16.049,16.049,0,0,0,302.122,735.68Z" fill="#562b24"/>
    <path id="Path_5859" data-name="Path 5859" d="M297.487,727.946c0,.631.378.833.53,1.237.045.119.134.346.241.615a3.206,3.206,0,0,0-.371-1.224,1.79,1.79,0,0,1-.32-1.545,6.321,6.321,0,0,0-.373-2.371c-.031-.074-.055-.077-.075-.031C297.238,726.078,297.487,727.5,297.487,727.946Z" fill="#562b24"/>
  </g>
  <path id="Path_5860" data-name="Path 5860" d="M342.4,728.289a3.938,3.938,0,0,1-.049-.653c-.014-.339-.257-.792-.151-1.114a.984.984,0,0,1,.652-.5c.143,0,.131.032.226.113a2.185,2.185,0,0,0,.486.392c.26.131.188.119.577-.081a1.723,1.723,0,0,0,1.093-1.392,6.467,6.467,0,0,1,.093-.946c.052-.208-.029-.783.2-.925s.415.2.6.293c.457.231.428-.561.8-.634.245-.047.327.183.539.018.193-.15.662-.991.877-.341.067.2-.049.392-.05.6a.961.961,0,0,0,.155.539.957.957,0,0,1,.169.605c-.024.242-.147.312-.248.521-.06.125-.1.123-.019.241.1.155.165.036.292.107a.525.525,0,0,1,.2.522,2.045,2.045,0,0,1-.6,1.064c-.1.111-.389.285-.2.447.176.148.38-.038.479.272.151.471-.247.92-.571,1.206a4.331,4.331,0,0,1-1.542.676,6.135,6.135,0,0,1-1.705.088,7.048,7.048,0,0,1-1.307-.069A1.216,1.216,0,0,1,342.4,728.289Z" transform="translate(-293.553 -695.021)" fill="#252f13"/>
  <path id="Path_5861" data-name="Path 5861" d="M342.477,728.554a3.507,3.507,0,0,1-.051-.869,2.936,2.936,0,0,1,.265-.708c.179-.33.421-.264.737-.26.459,0,.978-.642,1.224-1.032a15.908,15.908,0,0,0,.731-1.975c.124-.262.17-.541.433-.4.545.3.407.94.387,1.415-.026.6-.118,1.216-.149,1.823-.018.373-.089.538.343.423a.872.872,0,0,1,1.02.256c.174.232.212.486.578.428.221-.035.536-.153.443.215a1.36,1.36,0,0,1-.474.662,3.425,3.425,0,0,1-1.995.784,7.954,7.954,0,0,1-2.479-.5,5.908,5.908,0,0,1-.921-.215Z" transform="translate(-293.553 -695.021)" fill="#001406"/>
  <path id="Path_5862" data-name="Path 5862" d="M336.993,723.9c-.117.23-.123.319-.379.39s-.431.05-.617.237a1.244,1.244,0,0,0-.216,1.214c.167.49.715.627.927,1.048a2.61,2.61,0,0,1,.179,1.355,4.188,4.188,0,0,1-.074,1.46c-.2.41-.76-.177-1.061.267a.488.488,0,0,0,.047.578.747.747,0,0,1,.114.645c-.069.362-.139.637.173.888a4.328,4.328,0,0,0,.776.412c.327.165.282.416.447.67.183.283,1.125.409.945.895-.1.274-.369.1-.593.093-.246-.008-.336.131-.375.38-.041.265.067.281.242.446.152.144.25.344.4.484a1.38,1.38,0,0,0,.4.188c.171.082.174.186.344.3.447.3.8-.594,1.053-.839a2.714,2.714,0,0,0,.681-.972,8.868,8.868,0,0,1,.365-.919c.2-.347.678-.63.79-1.024a3.021,3.021,0,0,0-.027-.92,1.746,1.746,0,0,1,.07-.8,1.841,1.841,0,0,0,.2-.642.713.713,0,0,0-.191-.527c-.173-.137-.435,0-.609-.092-.325-.164-.386-.939-.89-.666-.167.09-.365.427-.59.262s.048-.462.069-.644c.039-.354-.232-.562-.318-.866a.879.879,0,0,1,.059-.516,4.487,4.487,0,0,0,.088-.575c.067-.425.284-.811.32-1.245a.878.878,0,0,0-.28-.6,1.153,1.153,0,0,1-.168-.745c-.008-.167.029-.494-.168-.553s-.237.217-.306.353c-.078.152-.172.431-.377.312a2.051,2.051,0,0,1-.385-.49c-.193-.26-.539-.4-.772-.116C337.094,723.263,337.13,723.627,336.993,723.9Z" transform="translate(-293.553 -695.021)" fill="#1e2418"/>
  <path id="Path_5863" data-name="Path 5863" d="M339.557,733.934a9.525,9.525,0,0,0-.125-1.871,9.788,9.788,0,0,1-1.461-.16c-.107-.054-.036-.179.588-.161a2.246,2.246,0,0,0,.784-.053s-.388-1.855-.552-2.335a2.184,2.184,0,0,1-.145-.767s.091-.551.163-.088a13.3,13.3,0,0,0,.356,1.319c.071.285.125.445.214.16s.321-.481.249-.214a3.36,3.36,0,0,0-.231.873c.018.25.285,1.123.285,1.373.249-.072.392-.054.57-.268s.2-.017.036.179-.481.284-.553.356a12.613,12.613,0,0,0,.054,1.265C339.771,733.916,339.557,733.934,339.557,733.934Z" transform="translate(-293.553 -695.021)" fill="#2f3a19"/>
  <path id="Path_5864" data-name="Path 5864" d="M327.253,746.843l1.411-.8s-.193-1.122.545-1.506,1.314-.385,1.634.384a21.455,21.455,0,0,0,2.917-2.019,5.435,5.435,0,0,0,1.378-2.244c.321-.833.9-1.923.9-1.923a16.367,16.367,0,0,1-.16-1.667.479.479,0,0,1,.545-.416c.288.032.512.128.544.513.545-.642,1.4-1.936,1.924-2.693s2.6-3.045,3.013-3.75a31.546,31.546,0,0,0,1.378-3.654,7.436,7.436,0,0,0,.449-3.206c-.129-.993-.2-2.618-.417-3.974a6.6,6.6,0,0,0-.734-2.048c-.1-.388-.5-.075-.495-.425s.363-.348.235-.829-.734-2.04-1.057-2.934-1.468-3.553-1.59-3.977.671-1.366,1.019-.348,1.516,4.2,1.814,4.747a12.339,12.339,0,0,1,1.143,3.007,3.514,3.514,0,0,0,.572,1.566c.149.248.4.348.422.746a4.334,4.334,0,0,0,.1,1.342c.174.521.609.241.72.869a4.84,4.84,0,0,1,.05,1.119,6.045,6.045,0,0,1,.249,2.808c-.224,1.988-2.063,5.02-3.281,6.785a33.855,33.855,0,0,1-2.162,2.808c-.124.174-.124.77-.572,1.168s-.6.273-.919.8a11.388,11.388,0,0,0-1.466,3.231,12.747,12.747,0,0,0,1.888-2.411c.3-.5.994-1.466,1.144-1.789a9.221,9.221,0,0,1,.546-1.367c.274-.422.572-.1.945-.6s.108-1.594.108-1.594l.588-1.041.646,1.815a26.071,26.071,0,0,1-1.541,2.783c-.3.273-.5.423-.646.6s0,.647-.224.995-.634.956-.851,1.3-.69.814-.889,1.162a10.108,10.108,0,0,1-1.043,1.317c-.473.547-.778.634-.936,1.137a2.18,2.18,0,0,1-.9,1.373,6.937,6.937,0,0,1-1.591,1.044,12.525,12.525,0,0,0-1.392.944A6.917,6.917,0,0,0,331.842,747c-.5.547-.621.547-.621.547A28.949,28.949,0,0,1,327.253,746.843Z" transform="translate(-293.553 -695.021)" fill="#785d46"/>
  <path id="Path_5865" data-name="Path 5865" d="M337.993,725.743s.441.386.655.618a.757.757,0,0,1,.143.855,2.888,2.888,0,0,0-.16,1.123,1.267,1.267,0,0,1-.285,1.1c-.321.25-.107.5-.446.517a2.372,2.372,0,0,1-.675-.077l.1-2.685Z" transform="translate(-293.553 -695.021)" fill="#001406"/>
  <path id="Path_5866" data-name="Path 5866" d="M336.538,729.753c.467.108.548.27.975-.008.254-.165.052-.6.311-.96s-.1-.441-.207-.674.311-.986.441-1.374.052-1.246-.519-1.453-.441.674-1.2.316a.893.893,0,0,1-.43-.975,1.3,1.3,0,0,0-.132,1.111c.167.49.715.627.927,1.048a2.61,2.61,0,0,1,.179,1.355,4.188,4.188,0,0,1-.074,1.46A.261.261,0,0,1,336.538,729.753Z" transform="translate(-293.553 -695.021)" fill="#636c2f"/>
  <g id="Group_6383" data-name="Group 6383" transform="translate(-293.553 -695.021)">
    <path id="Path_5867" data-name="Path 5867" d="M336.394,742.9c-.307,0-.136.239-.2.546s-.274.205-.615.205-.307.205-.478.41a.828.828,0,0,1-.648.341c-.205-.034-.308-.1-.308.171s-.034.409-.239.375a.623.623,0,0,0-.546.273c-.136.171-.273.342-.512.342a1.445,1.445,0,0,0-.58.205c-.171.068-.444.034-.581.307s-.17.375-.375.341-.353-.445-.728-.854a1.161,1.161,0,0,1-1.688.514c-.192-.148-.237-.1-.228-.035.072.115,1.074,1.194,1.074,1.194l-.25.078c.949.151,1.733.235,1.733.235s.124,0,.621-.547a6.917,6.917,0,0,1,1.367-1.019,12.525,12.525,0,0,1,1.392-.944,6.937,6.937,0,0,0,1.591-1.044,2.208,2.208,0,0,0,.792-1.014A2.784,2.784,0,0,0,336.394,742.9Z" fill="#3b2212"/>
    <path id="Path_5868" data-name="Path 5868" d="M339.468,739.636c-.077-.029-.3.264-.343.328-.082.115-.239.171-.444.376s-.478.58-.682.819-.342.205-.615.1-.136-.478.068-.853a2.068,2.068,0,0,0,.145-.341c-.076.082-.155.164-.237.249a11.388,11.388,0,0,1,1.466-3.231,1.415,1.415,0,0,1,.637-.579c-.147,0-.2-.137-.338-.024-.17.137-.068.273-.307.444a5.242,5.242,0,0,0-1.092,1.536c-.205.512-.683,1.6-.854,2.082s-.307,1.127-.409,1.434.17.478.478.546a.218.218,0,0,1,.151.106l0-.009c.158-.5.463-.59.936-1.137a10.108,10.108,0,0,0,1.043-1.317C339.115,740.095,339.409,739.716,339.468,739.636Z" fill="#3b2212"/>
    <path id="Path_5869" data-name="Path 5869" d="M345.511,722.721a4.84,4.84,0,0,0-.05-1.119c-.111-.628-.546-.348-.72-.869a4.334,4.334,0,0,1-.1-1.342c-.025-.4-.273-.5-.422-.746a3.514,3.514,0,0,1-.572-1.566,12.339,12.339,0,0,0-1.143-3.007c-.25-.458-1.11-2.765-1.587-4.1a1.207,1.207,0,0,0-.392-.083,1.164,1.164,0,0,0-.609.436c.387.965,1.1,2.648,1.345,3.325.323.894.929,2.454,1.057,2.934s-.234.48-.235.829.4.037.495.425a8.287,8.287,0,0,1,.648,1.6,3.784,3.784,0,0,1,.849-.03c.273.034.342.2.342.581a2.856,2.856,0,0,0,.2.853,5.566,5.566,0,0,1,.137,1.092c0,.308.41.82.444,1.093a2.716,2.716,0,0,1-.137,1.161,7.781,7.781,0,0,0-.239,1.16,5.005,5.005,0,0,0-.034,1.229,2.61,2.61,0,0,1-.239.922,10.956,10.956,0,0,1-.375,1.127c-.137.273-.717,1.16-1.3.819a.432.432,0,0,0-.438.027,8.875,8.875,0,0,1-.54,1.243,23.345,23.345,0,0,1-1.594,2.006.343.343,0,0,0,.046,0c.717-.034.649.854.615,1.229a2.093,2.093,0,0,1-.649.99c-.171.171-.171.443-.273.751a3.058,3.058,0,0,1-.192.476c.335-.389.349-.893.462-1.051s.755-.843,1.736-2.2c.012.1.022.212.027.331a9.059,9.059,0,0,1,.739-1.055l-.089-.25c1.2-1.795,2.821-4.559,3.03-6.415A6.045,6.045,0,0,0,345.511,722.721Z" fill="#261609"/>
    <path id="Path_5870" data-name="Path 5870" d="M340.938,734.749a3.791,3.791,0,0,0-.367.863,3.319,3.319,0,0,0,.227-.359c.079-.157.283-.463.48-.752A.524.524,0,0,0,340.938,734.749Z" fill="#3b2212"/>
    <path id="Path_5871" data-name="Path 5871" d="M340.013,737.745c-.163-.1-.2-.35-.264-.609-.184.274-.365.546-.487.747,0,.3.205.135.512.2S340.183,737.848,340.013,737.745Z" fill="#3b2212"/>
  </g>
  <path id="Path_5872" data-name="Path 5872" d="M340.091,707.8l-.4-.754-.936-1.565-.829-1.409-1.143-1.366-1.027-1.318-1.018-1.181-.513-.567c-.092.137-.062.343-.1.534a5.652,5.652,0,0,0-.248.833c-.021.342.138.488.294.75a.6.6,0,0,1-.115.775,1.081,1.081,0,0,0-.478.746.743.743,0,0,0,.215.7c.452.332,1.153.284,1.522.768.2.26,0,.47-.228.607-.17.1-.349.207-.524.295a1.215,1.215,0,0,0-.4.232c-.236.261.007.6.3.683a3.412,3.412,0,0,1,.456.19,2.148,2.148,0,0,0,.457.1,1.647,1.647,0,0,1,.643.189c.1.08.139.236.215.333.456.58,1.289.512,1.943.542a.859.859,0,0,1,.509.1c.318.279-.148.49-.253.673-.21.365.494.408.7.451a1.291,1.291,0,0,0,.513.1,1.25,1.25,0,0,0,.351-.186c.167-.1.333-.116.49-.193h0Z" transform="translate(-293.553 -695.021)" fill="#636c2f"/>
  <path id="Path_5873" data-name="Path 5873" d="M334.427,699.867l1.387,1.8a3.639,3.639,0,0,0-1.071.092,1.77,1.77,0,0,1,1.37.442,12.923,12.923,0,0,1,1.089,1.3,7.849,7.849,0,0,1,.545.649,6.987,6.987,0,0,0-1.868,0,4.247,4.247,0,0,1,2.049.415c.4.3.433.66.709,1.043a6.651,6.651,0,0,1,.536.954s-1.115-.052-1.426-.052.259.129.544.155.649.078.83.1.337,0,.441.259.392.93.392.93.593.341-.029-.8-1.219-1.919-1.3-2.2.234-.26.389-.519a1.834,1.834,0,0,0,.078-.934,2.068,2.068,0,0,1,.052-.518,3.438,3.438,0,0,0-.207.881c-.026.415-.156.571-.337.571s-.311-.088-.623-.511-.493-.5-.545-.708a10.036,10.036,0,0,1,.026-1.3s-.1,1.193-.285,1.089-.337-.518-.674-.829-.243-.524-.273-.977,0-.276-.109.143-.215.082-.552-.359A9.971,9.971,0,0,0,334.427,699.867Z" transform="translate(-293.553 -695.021)" fill="#2a3223"/>
  <path id="Path_5874" data-name="Path 5874" d="M340.293,710.817c.172.516.7.718,1.017,1.162.287.4.714.719,1.033,1.117.214.268.786.746.578,1.146-.108.207-.428.23-.536.432a1.846,1.846,0,0,0-.154.765c.01.631.615.723.977,1.094.166.17.187.261.451.347.184.059.445.075.587.223.376.392-.522.616-.141,1.089.246.306.947.349,1.084.75.078.228-.174.339-.225.523a.485.485,0,0,0,.211.528,1.123,1.123,0,0,1,.311,1.137c-.07.238-.683.708-.437,1.039a.578.578,0,0,0,.523.062c.19-.1.178-.367.212-.549a3.79,3.79,0,0,1,.334-.968c.129-.267.3-.526.418-.8a4.6,4.6,0,0,0,.124-.652,5.291,5.291,0,0,1,.659-1.15,2.153,2.153,0,0,0,.285-1.26c-.17-.626-.86.055-.945-.349-.058-.276.291-.606.428-.82a1.746,1.746,0,0,0,.313-.894,2.871,2.871,0,0,0-.117-1.23c-.087-.2-.131-.394-.38-.385s-.271.217-.354.417c-.116.28-.335.859-.743.777-.339-.068-.111-.542-.023-.724a2.737,2.737,0,0,0,.4-1.086c.011-.215.029-.4.05-.608.059-.6-.377-1.048-.423-1.61-.016-.2-.111-1.383-.522-.9-.107.125-.047.443-.272.5-.264.071-.291-.23-.274-.413a5.276,5.276,0,0,0,.124-1.253,1.561,1.561,0,0,0-.256-.546c-.154-.236-.367-.442-.512-.7-.125-.224-.16-.439-.443-.289-.175.092-.313.291-.575.143-.2-.111-.178-.4-.177-.6,0-.58-.194-.656-.671-.876-.192-.089-.724-.688-.971-.547-.306.174.1.866-.017,1.156-.073.184-.244.215-.385.311a1.254,1.254,0,0,0-.349.454,3.184,3.184,0,0,0-.775,1.809A9.45,9.45,0,0,0,340.293,710.817Z" transform="translate(-293.553 -695.021)" fill="#414d28"/>
  <path id="Path_5875" data-name="Path 5875" d="M344.334,708.763s.149.845-.415,1.167c-.684.392-.052,1.064.259,1.608a8.738,8.738,0,0,1,.545,1.193,1.658,1.658,0,0,0,.674-1.348C345.346,710.293,344.646,710.319,344.334,708.763Z" transform="translate(-293.553 -695.021)" fill="#252f13"/>
  <path id="Path_5876" data-name="Path 5876" d="M345.994,717.607s.862-.97,1.066-1,.334-.012.023.481a8.186,8.186,0,0,0-.648,1.53,2.195,2.195,0,0,1-.441.7A7.58,7.58,0,0,0,345.994,717.607Z" transform="translate(-293.553 -695.021)" fill="#252f13"/>
  <path id="Path_5877" data-name="Path 5877" d="M345.527,716.077a11.346,11.346,0,0,0,1.193-1.712c-.026.752-.078.856-.908,2.127A.62.62,0,0,0,345.527,716.077Z" transform="translate(-293.553 -695.021)" fill="#252f13"/>
  <path id="Path_5878" data-name="Path 5878" d="M341.422,705.011a5.032,5.032,0,0,0,.6,1.859,3.671,3.671,0,0,1,.778,2.256c-.856-.674-1.271-1.3-1.608-1.4s.251-.315-.052-.882c-.206-.386-.05-.418.156-.471C341.622,706.289,341.287,705.688,341.422,705.011Z" transform="translate(-293.553 -695.021)" fill="#252f13"/>
  <path id="Path_5879" data-name="Path 5879" d="M344.749,713.691a5.7,5.7,0,0,1-1.556-.7l-.078-.6a4.54,4.54,0,0,0,1.427.649,17.914,17.914,0,0,1-1.271-2.672c-.415-.8-1.085-.8-1.478-1.089a5.44,5.44,0,0,1-1.026-1.247c.25,1.493-.867.184-.867.184l-.13.7a11.315,11.315,0,0,0,.523,1.9c.172.516.7.718,1.017,1.162.287.4.714.719,1.033,1.117.214.268.786.746.578,1.146-.107.205-.418.23-.53.425.306.18.755.444,1.062.632a3.974,3.974,0,0,1,1.3,1.167c.182.363.2.4-.441.13-1.116-.477-.143-.163-.336.363a.608.608,0,0,1,.274.144c.376.392-.522.616-.141,1.089.246.306.947.349,1.084.75.078.228-.174.339-.225.523a.485.485,0,0,0,.211.528,1.123,1.123,0,0,1,.356.818l.046.022A13.982,13.982,0,0,0,344.749,713.691Z" transform="translate(-293.553 -695.021)" fill="#252f13"/>
  <path id="Path_5880" data-name="Path 5880" d="M293.769,723.823c-.366.129-.133,1.193-.133,1.69a10.487,10.487,0,0,0,.332,4.241,14.656,14.656,0,0,0,1.922,4.142,48.409,48.409,0,0,0,3.28,4.208c.431.4.886.9,1.309,1.243s.845.745,1.093.919a2.248,2.248,0,0,0,.845.249c.149.025.3-.5-.174-.621s-.7-.224-1.093-.92-.82-1.69-1.193-2.386a6.273,6.273,0,0,1-.646-2.51,20.42,20.42,0,0,0-1.715-4.523,16.9,16.9,0,0,0-1.69-3.082c-.323-.546-1.069-1.69-1.317-2.112S294.166,723.682,293.769,723.823Z" transform="translate(-293.553 -695.021)" fill="#1e2418"/>
  <path id="Path_5881" data-name="Path 5881" d="M299.535,705.1c-.429-.178-1.243.994-1.914,1.963a22.748,22.748,0,0,0-2.634,6.089,22.02,22.02,0,0,0-.3,6.933,5.923,5.923,0,0,0,1.318,3.7c.77.845,1.118-.372.646-.323s-.6-.049-.622-.671a17.923,17.923,0,0,1,.945-4.1c.571-1.815,1.217-4.349,1.913-7.357S300.255,705.4,299.535,705.1Z" transform="translate(-293.553 -695.021)" fill="#576941"/>
  <path id="Path_5882" data-name="Path 5882" d="M306.394,698.888c-.385-.2-1.218.546-2.709,2.236a29.431,29.431,0,0,0-3.554,6.238c-.677,1.44-1.342,3.529-1.715,4.424s-1.068,3.33-.721,2.883,1.069-1.765,1.566-2.61,2.113-2.883,2.958-4.076a44.968,44.968,0,0,0,2.957-4.945C305.9,701.572,306.916,699.161,306.394,698.888Z" transform="translate(-293.553 -695.021)" fill="#7c6d3a"/>
  <path id="Path_5883" data-name="Path 5883" d="M317.163,695.094c-.162-.2-.961.066-1.325.2s-.862.5-1.492.729a10.89,10.89,0,0,0-3.214,1.757,26.876,26.876,0,0,0-3.38,3.214,32.188,32.188,0,0,0-2.945,3.27c-.136.242-.109.621.593.176s5.434-3.711,6.859-4.573,3.214-1.657,4.076-2.85S317.428,695.425,317.163,695.094Z" transform="translate(-293.553 -695.021)" fill="#3b4220"/>
  <path id="Path_5884" data-name="Path 5884" d="M305.356,700.405a55.075,55.075,0,0,0-3.632,5.386,53.785,53.785,0,0,0-3.207,6.137l-.075.5s1.854-3.832,3.132-5.912S305.356,700.405,305.356,700.405Z" transform="translate(-293.553 -695.021)" fill="#49450d"/>
  <path id="Path_5885" data-name="Path 5885" d="M302.243,739.894c-.472-.125-.7-.224-1.093-.92s-.82-1.69-1.193-2.386a6.273,6.273,0,0,1-.646-2.51,20.42,20.42,0,0,0-1.715-4.523,16.9,16.9,0,0,0-1.69-3.082c-.323-.546-1.069-1.69-1.317-2.112s-.423-.679-.82-.538c-.366.129-.133,1.193-.133,1.69a10.487,10.487,0,0,0,.332,4.241,14.656,14.656,0,0,0,1.922,4.142c.133.231.554.807,1.053,1.463h0a7.46,7.46,0,0,0,1.573,1.444,1.367,1.367,0,0,0-.225-.376,9.241,9.241,0,0,1-.551-.852l-.326-.351h.2s-1.538-3.3-2.155-5.135a53.5,53.5,0,0,1-1.629-6.076,71.29,71.29,0,0,0,3.005,8.871,30.53,30.53,0,0,0,3.534,5.973c.827.977,1.453,1.252,1.61,1.575.18.046.354.068.436.082C302.566,740.54,302.716,740.018,302.243,739.894Z" transform="translate(-293.553 -695.021)" fill="#495137"/>
  <path id="Path_5886" data-name="Path 5886" d="M315.711,697.691a20.141,20.141,0,0,0-5.871,2.789c-2.831,2-3.332,2.33-3.332,2.33s1.453-1.227,1.9-1.753a11.644,11.644,0,0,1,2.054-1.8c.577-.351,2.43-1.528,2.43-1.528s-2.079,1.077-2.48,1.352a10.3,10.3,0,0,0-1.653,1.278,1.118,1.118,0,0,1-.259.205,15.75,15.75,0,0,1,5.39-4.282,5.631,5.631,0,0,0,1.645-.848,9.47,9.47,0,0,1-1.193.591,10.89,10.89,0,0,0-3.214,1.757,26.876,26.876,0,0,0-3.38,3.214,32.188,32.188,0,0,0-2.945,3.27c-.136.242-.109.621.593.176s5.434-3.711,6.859-4.573A24,24,0,0,0,315.711,697.691Z" transform="translate(-293.553 -695.021)" fill="#1e2418"/>
  <path id="Path_5887" data-name="Path 5887" d="M317.958,697.579c.018-.326-2.253-.2-6.3,2.054a16.762,16.762,0,0,0-5.8,5.3c-.331.3,2.187-.961,4.275-1.756a29.468,29.468,0,0,0,5.169-2.85C316.7,699.468,317.925,698.175,317.958,697.579Z" transform="translate(-293.553 -695.021)" fill="#7c6d3a"/>
  <path id="Path_5888" data-name="Path 5888" d="M315.543,698.493a58.76,58.76,0,0,1-7.967,5.048C310.1,702.662,314.91,699.767,315.543,698.493Z" transform="translate(-293.553 -695.021)" fill="#49450d"/>
  <path id="Path_5889" data-name="Path 5889" d="M308.514,701.986c-.489-.131-1.922,1.226-2.882,2.651s-2.287,3.214-2.684,3.843a6.037,6.037,0,0,0-1.193,2.453c0,.762-1.028,1.325-.7,3.446s4.042-4.507,5.567-6.263a9.224,9.224,0,0,0,2.154-4.44C308.945,702.748,309.011,702.118,308.514,701.986Z" transform="translate(-293.553 -695.021)" fill="#495137"/>
  <path id="Path_5890" data-name="Path 5890" d="M296.652,723.466c-.473.05-.6-.049-.622-.671a17.923,17.923,0,0,1,.945-4.1c.571-1.815,1.217-4.349,1.913-7.357.663-2.863,1.3-5.658.739-6.175-.956,1.465-4.132,7.044-4.3,16.8,0,.271-.007.528-.009.778a4.34,4.34,0,0,0,.689,1.044C296.776,724.634,297.124,723.417,296.652,723.466Z" transform="translate(-293.553 -695.021)" fill="#3b4220"/>
  <path id="Path_5891" data-name="Path 5891" d="M296.438,709.225a24.185,24.185,0,0,0-1.451,3.928,22.02,22.02,0,0,0-.3,6.933,5.923,5.923,0,0,0,1.318,3.7,1.2,1.2,0,0,0,.219.2h0c.062-.394-.338-.608-.438-.783s-.38-.272-.251-.7-.1-.576-.1-1.153a50.189,50.189,0,0,1,.827-7.54,35.3,35.3,0,0,0-1,6.764c0,.6-.076.977-.126.827a7,7,0,0,1-.175-1.529c0-.651-.133-1.5-.133-1.829a14.753,14.753,0,0,1,.356-4.963A28.332,28.332,0,0,1,296.438,709.225Z" transform="translate(-293.553 -695.021)" fill="#1e2418"/>
  <path id="Path_5892" data-name="Path 5892" d="M303.231,708.058c-.117.169-.215.314-.283.422a6.037,6.037,0,0,0-1.193,2.453c0,.762-1.028,1.325-.7,3.446v0a.856.856,0,0,0,.463-.361c.525-.7,3.627-5.428,3.727-5.528s.5-.8.05-.525-.275,0-.05-.425a26.3,26.3,0,0,0,2.026-3.8s-.575,1.051-2.151,3.3-1.851,2.477-2.326,3.152-.43-.491-.036-1A3.326,3.326,0,0,0,303.231,708.058Z" transform="translate(-293.553 -695.021)" fill="#1e2418"/>
  <path id="Path_5893" data-name="Path 5893" d="M298.329,722.184c-.211.5-.205.753-.376.958s-.172.411.034.514.274-.1.445-.582a7.026,7.026,0,0,1,1.163-1.882c.445-.479,1.882-2.6,2.875-3.969a18.887,18.887,0,0,0,2.5-4.766c.563-1.657,1.127-3.745.6-4.208s-2.883,3.015-3.844,4.506a20.177,20.177,0,0,0-2.278,4.579C298.938,718.885,298.808,721.052,298.329,722.184Z" transform="translate(-293.553 -695.021)" fill="#576941"/>
  <path id="Path_5894" data-name="Path 5894" d="M304.516,712.064c-.268-.2.575-2.282.575-2.282s-1.317,2.321-1.763,2.113c-.351-.163.864-1.874.864-1.874s-1.524,2.126-1.723,2.069c-.149-.042.2-.68.522-1.217-.5.7-.957,1.4-1.27,1.882a20.177,20.177,0,0,0-2.278,4.579c-.505,1.551-.635,3.718-1.114,4.85-.211.5-.205.753-.376.958s-.172.411.034.514.274-.1.445-.582a7.026,7.026,0,0,1,1.163-1.882c.445-.479,1.882-2.6,2.875-3.969a18.887,18.887,0,0,0,2.5-4.766c.17-.5.34-1.04.48-1.563C305.115,711.486,304.675,712.183,304.516,712.064Z" transform="translate(-293.553 -695.021)" fill="#3b4220"/>
  <path id="Path_5895" data-name="Path 5895" d="M305.545,710.517a16.519,16.519,0,0,0-1.316,3.315,9.318,9.318,0,0,1-2.18,3.532,10.039,10.039,0,0,0,.551-1.578,5.973,5.973,0,0,1-.926,1.754,10.475,10.475,0,0,0-1.123,2.389c.6-.838,1.335-1.9,1.919-2.706a18.887,18.887,0,0,0,2.5-4.766c.211-.622.423-1.3.577-1.94Z" transform="translate(-293.553 -695.021)" fill="#1e2418"/>
  <path id="Path_5896" data-name="Path 5896" d="M305.773,723.441c-.423.027-2.039,1.119-4.027,4.7a13.726,13.726,0,0,0-1.988,7.157,2.061,2.061,0,0,0,.621,1.193c.224.149.4.025.249-.323a1.447,1.447,0,0,1-.025-1.243c.224-.4.945-1.789,1.268-2.286s1.863-3.032,2.559-4.2a11.227,11.227,0,0,0,1.372-2.678C306.113,724.754,306.2,723.415,305.773,723.441Z" transform="translate(-293.553 -695.021)" fill="#1e2418"/>
  <path id="Path_5897" data-name="Path 5897" d="M301.871,732.637c.045-.071.116-.183.2-.326a3.416,3.416,0,0,1-.365-1.315c-.606.458-1.119,2.419-1.555,3.9.547-3.025,1.156-4.049,1.518-4.4-.01-.248-.009-.487,0-.7a4.581,4.581,0,0,0-1.2,1.21,11.026,11.026,0,0,0-.712,4.282,2.061,2.061,0,0,0,.621,1.193c.224.149.4.025.249-.323a1.447,1.447,0,0,1-.025-1.243C300.827,734.526,301.548,733.134,301.871,732.637Z" transform="translate(-293.553 -695.021)" fill="#495137"/>
  <path id="Path_5898" data-name="Path 5898" d="M307.015,725.753c-.223-.248-1.068.621-2.162,2.684s-1.442,6.958-1.317,7.53,1.367-2.386,2.063-3.529a11.171,11.171,0,0,0,1.267-3.976C307.09,727.07,307.239,726,307.015,725.753Z" transform="translate(-293.553 -695.021)" fill="#1e2418"/>
  <path id="Path_5899" data-name="Path 5899" d="M305.673,728.66a7.484,7.484,0,0,1,1.437-2.636.521.521,0,0,0-.095-.271c-.223-.248-1.068.621-2.162,2.684s-1.442,6.958-1.317,7.53c.109.5,1.084-1.726,1.791-3.047C305.62,731.039,305.233,730.156,305.673,728.66Z" transform="translate(-293.553 -695.021)" fill="#3b4220"/>
  <path id="Path_5900" data-name="Path 5900" d="M303.983,722.348c-.318.056-.92,1.74-1.143,3.082a56.553,56.553,0,0,0-.4,6.759c.075.87.348,4.026.5,4.6a13.486,13.486,0,0,1,.522,2.013c0,.423.05.795-.174.87s-.025.323.224.273.348-.223.373-.621.124-.87.2-1.466a18.175,18.175,0,0,1,.5-2.734,16.194,16.194,0,0,0,.547-2.659,25.7,25.7,0,0,0,.224-5.816C305.126,723.441,304.406,722.273,303.983,722.348Z" transform="translate(-293.553 -695.021)" fill="#1e2418"/>
  <path id="Path_5901" data-name="Path 5901" d="M305.35,726.647c-.224-3.206-.944-4.374-1.367-4.3-.318.056-.92,1.74-1.143,3.082a56.553,56.553,0,0,0-.4,6.759c.056.656.225,2.609.369,3.777h0c.236.34.641,1.013.591.562a38.9,38.9,0,0,1,.1-3.933c.1-1.252.326-5.311.326-5.311.025,1.478-.025,3.959-.1,6.99a10.4,10.4,0,0,0,.354,3.584v0a18.175,18.175,0,0,1,.5-2.734,16.194,16.194,0,0,0,.547-2.659A25.7,25.7,0,0,0,305.35,726.647Z" transform="translate(-293.553 -695.021)" fill="#495137"/>
  <path id="Path_5902" data-name="Path 5902" d="M314.979,754.141c.442-.369.992-.606,1.248-.51s.064.417-.32.512a2.323,2.323,0,0,0-1.119.64,2.412,2.412,0,0,1-.56.544c-.176.112-.364-.042-.127-.276S314.642,754.423,314.979,754.141Z" transform="translate(-293.553 -695.021)" fill="#b39259"/>
  <path id="Path_5903" data-name="Path 5903" d="M313.428,755.759c-.16.128-.368.3-.24.384s.224.016.32-.112.2-.205.131-.275S313.428,755.759,313.428,755.759Z" transform="translate(-293.553 -695.021)" fill="#562b24"/>
  <path id="Path_5904" data-name="Path 5904" d="M328.982,753.927c-.12-.075-.331.066-.165.232a16.9,16.9,0,0,0,1.723,1.358c.464.282.587.386.8.353s.584-.067.435-.232a4.7,4.7,0,0,0-.992-.521C330.238,754.835,329.247,754.092,328.982,753.927Z" transform="translate(-293.553 -695.021)" fill="#b39259"/>
  <path id="Path_5905" data-name="Path 5905" d="M339.682,738.03c.314.067.533-.08.293-.373a.928.928,0,0,1-.266-.879c.036-.488-.04-.524-.235-.531-.307-.01-.207.3-.184.459.047.325.1.232.046.579S339.176,737.924,339.682,738.03Z" transform="translate(-293.553 -695.021)" fill="#1e2418"/>
  <path id="Path_5906" data-name="Path 5906" d="M335.926,741.254c-.233.346-.506.4-.746.8a.88.88,0,0,0-.027,1.039c.214.293.507.106.56-.346s.266-.586.4-.853.239-.426.159-.639S336.054,741.065,335.926,741.254Z" transform="translate(-293.553 -695.021)" fill="#b39259"/>
  <path id="Path_5907" data-name="Path 5907" d="M313.949,747.008a9.224,9.224,0,0,1-1.438-.746c0-.106.612-.426.612-.426l-.772-.426s0,.319-.4.319a1.24,1.24,0,0,1-1.012-.479c-.426-.293-1.732-1.359-2.131-1.652s-1.226-.825-1.226-.825-.213.319-.346.319-.24.027,0,.24,1.518,1.012,1.732,1.2.053.346-.213.213-1.306-.773-1.306-.773,1.013.933,1.412,1.2,2.851,1.705,3.17,1.891a7.586,7.586,0,0,0,.879.4A10.422,10.422,0,0,1,313.949,747.008Z" transform="translate(-293.553 -695.021)" fill="#74563f"/>
  <path id="Path_5908" data-name="Path 5908" d="M338.59,736.22a12.607,12.607,0,0,0-1.731,3.117c-.107.8.213.426.293,0a6.416,6.416,0,0,1,.746-1.625c.213-.32.666-1.066.8-1.306S338.788,735.934,338.59,736.22Z" transform="translate(-293.553 -695.021)" fill="#b39259"/>
  <path id="Path_5909" data-name="Path 5909" d="M340.082,734.222c-.084.261-.053.559.133.266s.267-.586.4-.8-.027-.346-.16-.16A3.143,3.143,0,0,0,340.082,734.222Z" transform="translate(-293.553 -695.021)" fill="#b39259"/>
  <path id="Path_5910" data-name="Path 5910" d="M313.395,757.742c-.063.228-.27.339-.91.293a2.963,2.963,0,0,1-1.7-.895c-.287-.338-.272-.419-.756-.47s-.353-.221-.243-.316a.827.827,0,0,1,.793-.1,2.708,2.708,0,0,0,.947.235C311.993,756.53,313.637,756.868,313.395,757.742Z" transform="translate(-293.553 -695.021)" fill="#b39259"/>
  <path id="Path_5911" data-name="Path 5911" d="M333.005,755.8c.176.178.118.464-.254.663s-.748.129-1.031.405a3.128,3.128,0,0,1-1.007.754c-.47.185-1.092.129-1.186-.029a.584.584,0,0,1,.24-.689,4.493,4.493,0,0,1,.827-.547c.31-.111.65-.136,1.047-.272s.446-.409.694-.459A.658.658,0,0,1,333.005,755.8Z" transform="translate(-293.553 -695.021)" fill="#b39259"/>
  <path id="Path_5912" data-name="Path 5912" d="M344.218,725.567a15.936,15.936,0,0,1-.579,2.147c-.193.434.145.506.314.1a14,14,0,0,0,.506-2.1C344.507,725.326,344.292,725.147,344.218,725.567Z" transform="translate(-293.553 -695.021)" fill="#b39259"/>
  <path id="Path_5913" data-name="Path 5913" d="M343.756,722.687c-.055.023-.11.018-.106.063.011.145.062.678.109.936.039.215-.074.566.215.542s.439-.117.487-.286-.113-.289-.282-.579a3.539,3.539,0,0,1-.3-.753C343.865,722.57,343.816,722.661,343.756,722.687Z" transform="translate(-293.553 -695.021)" fill="#3b2212"/>
  <path id="Path_5914" data-name="Path 5914" d="M312.271,744.753a.978.978,0,0,1-1.159.07c-.023.162-.032.692.474.763C312.076,745.654,312.433,745.422,312.271,744.753Z" transform="translate(-293.553 -695.021)" fill="#3b2212"/>
  <g id="Group_6384" data-name="Group 6384" transform="translate(-293.553 -695.021)">
    <path id="Path_5915" data-name="Path 5915" d="M331.351,746.1a.415.415,0,0,1-.218-.068,1.713,1.713,0,0,1-.507-.67.148.148,0,0,1,.111-.177.15.15,0,0,1,.18.109,1.666,1.666,0,0,0,.369.483c.07.042.092.045.234-.116a.931.931,0,0,1,.22-.2.617.617,0,0,1,.267-.077.4.4,0,0,0,.129-.027h0a.18.18,0,0,1,.026-.039.4.4,0,0,1,.141-.134.619.619,0,0,1,.332-.037.415.415,0,0,0,.2-.012,1.38,1.38,0,0,0,.275-.261,1.232,1.232,0,0,1,.554-.429.275.275,0,0,0,.007-.059.15.15,0,0,1,.3,0,.654.654,0,0,1-.016.134.484.484,0,0,0-.011.076.15.15,0,0,1-.055.112.148.148,0,0,1-.121.031c-.113-.021-.3.187-.435.339a1.482,1.482,0,0,1-.358.325.641.641,0,0,1-.359.045.433.433,0,0,0-.178.007l-.034.046a.37.37,0,0,1-.142.132.69.69,0,0,1-.219.052.333.333,0,0,0-.147.037.666.666,0,0,0-.148.142.562.562,0,0,1-.393.242Z" fill="#8e744c"/>
  </g>
  <g id="Group_6385" data-name="Group 6385" transform="translate(-293.553 -695.021)">
    <path id="Path_5916" data-name="Path 5916" d="M334.471,744.261a.411.411,0,0,1-.329-.148.323.323,0,0,1-.019-.353.149.149,0,1,1,.266.135c-.009.018-.013.034-.01.038a.152.152,0,0,0,.129.026.106.106,0,0,0,.09-.077c.024-.094-.025-.147-.2-.269a.667.667,0,0,1-.284-.314.149.149,0,0,1,.035-.149.15.15,0,0,1,.148-.039,1.147,1.147,0,0,1,.347.191.976.976,0,0,0,.275.157.362.362,0,0,0,.256-.054.979.979,0,0,1,.308-.1c.281-.029.308-.038.356-.253q.012-.055.021-.1c.056-.287.125-.42.543-.408a.15.15,0,0,1,.145.154.146.146,0,0,1-.154.145c-.207-.007-.208-.007-.242.167-.006.033-.013.069-.022.109-.089.4-.292.451-.616.484a.745.745,0,0,0-.218.072.669.669,0,0,1-.4.081.435.435,0,0,1-.008.2.406.406,0,0,1-.321.3.519.519,0,0,1-.1.009Z" fill="#8e744c"/>
  </g>
  <path id="Path_5917" data-name="Path 5917" d="M335.931,737.247s.105.444.772.185a5.283,5.283,0,0,0-.555,1.134C336.084,738.8,336,737.924,335.931,737.247Z" transform="translate(-293.553 -695.021)" fill="#3b2212"/>
  <path id="Path_5918" data-name="Path 5918" d="M336.965,737.163l.881-1.216S337.505,737.391,336.965,737.163Z" transform="translate(-293.553 -695.021)" fill="#3b2212"/>
  <path id="Path_5919" data-name="Path 5919" d="M302.47,740.691a5.816,5.816,0,0,0,1.666,1.88,8.017,8.017,0,0,0,2.394,1.344.594.594,0,0,0,.708-.367.656.656,0,0,0-.119-.673,2.454,2.454,0,0,0-.754-.348,3.2,3.2,0,0,1,.6.429.456.456,0,0,1,.08.5.417.417,0,0,1-.45.178,8.263,8.263,0,0,1-2.224-1.19,5.911,5.911,0,0,1-1.566-1.547,1.882,1.882,0,0,1-.218-.3C302.563,740.541,302.411,740.563,302.47,740.691Z" transform="translate(-293.553 -695.021)" fill="#4c2619"/>
  <path id="Path_5920" data-name="Path 5920" d="M306.3,743.9s.034.642.957.5a40.468,40.468,0,0,0,5.326,3.255l.321-.1a32.264,32.264,0,0,1-3.36-1.88c-1.454-.97-2.19-1.485-2.19-1.485S306.507,744.42,306.3,743.9Z" transform="translate(-293.553 -695.021)" fill="#4c2619"/>
  <path id="Path_5921" data-name="Path 5921" d="M300.291,712.4c-.222,0-.487.883-.556,1.111a6.132,6.132,0,0,1-.591,1.124,8.6,8.6,0,0,0-.518,1.349,6.2,6.2,0,0,0-.391,1.184c-.215-.057-.334-.389-.567-.481-.074.293.222.521.274.793a2.113,2.113,0,0,1-.12.876c-.122.5-.2,1.005-.295,1.516-.064.337-.023.683-.076,1.026-.094.611-.059,1.264-.2,1.867a3.028,3.028,0,0,0-.214.918,2.088,2.088,0,0,0,.235.634.623.623,0,0,0,.569.357.522.522,0,0,0,.016-.727.993.993,0,0,1-.272-.78c.025-.716.105-1.516.2-2.232s.151-1.441.287-2.146a4.688,4.688,0,0,1,.237-.879c.077-.184.237-.3.277-.534.025-.154-.006-.317.022-.471a7.082,7.082,0,0,1,.507-1.629,4.524,4.524,0,0,0,.248-.431c.055-.159.021-.355.091-.508.084-.187.224-.2.358-.314.242-.212.219-.29.26-.584s.031-.833.222-1.039" transform="translate(-293.553 -695.021)" fill="#a18551"/>
  <path id="Path_5922" data-name="Path 5922" d="M301.088,734.791a5.861,5.861,0,0,0,1.167,4.757c-.092-.617-.632-1.2-.9-2.207a6.45,6.45,0,0,1-.149-2.47Z" transform="translate(-293.553 -695.021)" fill="#4c2619"/>
  <path id="Path_5923" data-name="Path 5923" d="M302.3,708.581a37,37,0,0,0-2.715,4.687,7.531,7.531,0,0,0,1.243-1.955c.092-.171.724-1.283.856-1.44s.347-.706.465-.811S302.3,708.581,302.3,708.581Z" transform="translate(-293.553 -695.021)" fill="#4c2619"/>
  <path id="Path_5924" data-name="Path 5924" d="M299.144,714.217s-.674,1.569-1.1,2.721c.154-.141.386-.244.4-.481s.314-.626.327-.9a3.528,3.528,0,0,1,.374-.922A1.475,1.475,0,0,0,299.144,714.217Z" transform="translate(-293.553 -695.021)" fill="#4c2619"/>
  <path id="Path_5925" data-name="Path 5925" d="M297.636,718.287a15.394,15.394,0,0,0-.551,4.074,2.1,2.1,0,0,0,.312-1.4,4.879,4.879,0,0,1,.069-1.323,1.865,1.865,0,0,1,.2-.77A1.1,1.1,0,0,0,297.636,718.287Z" transform="translate(-293.553 -695.021)" fill="#4c2619"/>
  <path id="Path_5926" data-name="Path 5926" d="M339.8,708.046a1.1,1.1,0,0,0,1.028.773,4.11,4.11,0,0,1,.83,1.477c.042.254-.72.338-.572.614s.424.4.572.551.848.36,1.1.657a1.213,1.213,0,0,1,.339.953,5.338,5.338,0,0,0,.042.911c.021.212-.148.127-.381-.042s-.148.064-.572-.466-1.413-1.012-1.683-1.508.056-.909.051-1.366c0-.392-.3-.611-.534-.822s-.17-.477-.229-.705A1.875,1.875,0,0,1,339.8,708.046Z" transform="translate(-293.553 -695.021)" fill="#001406"/>
  <path id="Path_5927" data-name="Path 5927" d="M336.4,708.216a.686.686,0,0,1-.019.4,1.813,1.813,0,0,0-.129.447c-.043.293-.235.493-.248.779-.012.26.242.517.166.763-.043.143-.2.153-.311.2a.639.639,0,0,0-.332.349.682.682,0,0,0,.045.495c.055.122.079.279.134.413a1.031,1.031,0,0,0,.235.363c.1.1.308.169.382.294a.326.326,0,0,1-.128.431c-.134.094-.289.032-.431.116-.33.2-.162.663-.084.945a2.036,2.036,0,0,0,.527.7,1.546,1.546,0,0,0,.593.311,5.632,5.632,0,0,0,.629.256c.25.071.509.134.761.2a.893.893,0,0,1,.407.252c.308.252.534.6.844.853a9.477,9.477,0,0,1,.738.633.9.9,0,0,1,.212.382,5.157,5.157,0,0,0,.377,1.173c.038.057.073.121.1.18a2.165,2.165,0,0,0,.3.366,1.235,1.235,0,0,1,.244.432,4.37,4.37,0,0,0,.711,1.274,2.5,2.5,0,0,0,.593.564,2.294,2.294,0,0,1,.617.666c.074.117.142.294.314.263.384-.068.42-.769.495-1.048.143-.53.079-1.606-.755-1.282-.258.1-.563.433-.828.129-.223-.255.05-.867.136-1.144a1.992,1.992,0,0,1,.237-.576.917.917,0,0,0,.207-.438c.028-.3-.068-.571-.411-.559-.294.01-.514.492-.8.4s-.2-.5-.2-.727a6.018,6.018,0,0,1,.25-1.193c.058-.306.221-.692-.039-.926a.993.993,0,0,0-.293-.222c-.129-.047-.287-.034-.385-.1-.285-.187-.016-.566.218-.629a1.671,1.671,0,0,0,.754-.61.488.488,0,0,0,.125-.418,3.623,3.623,0,0,1-.017-.912c.076-.28.328-.49.237-.819s-.466-.276-.75-.274c-.686.007-.985.669-1.416,1.091a.59.59,0,0,1-.791.02c-.213-.252.032-.559.2-.754a1.5,1.5,0,0,1,.427-.343c.516-.315.4-1.079.12-1.505-.052-.079-.07-.074-.1-.166-.017-.057-.016-.124-.032-.182a1.834,1.834,0,0,0-.13-.431c-.129-.228-.477-.507-.612-.124a3.113,3.113,0,0,1-.265.857c-.125.183-.48.586-.614.179-.1-.3.116-.629.08-.942-.04-.334-.23-.436-.514-.5a.946.946,0,0,1-.369-.177c-.291-.235-.472-.552-.871-.627C336.619,707.7,336.362,707.859,336.4,708.216Z" transform="translate(-293.553 -695.021)" fill="#414d28"/>
  <path id="Path_5928" data-name="Path 5928" d="M340.99,714.236c.081-.542-.434-.488-.542-.217s-.189.271-.406.162-.3-.514-.433-1.164-.3-1.11-.785-1.3a2.572,2.572,0,0,1-1.218-1.381c-.028-.352.162-1.408-.217-1.624a2.925,2.925,0,0,1-.732-.941.382.382,0,0,0-.26.444.686.686,0,0,1-.019.4,1.813,1.813,0,0,0-.129.447c-.043.293-.235.493-.248.779-.012.26.242.517.166.763-.043.143-.2.153-.311.2a.639.639,0,0,0-.332.349.682.682,0,0,0,.045.495c.055.122.079.279.134.413a1.031,1.031,0,0,0,.235.363c.1.1.308.169.382.294a.326.326,0,0,1-.128.431c-.134.094-.289.032-.431.116-.33.2-.162.663-.084.945a2.036,2.036,0,0,0,.527.7,1.546,1.546,0,0,0,.593.311,5.632,5.632,0,0,0,.629.256c.25.071.509.134.761.2a.893.893,0,0,1,.407.252c.308.252.534.6.844.853a9.477,9.477,0,0,1,.738.633.9.9,0,0,1,.212.382,2.5,2.5,0,0,1,.079.274A.2.2,0,0,0,340.5,718c.19-.677-.108-.623-.135-.894a10.342,10.342,0,0,0-.866-1.6.641.641,0,0,0-.352-.3c-.271-.108-.569-.216-.569-.216a1.212,1.212,0,0,1,.569-.027c-.3-.515-.731-1.6-.839-1.76s-.352-.136-.623-.3-.46-.514-.3-.406a5.566,5.566,0,0,0,.866.3,3.367,3.367,0,0,1-.162-.569c-.054-.3-.244-1.11-.244-1.11a2.547,2.547,0,0,1,.406.785,3.536,3.536,0,0,0,.271.7s.135-.541.379-.676.352.116.163.27a1.687,1.687,0,0,0-.407.866,15.71,15.71,0,0,0,1.327,2.708s.162-.488.3-1.083.216-.136.216.162a8.078,8.078,0,0,1-.325,1.3s.461,1,.407.622a3.624,3.624,0,0,1,.243-1.245C340.909,715.237,340.908,714.777,340.99,714.236Z" transform="translate(-293.553 -695.021)" fill="#252f13"/>
  <path id="Path_5929" data-name="Path 5929" d="M341.187,736.558a1.378,1.378,0,0,0-.35-1.377,1.8,1.8,0,0,1,.691-.746c.223-.136.541-.287.553-1.106s.546-.954.794-.191a2.216,2.216,0,0,1-.267,1.772A5.945,5.945,0,0,1,341.187,736.558Z" transform="translate(-293.553 -695.021)" fill="#261609"/>
  <path id="Path_5930" data-name="Path 5930" d="M343.626,728.2a1.8,1.8,0,0,0-1.228.18c-.46.333-.151.715.093,1.067a.646.646,0,0,1,.111.578,2.426,2.426,0,0,1-.168.6,1.93,1.93,0,0,1-.316.53,1.4,1.4,0,0,0-.21.566,1.228,1.228,0,0,0-.027.645c.089.263.339.4.512.578.225.236.672.718.192.964-.195.1-.342.006-.5.209a.762.762,0,0,0-.08.609c.032.2.121.469-.044.652s-.4.141-.522.4c-.144.316.037.426.163.685.144.3-.048.5-.177.74a3.127,3.127,0,0,0-.241.775,2.452,2.452,0,0,1-.485,1c-.1.139-.157.328-.384.294-.134-.02-.232-.213-.354-.268-.328-.146-.659.254-.612.586a1.289,1.289,0,0,0,1.209.054c.16-.1.29-.293.477-.348.206-.062.437.06.647.05.252-.012.407-.2.629-.343a3.116,3.116,0,0,1,.933-.31c.283-.077.645-.123.749-.391a.761.761,0,0,0-.018-.6c-.1-.18-.341-.3-.306-.539s.278-.328.444-.455c.218-.168.4-.376.631-.533.34-.233.579-.3.8-.671a4.046,4.046,0,0,1,.433-.651,1.158,1.158,0,0,0,.276-.866c-.226-.113-.436.019-.663-.008-.06-.238.145-.341.289-.475a8,8,0,0,0,.851-1.187,2.9,2.9,0,0,0,.371-.771c.129-.351.356-.665.517-1.017.217-.475.373-1.69-.437-1.645-.193.011.034-2.16-.874-2.233-.342-.027-.609.245-.863.454a5.912,5.912,0,0,0-.651.853A1.445,1.445,0,0,1,343.626,728.2Z" transform="translate(-293.553 -695.021)" fill="#545d2f"/>
  <path id="Path_5931" data-name="Path 5931" d="M344.6,733.823a4.678,4.678,0,0,0-.817-3.812c-1.361-1.579-1.035-1.334-.654-1.47s.436-.49,1.389.136.817.844.817.953.164-.381.409-.436.354-.408.081-.817-.3-.462-.027-.272.191.545.272.191a6.773,6.773,0,0,0,.218-.9c0-.191.136.218.055.654s.027.6.217.272.164-.953.191-.327.027.844.354.817.572.027.735.517-.354,1.661-.6,2.206a7.236,7.236,0,0,1-.871,1.443c-.3.381-.327.681-.708.9S344.5,734.8,344.6,733.823Z" transform="translate(-293.553 -695.021)" fill="#384b29"/>
  <path id="Path_5932" data-name="Path 5932" d="M342.919,731.97s1.429.62.857,3.454.143,1.072.31.072S344.42,732.518,342.919,731.97Z" transform="translate(-293.553 -695.021)" fill="#384b29"/>
  <path id="Path_5933" data-name="Path 5933" d="M345.589,733.975c-.06-.238.145-.341.289-.475a2.194,2.194,0,0,0,.234-.259c-.074-.119-.061-.434.323-1.318,0,0-.7.908-1.012.623a9.713,9.713,0,0,1,.415-1.841c.078-.234-.259.414-.467.829s.026.519-.259,1.142-.44.518-.466.829-.053,1.012-.364,1.245-.519.674-.726.778-.285.778-.415,1.116a7.2,7.2,0,0,1-.57,1.089c-.156.233-.286.8-.545.856a1.313,1.313,0,0,0-.752.441c-.237.266-.313.1-.583.513a1,1,0,0,1,.346-.246c.206-.062.437.06.647.05.252-.012.407-.2.629-.343a3.116,3.116,0,0,1,.933-.31c.283-.077.645-.123.749-.391a.761.761,0,0,0-.018-.6c-.1-.18-.341-.3-.306-.539s.278-.328.444-.455c.218-.168.4-.376.631-.533.34-.233.579-.3.8-.671a4.046,4.046,0,0,1,.433-.651,1.158,1.158,0,0,0,.276-.866C346.026,733.87,345.816,734,345.589,733.975Z" transform="translate(-293.553 -695.021)" fill="#1e2418"/>
  <path id="Path_5934" data-name="Path 5934" d="M339.956,738.1c.112.026.145-.132.175-.2a.622.622,0,0,0-.016-.475,1.8,1.8,0,0,1-.1-.289c-.011-.093.044-.213.136-.133.054.046.046.177.084.239a1.077,1.077,0,0,0,.1.107,1.983,1.983,0,0,0,.353.277c.124.1-.18.522-.22.561-.1.1-.284.464-.492.731-.039.051-.042-.042-.112-.035-.1.009-.419.328-.507.26-.12-.094-.05-.209-.028-.331.027-.153.039-.385.18-.49.1-.072.1-.123.216-.161Z" transform="translate(-293.553 -695.021)" fill="#584230"/>
  <path id="Path_5935" data-name="Path 5935" d="M339.472,739.075a2.18,2.18,0,0,0-.161.356c-.021.125.009.221.063.237s-.167.237-.167.237a3.638,3.638,0,0,1-.537.558c-.359.309-.314.411-.489.6s-.327.4-.46.362-.263-.059-.3-.111-.181-.154.133-.349a3.621,3.621,0,0,0,.718-.6c.23-.23.523-.474.621-.579s.23-.209.265-.32a1.719,1.719,0,0,1,.14-.535C339.409,738.761,339.544,738.857,339.472,739.075Z" transform="translate(-293.553 -695.021)" fill="#584230"/>
  <path id="Path_5936" data-name="Path 5936" d="M307,742.539a2.057,2.057,0,0,1,.956.475C308.393,743.41,307.329,742.84,307,742.539Z" transform="translate(-293.553 -695.021)" fill="#4c2619"/>
  <path id="Path_5937" data-name="Path 5937" d="M304.233,738.3a3.164,3.164,0,0,0,.261.49,9.943,9.943,0,0,1,.5.938c.079.174.187.386.251.551.073.192.183.379.242.586.082.285.218.544.323.82.1.259.058.56.373.624.146.03.429.2.559.135.2-.1,0-.4-.067-.524-.088-.159-.2-.3-.273-.464-.11-.253-.29-.485-.416-.729-.136-.261-.29-.52-.407-.793a5.5,5.5,0,0,0-.341-.745,6.1,6.1,0,0,1-.392-.834c-.075-.18-.192-.341-.274-.518-.045-.1-.064-.348-.194-.371-.176-.032-.118.2-.127.287A1.233,1.233,0,0,0,304.233,738.3Z" transform="translate(-293.553 -695.021)" fill="#74563f"/>
  <path id="Path_5938" data-name="Path 5938" d="M303.24,707.226a22.449,22.449,0,0,1,2.469-2.966c.479-.377.433-.326.3-.148s-.906,1.3-1.086,1.553.022-.34-.323.17-.331.2-.541.511S303.815,707.123,303.24,707.226Z" transform="translate(-293.553 -695.021)" fill="#261609"/>
</svg>
