<svg id="Livello_1" data-name="Livello 1" xmlns="http://www.w3.org/2000/svg" viewBox="0 0 1026.44 304.36">
    <title>RES_logotipo_RGB-per-sito</title>
    <circle cx="157.53" cy="152.18" r="152.18" fill="#c12629" />
    <path d="M243.62,172.86a14.08,14.08,0,0,1,4.14,10h0A14.13,14.13,0,0,1,233.63,197H207.06" fill="none" stroke="#fff" stroke-linecap="round" stroke-linejoin="round" stroke-width="13.85" />
    <path d="M240.85,107.49h-30a14.13,14.13,0,0,0-14.13,14.13h0a14.08,14.08,0,0,0,4.14,10" fill="none" stroke="#fff" stroke-linecap="round" stroke-linejoin="round" stroke-width="13.85" />
    <polyline points="269.12 132.34 288.96 152.18 269.12 172.02" fill="none" stroke="#fd0" stroke-linecap="round" stroke-linejoin="round" stroke-width="13.85" />
    <path d="M171.72,107.38H143.41a16.69,16.69,0,0,0-16.69,16.69v28.1H272.58" fill="none" stroke="#fd0" stroke-linecap="round" stroke-linejoin="round" stroke-width="13.85" />
    <path d="M171.72,197H143.41a16.69,16.69,0,0,1-16.69-16.69v-6" fill="none" stroke="#fd0" stroke-linecap="round" stroke-linejoin="round" stroke-width="13.85" />
    <path d="M44.4,197V107.38H80A16.69,16.69,0,0,1,96.7,124.08v10.8A16.69,16.69,0,0,1,80,151.56H69.88" fill="none" stroke="#fff" stroke-linecap="round" stroke-linejoin="round" stroke-width="13.85" />
    <line x1="83.49" y1="175.04" x2="99.15" y2="196.97" fill="none" stroke="#fff" stroke-linecap="round" stroke-linejoin="round" stroke-width="13.85" />
    <path d="M371.44,138.65c-2.45,0-7.48-1.23-7.48-8.34V80.06c0-6.13,2.82-8.95,9.07-8.95H388.1c13.6,0,25.25,5.39,25.25,20,0,9.56-5.64,16.06-12.87,18.39l11.28,16.67a9.44,9.44,0,0,1,1.84,5.27,7.06,7.06,0,0,1-7.11,7.23,7.5,7.5,0,0,1-6.74-4l-14.34-22.92h-6.5v18.63C378.91,137.42,373.89,138.65,371.44,138.65Zm7.48-38.36h7.6c5.64,0,11.77-1.47,11.77-9.07,0-6.25-5.39-8-10.79-8h-8.58Z" />
    <path d="M437.87,137.54c-6.25,0-9.07-2.82-9.07-8.95V80.06c0-6.13,2.82-8.95,9.07-8.95h30.89c5.88,0,7,4.17,7,6.13s-1.1,6.25-7,6.25h-25v14h23.78c5.64,0,6.62,3.92,6.62,5.88s-1,5.88-6.62,5.88H443.75V124.8h26.6c6,0,7,4.29,7,6.37s-1,6.37-7,6.37Z" />
    <path d="M500.13,137.54c-6.25,0-9.07-2.82-9.07-8.95V80.06c0-6.13,2.82-8.95,9.07-8.95h16.06c18.63,0,36.52,8.33,36.52,33.09,0,23-18.38,33.34-37,33.34ZM506,125.17h7.84c11.52,0,22.67-4.54,22.67-21,0-17.28-10.91-21-22.67-21H506Z" />
    <path d="M576.49,137.54c-6.25,0-9.07-2.82-9.07-8.95V80.06c0-6.13,2.82-8.95,9.07-8.95h16.06c18.63,0,36.52,8.33,36.52,33.09,0,23-18.38,33.34-37,33.34Zm5.88-12.38h7.84c11.52,0,22.67-4.54,22.67-21,0-17.28-10.91-21-22.67-21h-7.84Z" />
    <path d="M658.73,130.31c0,7.11-5,8.34-7.48,8.34s-7.48-1.23-7.48-8.34v-52c0-7.11,5-8.33,7.48-8.33s7.48,1.23,7.48,8.33Z" />
    <path d="M687.9,83.74H674.42c-6,0-7-4.29-7-6.37s1-6.25,7-6.25h41.92c6,0,7,4.29,7,6.25s-1,6.37-7,6.37H702.85v46.57c0,7.11-5,8.34-7.48,8.34s-7.48-1.23-7.48-8.34Z" />
    <path d="M764.5,139.26c-20.59,0-36.4-14.46-36.4-35.18,0-21.2,15.81-34.68,36.4-34.68,20.84,0,36.65,13.48,36.65,34.68C801.15,124.8,785.34,139.26,764.5,139.26Zm0-56.5c-12.13,0-20.22,8.83-20.22,21.33,0,13.11,8.21,21.45,20.22,21.45s20.35-8.33,20.35-21.45C784.85,91.58,776.76,82.76,764.5,82.76Z" />
    <path d="M855.57,137.54c-6.25,0-9.07-2.82-9.07-8.95V80.06c0-6.13,2.82-8.95,9.07-8.95h16.06c18.63,0,36.52,8.33,36.52,33.09,0,23-18.38,33.34-37,33.34Zm5.88-12.38h7.84c11.52,0,22.67-4.54,22.67-21,0-17.28-10.91-21-22.67-21h-7.84Z" />
    <path d="M937.81,130.31c0,7.11-5,8.34-7.48,8.34s-7.48-1.23-7.48-8.34v-52c0-7.11,5-8.33,7.48-8.33s7.48,1.23,7.48,8.33Z" />
    <path d="M363.71,230.27c-3.31-2.33-4.29-4.9-4.29-7a6.83,6.83,0,0,1,7-7,8.87,8.87,0,0,1,5.52,2.33,19.18,19.18,0,0,0,11.89,4.29c4.66,0,10.05-1.72,10.05-7.48,0-5.52-4.78-7.11-14.34-9.44-9.31-2.33-18.63-6.37-18.63-18.75,0-14.71,12.62-21.08,25-21.08,6.25,0,12.75,1.59,17.65,4.9,3.43,2.33,4,4.66,4,6.5a6.57,6.57,0,0,1-6.74,6.74,9.92,9.92,0,0,1-5.52-2c-2.82-2-6.37-3.68-10.05-3.68-4.9,0-9.8,1.84-9.8,6.86s4.78,6.5,13.6,8.7c9.31,2.33,20.35,6.74,20.35,19.61,0,16.06-12.5,22.18-26.23,22.18C376,236,369,234.07,363.71,230.27Z" />
    <path d="M456.74,236c-20.59,0-36.4-14.46-36.4-35.18,0-21.2,15.81-34.68,36.4-34.68,20.84,0,36.65,13.48,36.65,34.68C493.39,221.57,477.58,236,456.74,236Zm0-56.5c-12.13,0-20.22,8.83-20.22,21.33,0,13.11,8.21,21.45,20.22,21.45s20.35-8.33,20.35-21.45C477.09,188.36,469,179.53,456.74,179.53Z" />
    <path d="M517.17,234.32c-6.25,0-9.07-2.82-9.07-8.95V175.12c0-7.11,5-8.33,7.48-8.33S523,168,523,175.12V221.2h20.84c6.25,0,7.35,4.41,7.35,6.5s-1.1,6.62-7.35,6.62Z" />
    <path d="M576.12,227.08c0,7.11-5,8.34-7.48,8.34s-7.48-1.23-7.48-8.34v-52c0-7.11,5-8.33,7.48-8.33s7.48,1.23,7.48,8.33Z" />
    <path d="M603.82,234.32c-6.25,0-9.07-2.82-9.07-8.95V176.83c0-6.13,2.82-8.95,9.07-8.95h16.06c18.63,0,36.52,8.33,36.52,33.09,0,23-18.38,33.34-37,33.34Zm5.88-12.38h7.84c11.52,0,22.67-4.54,22.67-21,0-17.28-10.91-21-22.67-21H609.7Z" />
    <path d="M712.41,219.85H681.89l-4.41,10.29c-2,4.41-5,5.27-7.23,5.27a6.83,6.83,0,0,1-7-7,10.6,10.6,0,0,1,1-4.29l23.29-49.76c3.06-6.49,7-7.6,10.05-7.6s6.86,1,9.93,7.6l23,49.39a10.17,10.17,0,0,1,1,4.29,7.3,7.3,0,0,1-7.35,7.35c-2.33,0-5.39-1-7.35-5.52ZM687,208.09h20.1l-10.05-22.92Z" />
    <path d="M749.92,235.42c-2.45,0-7.48-1.23-7.48-8.34V176.83c0-6.13,2.82-8.95,9.07-8.95h15.08c13.6,0,25.25,5.39,25.25,20,0,9.56-5.64,16.06-12.87,18.39l11.28,16.67a9.44,9.44,0,0,1,1.84,5.27,7.06,7.06,0,0,1-7.11,7.23,7.5,7.5,0,0,1-6.74-4l-14.34-22.92h-6.5v18.63C757.39,234.19,752.37,235.42,749.92,235.42Zm7.48-38.36H765c5.64,0,11.77-1.47,11.77-9.07,0-6.25-5.39-8-10.79-8h-8.58Z" />
    <path d="M822.23,227.08c0,7.11-5,8.34-7.48,8.34s-7.48-1.23-7.48-8.34v-52c0-7.11,5-8.33,7.48-8.33s7.48,1.23,7.48,8.33Z" />
    <path d="M849.93,234.32c-6.25,0-9.07-2.82-9.07-8.95V176.83c0-6.13,2.82-8.95,9.07-8.95h30.89c5.88,0,7,4.17,7,6.13s-1.1,6.25-7,6.25h-25v14h23.78c5.64,0,6.62,3.92,6.62,5.88s-1,5.88-6.62,5.88H855.81v15.57h26.6c6,0,7,4.29,7,6.37s-1,6.37-7,6.37Z" />
    <path d="M913.67,180.51H900.18c-6,0-7-4.29-7-6.37s1-6.25,7-6.25H942.1c6,0,7,4.29,7,6.25s-1,6.37-7,6.37H928.62v46.57c0,7.11-5,8.34-7.48,8.34s-7.48-1.23-7.48-8.34Z" />
    <path d="M999.09,219.85H968.58l-4.41,10.29c-2,4.41-5,5.27-7.23,5.27a6.83,6.83,0,0,1-7-7,10.6,10.6,0,0,1,1-4.29l23.29-49.76c3.06-6.49,7-7.6,10.05-7.6s6.86,1,9.93,7.6l23,49.39a10.17,10.17,0,0,1,1,4.29,7.3,7.3,0,0,1-7.35,7.35c-2.33,0-5.39-1-7.35-5.52Zm-13.24-68c2.94,2.57,3.19,4,3.19,5.51a5.2,5.2,0,0,1-5.15,5.27c-1.47,0-2.82-.49-5.39-2.45l-9.19-7.48c-3.19-2.45-3.55-4.41-3.55-5.88a5.49,5.49,0,0,1,5.51-5.51c1.35,0,3.06.24,5.64,2.57Zm-12.13,56.26h20.1l-10.05-22.92Z" />
</svg>